<?xml version="1.0" encoding="UTF-8" standalone="no"?>
<!DOCTYPE svg PUBLIC "-//W3C//DTD SVG 1.1//EN" "http://www.w3.org/Graphics/SVG/1.1/DTD/svg11.dtd">
<svg version="1.1" xmlns="http://www.w3.org/2000/svg" xmlns:xlink="http://www.w3.org/1999/xlink" preserveAspectRatio="xMidYMid meet" viewBox="0 0 640 640" width="640" height="640"><defs><path d="M-597.32 252.21L-551.47 252.21L-555.79 300.5L-597.32 311.71L-597.32 350.46L-520.98 329.3L-520.42 323.01L-511.67 224.97L-510.76 214.97L-520.8 214.97L-597.32 214.97L-597.32 252.21Z" id="brkKtoZ6X"></path><path d="M171.27 192.63L468.73 192.63L441.63 496.2L319.82 529.98L198.35 496.25L171.27 192.63Z" id="b1jhtaYG9W"></path><path d="M418.18 476.5L441.34 217.08L319.75 217.08L319.75 503.79L418.18 476.5Z" id="a11IysJ1XN"></path><path d="M348.25 125.57L373.92 153.43L373.92 166.69L321.04 166.69L321.04 151.16L346.71 151.16L321.04 123.31L321.04 110.02L372.94 110.02L372.94 125.57L372.94 125.57L348.25 125.57Z" id="aiM0phHT2"></path><path d="M311.62 166.67L266.08 166.67L266.08 147.95L292.69 147.95L292.69 110.05L311.62 110.05L311.62 110.05L311.62 166.67Z" id="dCecxkipM"></path><path d="M319.53 426.47L278.06 415.27L275.41 385.57L255.26 385.57L238.03 385.57L243.24 444.04L319.52 465.22L319.69 465.17L319.69 426.43L319.53 426.47Z" id="bTgPZJwQ"></path><path d="M324.71 329.7L278.86 329.7L284.23 271.26L324.81 270.18L324.71 231.45L250.57 231.45L247.81 258.9L239.06 356.94L238.15 366.94L248.19 366.94L324.71 366.94L324.71 329.7Z" id="dRvZWa5U"></path><path d="M324.62 270.18L365.29 272.63L368.74 311.08L388.89 311.08L406.12 311.08L399.61 239.13L324.63 231.44L324.46 231.49L324.46 270.23L324.62 270.18Z" id="d12h1ZFOW8"></path><path d="M402.28 270.34L399.09 231.45L320.49 231.45L320.49 255.61L320.49 270.25L320.49 270.34L402.28 270.34" id="fOnFiXs4J"></path><path d="M319.56 366.95L365.42 366.95L361.1 415.25L319.56 426.46L319.56 465.2L395.9 444.04L396.46 437.75L405.22 339.72L406.12 329.72L396.09 329.72L319.56 329.72L319.56 366.95Z" id="e3fLyQe6c"></path><path d="" id="a1DqYKx80"></path></defs><g><g><g><use xlink:href="#brkKtoZ6X" opacity="1" fill="#ffffff" fill-opacity="1"></use><g><use xlink:href="#brkKtoZ6X" opacity="1" fill-opacity="0" stroke="#000000" stroke-width="1" stroke-opacity="0"></use></g></g><g><use xlink:href="#b1jhtaYG9W" opacity="1" fill="#e4a227" fill-opacity="1"></use><g><use xlink:href="#b1jhtaYG9W" opacity="1" fill-opacity="0" stroke="#000000" stroke-width="1" stroke-opacity="0"></use></g></g><g><use xlink:href="#a11IysJ1XN" opacity="1" fill="#f0bf26" fill-opacity="1"></use><g><use xlink:href="#a11IysJ1XN" opacity="1" fill-opacity="0" stroke="#000000" stroke-width="1" stroke-opacity="0"></use></g></g><g><use xlink:href="#aiM0phHT2" opacity="1" fill="#151515" fill-opacity="1"></use><g><use xlink:href="#aiM0phHT2" opacity="1" fill-opacity="0" stroke="#000000" stroke-width="1" stroke-opacity="0"></use></g></g><g><use xlink:href="#dCecxkipM" opacity="1" fill="#020202" fill-opacity="1"></use><g><use xlink:href="#dCecxkipM" opacity="1" fill-opacity="0" stroke="#000000" stroke-width="1" stroke-opacity="0"></use></g></g><g><use xlink:href="#bTgPZJwQ" opacity="1" fill="#ebebeb" fill-opacity="1"></use><g><use xlink:href="#bTgPZJwQ" opacity="1" fill-opacity="0" stroke="#000000" stroke-width="1" stroke-opacity="0"></use></g></g><g><use xlink:href="#dRvZWa5U" opacity="1" fill="#ebebeb" fill-opacity="1"></use><g><use xlink:href="#dRvZWa5U" opacity="1" fill-opacity="0" stroke="#000000" stroke-width="1" stroke-opacity="0"></use></g></g><g><use xlink:href="#d12h1ZFOW8" opacity="1" fill="#ffffff" fill-opacity="1"></use><g><use xlink:href="#d12h1ZFOW8" opacity="1" fill-opacity="0" stroke="#000000" stroke-width="1" stroke-opacity="0"></use></g></g><g><use xlink:href="#fOnFiXs4J" opacity="1" fill="#ffffff" fill-opacity="1"></use><g><use xlink:href="#fOnFiXs4J" opacity="1" fill-opacity="0" stroke="#000000" stroke-width="1" stroke-opacity="0"></use></g></g><g><use xlink:href="#e3fLyQe6c" opacity="1" fill="#ffffff" fill-opacity="1"></use><g><use xlink:href="#e3fLyQe6c" opacity="1" fill-opacity="0" stroke="#000000" stroke-width="1" stroke-opacity="0"></use></g></g><g><use xlink:href="#a1DqYKx80" opacity="1" fill="#ffffff" fill-opacity="1"></use><g><use xlink:href="#a1DqYKx80" opacity="1" fill-opacity="0" stroke="#000000" stroke-width="1" stroke-opacity="0"></use></g></g></g></g></svg>