<?xml version="1.0" encoding="UTF-8" standalone="no"?>
<!DOCTYPE svg PUBLIC "-//W3C//DTD SVG 1.1//EN" "http://www.w3.org/Graphics/SVG/1.1/DTD/svg11.dtd">
<svg version="1.1" xmlns="http://www.w3.org/2000/svg" xmlns:xlink="http://www.w3.org/1999/xlink" preserveAspectRatio="xMidYMid meet" viewBox="0 0 640 640" width="640" height="640"><defs><path d="M256 0.56C256 0.56 256 0.56 256 0.56C256 154.16 256 239.49 256 256.56C256 256.56 256 256.56 256 256.56C102.4 256.56 17.07 256.56 0 256.56C0 256.56 0 256.56 0 256.56C0 102.96 0 17.63 0 0.56C0 0.56 0 0.56 0 0.56C153.6 0.56 238.93 0.56 256 0.56Z" id="d31mOMe4fl"></path><path d="M172.54 92.21C165.38 100.4 158.21 109.62 151.04 119.34C143.36 129.07 136.19 139.31 129.02 150.06C121.86 160.3 115.2 170.54 109.57 180.27C115.17 180.27 143.16 180.27 193.54 180.27L193.54 211.5L62.98 211.5C62.98 198.29 62.98 190.96 62.98 189.49C67.58 181.3 72.7 172.59 79.36 162.35C86.02 152.62 92.67 142.38 99.33 132.14C105.98 121.9 113.66 112.18 120.83 102.96C128 93.74 134.66 85.04 140.8 77.87C135.88 77.87 111.31 77.87 67.07 77.87L67.07 46.64L190.46 46.64L190.46 71.73L190.46 71.73C182.95 79.92 176.98 86.75 172.54 92.21Z" id="a6GPlUPfHi"></path></defs><g><g><g><use xlink:href="#d31mOMe4fl" opacity="1" fill="#000000" fill-opacity="1"></use><g><use xlink:href="#d31mOMe4fl" opacity="1" fill-opacity="0" stroke="#000000" stroke-width="1" stroke-opacity="0"></use></g></g><g><use xlink:href="#a6GPlUPfHi" opacity="1" fill="#ffffff" fill-opacity="1"></use><g><use xlink:href="#a6GPlUPfHi" opacity="1" fill-opacity="0" stroke="#000000" stroke-width="1" stroke-opacity="0"></use></g></g></g></g></svg>