<?xml version="1.0" encoding="UTF-8" standalone="no"?>
<svg
   xmlns:dc="http://purl.org/dc/elements/1.1/"
   xmlns:cc="http://creativecommons.org/ns#"
   xmlns:rdf="http://www.w3.org/1999/02/22-rdf-syntax-ns#"
   xmlns:svg="http://www.w3.org/2000/svg"
   xmlns="http://www.w3.org/2000/svg"
   xmlns:sodipodi="http://sodipodi.sourceforge.net/DTD/sodipodi-0.dtd"
   xmlns:inkscape="http://www.inkscape.org/namespaces/inkscape"
   version="1.1"
   width="310"
   height="310"
   id="svg2"
   sodipodi:docname="codacy.svg"
   inkscape:version="0.92.2 (unknown)">
  <sodipodi:namedview
     pagecolor="#ffffff"
     bordercolor="#666666"
     borderopacity="1"
     objecttolerance="10"
     gridtolerance="10"
     guidetolerance="10"
     inkscape:pageopacity="0"
     inkscape:pageshadow="2"
     inkscape:window-width="1366"
     inkscape:window-height="710"
     id="namedview28"
     showgrid="false"
     fit-margin-top="5"
     fit-margin-left="5"
     fit-margin-bottom="5"
     fit-margin-right="5"
     inkscape:zoom="1.652459"
     inkscape:cx="104.87214"
     inkscape:cy="147.20231"
     inkscape:window-x="0"
     inkscape:window-y="30"
     inkscape:window-maximized="1"
     inkscape:current-layer="svg2" />
  <metadata
     id="metadata4">
    <rdf:RDF>
      <cc:Work
         rdf:about="">
        <dc:format>image/svg+xml</dc:format>
        <dc:type
           rdf:resource="http://purl.org/dc/dcmitype/StillImage" />
        <dc:title />
      </cc:Work>
    </rdf:RDF>
  </metadata>
  <defs
     id="defs6">
    <clipPath
       id="clipPath8">
      <path
         d="M 76,2 V 48 H 54 V 71 H 35.580737 c -0.07818,0.665694 -0.141485,1.332869 -0.205737,2 -1.151162,12.530963 1.036422,24.087546 6.0625,33.96875 L 43.125,110 c 1.011403,1.81678 2.191241,3.52297 3.4375,5.1875 1.244725,1.66248 1.685716,2.58262 2.46875,3.6875 C 62.319911,133.81083 82.129473,141 105,141 155.64836,141 198.63299,118.56201 217.65625,68.15625 231.15302,69.54122 244.09968,66.080358 250,54.5625 240.60137,49.138835 228.52163,50.877226 221.5625,54.375 L 240,2 168,48 H 145 V 2 Z"
         id="path10"
         inkscape:connector-curvature="0" />
    </clipPath>
  </defs>
  <circle
     style="opacity:1;fill:#eeeeee;fill-opacity:1;fill-rule:nonzero;stroke:none;stroke-width:2.08293152;stroke-opacity:1"
     id="path835"
     cx="155"
     cy="155"
     r="150" />
  <path
     style="fill:#333333;fill-opacity:1;stroke-width:0.4413943"
     d="m 150.66392,229.70015 c -6.77199,-0.49648 -12.96209,-1.68658 -19.43363,-3.73629 -3.31026,-1.04846 -13.25018,-5.6521 -13.25018,-6.13678 0,-0.31647 10.32003,-18.36688 10.74181,-18.78812 0.11585,-0.1157 1.37356,0.37335 2.79493,1.08676 5.90624,2.96448 15.0739,5.37737 20.43104,5.37737 h 2.69108 V 218.75155 230 l -0.99376,-0.077 c -0.54657,-0.0424 -1.88815,-0.14262 -2.98129,-0.22278 z m 23.01529,-5.811 c -0.49896,-1.85522 -1.77834,-6.64785 -2.84305,-10.6503 l -1.93583,-7.27714 3.9127,-1.39526 c 10.07764,-3.59366 19.62629,-10.9723 25.71335,-19.86979 l 2.12211,-3.10189 9.12695,5.27233 c 5.01983,2.89977 9.30941,5.44751 9.53241,5.66162 0.24249,0.23283 -0.39555,1.59179 -1.58738,3.38096 -6.90187,10.36112 -16.45277,19.11881 -27.194,24.93554 -3.80256,2.05921 -11.13969,5.12344 -14.31985,5.98045 l -1.62018,0.43662 z M 99.576302,205.18723 c -2.15314,-2.27682 -5.87401,-7.16353 -8.1939,-10.76124 l -1.17916,-1.82866 8.69877,-4.98063 c 4.784328,-2.73936 9.106008,-5.23805 9.603728,-5.55266 0.83767,-0.52947 1.04391,-0.36093 2.77373,2.26681 1.02782,1.56135 2.8897,3.95447 4.1375,5.31804 l 2.26874,2.47923 -7.68776,7.6875 c -4.22827,4.2281 -7.81014,7.68747 -7.95969,7.68747 -0.14956,0 -1.25745,-1.04213 -2.461958,-2.31586 z M 216.25235,171.99668 c -5.71576,-1.56556 -10.11225,-2.98841 -10.0528,-3.25344 1.55611,-6.93602 1.86725,-16.02368 0.76482,-22.33758 -0.37146,-2.12736 -0.56254,-3.98062 -0.42465,-4.11835 0.13793,-0.13775 4.86078,-1.48627 10.49529,-2.99678 6.74812,-1.80905 10.34336,-2.58676 10.53401,-2.27868 1.21645,1.96577 2.77299,16.28286 2.3644,21.74795 -0.5925,7.92532 -2.128,16.1292 -3.00589,16.06001 -0.28418,-0.0223 -5.08801,-1.29281 -10.67518,-2.82313 z m -133.996978,0.32743 c -0.99177,-3.86075 -2.21031,-13.03633 -2.25537,-16.98296 -10e-4,-0.18195 5.06443,-0.33083 11.25889,-0.33083 h 11.262648 l -8.7e-4,2.75698 c -4.5e-4,1.51633 0.32021,4.50438 0.7127,6.64012 0.39247,2.13574 0.64132,3.94876 0.55299,4.02897 -0.21163,0.19211 -20.208628,5.54191 -20.715098,5.54191 -0.21502,0 -0.58217,-0.74439 -0.81589,-1.65419 z m 11.43272,-33.94505 c -5.70863,-1.52929 -10.51399,-2.82954 -10.67858,-2.88945 -1.02435,-0.37288 4.904,-14.35148 8.54584,-20.1504 5.56938,-8.86818 14.586098,-17.933949 23.389378,-23.516617 l 2.48554,-1.576227 4.36039,7.554609 c 2.39822,4.155015 4.89423,8.474755 5.5467,9.599395 l 1.1863,2.04479 -2.953,1.93945 c -3.72073,2.44369 -10.05705,8.48875 -12.867,12.27555 -2.86842,3.86561 -5.54704,8.90422 -7.24471,13.62767 l -1.39155,3.87174 z M 198.56645,125.38254 c -6.12092,-8.94698 -15.63086,-16.31052 -25.73557,-19.92709 l -3.89485,-1.394 2.78939,-10.366221 c 1.53416,-5.701419 2.83895,-10.507325 2.89953,-10.679789 0.21535,-0.613107 8.1485,2.360078 13.80201,5.172712 11.88784,5.914246 21.82089,14.704858 29.29603,25.926578 1.70704,2.56263 1.9045,3.0796 1.36654,3.57796 -0.34584,0.32039 -4.20636,2.62702 -8.57892,5.12585 -4.37256,2.49883 -8.36229,4.80908 -8.86606,5.13389 -0.85636,0.55214 -1.05658,0.38499 -3.0781,-2.56989 z M 141.38878,103.5894 c 0,-0.13833 -1.19253,-4.689948 -2.65004,-10.114732 -1.45752,-5.424783 -2.65004,-10.066328 -2.65004,-10.314549 0,-0.893509 7.50284,-2.305872 15.34813,-2.889192 L 155.08064,80 v 11.25877 11.25877 h -2.83203 c -1.55761,0 -4.38983,0.29773 -6.29383,0.66161 -3.77403,0.72126 -4.566,0.79242 -4.566,0.41025 z"
     id="path940"
     inkscape:connector-curvature="0"
     sodipodi:nodetypes="ccsscscccccccccsscscccccccscsccsccsccccscccccccsccccsccccsccsccscccccccccccsccscsscccscs" />
</svg>
