<?xml version="1.0" encoding="UTF-8" standalone="no"?>
<svg
   xmlns:dc="http://purl.org/dc/elements/1.1/"
   xmlns:cc="http://creativecommons.org/ns#"
   xmlns:rdf="http://www.w3.org/1999/02/22-rdf-syntax-ns#"
   xmlns:svg="http://www.w3.org/2000/svg"
   xmlns="http://www.w3.org/2000/svg"
   xmlns:sodipodi="http://sodipodi.sourceforge.net/DTD/sodipodi-0.dtd"
   xmlns:inkscape="http://www.inkscape.org/namespaces/inkscape"
   data-name="Layer 1"
   viewBox="0 0 186.21638 144.37957"
   x="0px"
   y="0px"
   version="1.1"
   id="svg6"
   sodipodi:docname="logo-icon.svg"
   inkscape:version="0.92.2 (unknown)"
   width="186.21637"
   height="144.37956"
   inkscape:export-filename="/home/justin/Documents/University/3rd Year/COS 301/Capstone/Java-the-Hutts/demo/img/hutts-verification.png"
   inkscape:export-xdpi="119.28783"
   inkscape:export-ydpi="119.28783">
  <metadata
     id="metadata12">
    <rdf:RDF>
      <cc:Work
         rdf:about="">
        <dc:format>image/svg+xml</dc:format>
        <dc:type
           rdf:resource="http://purl.org/dc/dcmitype/StillImage" />
        <dc:title>Artboard 6</dc:title>
      </cc:Work>
    </rdf:RDF>
  </metadata>
  <defs
     id="defs10" />
  <sodipodi:namedview
     pagecolor="#ffffff"
     bordercolor="#666666"
     borderopacity="1"
     objecttolerance="10"
     gridtolerance="10"
     guidetolerance="10"
     inkscape:pageopacity="0"
     inkscape:pageshadow="2"
     inkscape:window-width="1366"
     inkscape:window-height="710"
     id="namedview8"
     showgrid="false"
     inkscape:measure-start="0,0"
     inkscape:measure-end="0,0"
     inkscape:zoom="2.36"
     inkscape:cx="132.68763"
     inkscape:cy="14.388274"
     inkscape:window-x="0"
     inkscape:window-y="30"
     inkscape:window-maximized="1"
     inkscape:current-layer="svg6"
     fit-margin-left="5"
     fit-margin-top="5"
     fit-margin-bottom="5"
     fit-margin-right="5" />
  <title
     id="title2">Artboard 6</title>
  <path
     d="M 52.785368,31.786324 H 36.767326 V 19.889252 A 14.907172,14.907172 0 0 1 51.65658,5 h 114.67054 a 14.907172,14.907172 0 0 1 14.88925,14.889252 V 91.701688 A 14.907172,14.907172 0 0 1 166.32712,106.59094 H 155.37967 V 90.590816 h 9.76492 V 21.000124 H 52.785368 Z M 5,126.94496 V 55.132533 A 12.434588,12.434588 0 0 1 17.434587,42.697939 H 132.10514 a 12.434588,12.434588 0 0 1 12.43459,12.434594 v 71.812427 a 12.434588,12.434588 0 0 1 -12.43459,12.4346 H 17.434587 A 12.434588,12.434588 0 0 1 5,126.94496 Z m 124.84756,-14.06505 a 1.6842236,1.6842236 0 0 0 -1.68423,-1.68423 h -20.87362 a 1.6842236,1.6842236 0 0 0 -1.68422,1.68423 v 3.2251 a 1.6842236,1.6842236 0 0 0 1.68422,1.68423 h 20.87362 a 1.6842236,1.6842236 0 0 0 1.68423,-1.68423 z M 84.731869,69.197593 a 1.6842236,1.6842236 0 0 0 1.684221,1.68422 h 41.74724 a 1.6842236,1.6842236 0 0 0 1.68423,-1.68422 v -3.22511 a 1.6842236,1.6842236 0 0 0 -1.68423,-1.684228 H 86.41609 a 1.6842236,1.6842236 0 0 0 -1.684221,1.684228 z m 0,15.641776 a 1.6842236,1.6842236 0 0 0 1.684221,1.684227 h 41.74724 a 1.6842236,1.6842236 0 0 0 1.68423,-1.684227 v -3.225106 a 1.6842236,1.6842236 0 0 0 -1.68423,-1.684227 H 86.41609 a 1.6842236,1.6842236 0 0 0 -1.684221,1.684227 z m 0,15.641781 a 1.6842236,1.6842236 0 0 0 1.684221,1.68422 h 41.74724 a 1.6842236,1.6842236 0 0 0 1.68423,-1.68422 v -3.207192 a 1.6842236,1.6842236 0 0 0 -1.68423,-1.684221 H 86.41609 a 1.6842236,1.6842236 0 0 0 -1.684221,1.684221 z m -64.717192,19.20731 a 2.4009147,2.4009147 0 0 0 2.400911,2.40092 H 76.63326 a 2.4009147,2.4009147 0 0 0 2.400916,-2.40092 v -5.91269 A 5.9306173,5.9306173 0 0 0 76.848266,109.18894 95.696158,95.696158 0 0 0 59.61185,98.133989 0.53751822,0.53751822 0 0 1 59.307257,97.650223 v -5.751446 a 13.20503,13.20503 0 0 0 1.684224,-4.533067 c 0.645019,0 1.487134,-0.94962 2.400914,-4.174726 1.25421,-4.407656 0,-5.052675 -1.20046,-4.945168 a 11.574558,11.574558 0 0 0 0.483768,-1.791727 C 64.574933,65.022865 59.038495,64.628687 59.038495,64.628687 a 8.6182081,8.6182081 0 0 0 -3.440113,-3.189275 11.395386,11.395386 0 0 0 -6.933989,-1.469216 10.087425,10.087425 0 0 0 -2.75926,0.519599 v 0 a 12.201663,12.201663 0 0 0 -3.045932,1.558804 16.35847,16.35847 0 0 0 -3.135524,2.580088 12.542091,12.542091 0 0 0 -3.386367,5.93062 12.88252,12.88252 0 0 0 0,5.787276 v 0 a 11.556641,11.556641 0 0 0 0.483766,1.791726 c -1.110868,-0.107513 -2.436749,0.537519 -1.200455,4.945169 0.913783,3.207188 1.791727,4.120972 2.400914,4.174725 a 13.455872,13.455872 0 0 0 1.702142,4.640574 v 5.733529 a 0.53751822,0.53751822 0 0 1 -0.304596,0.483765 95.696158,95.696158 0 0 0 -17.236416,11.054959 5.9306173,5.9306173 0 0 0 -2.185906,4.58682 z"
     id="path4"
     inkscape:connector-curvature="0"
     style="fill:#ffffff;fill-opacity:0.99869283;stroke-width:1.79172742"
     inkscape:export-filename="/home/justin/Documents/University/3rd Year/COS 301/Capstone/Java-the-Hutts/demo/img/hutts-verification-icon.png"
     inkscape:export-xdpi="131.77426"
     inkscape:export-ydpi="131.77426" />
</svg>
