<?xml version="1.0" encoding="UTF-8" standalone="no"?>
<svg
   xmlns:dc="http://purl.org/dc/elements/1.1/"
   xmlns:cc="http://creativecommons.org/ns#"
   xmlns:rdf="http://www.w3.org/1999/02/22-rdf-syntax-ns#"
   xmlns:svg="http://www.w3.org/2000/svg"
   xmlns="http://www.w3.org/2000/svg"
   xmlns:sodipodi="http://sodipodi.sourceforge.net/DTD/sodipodi-0.dtd"
   xmlns:inkscape="http://www.inkscape.org/namespaces/inkscape"
   width="270.97858"
   height="259.87311"
   viewBox="0 0 27.748206 26.607809"
   preserveAspectRatio="xMinYMin meet"
   version="1.1"
   id="svg8"
   sodipodi:docname="pybuilder.svg"
   inkscape:version="0.92.2 (unknown)">
  <metadata
     id="metadata14">
    <rdf:RDF>
      <cc:Work
         rdf:about="">
        <dc:format>image/svg+xml</dc:format>
        <dc:type
           rdf:resource="http://purl.org/dc/dcmitype/StillImage" />
        <dc:title />
      </cc:Work>
    </rdf:RDF>
  </metadata>
  <defs
     id="defs12" />
  <sodipodi:namedview
     pagecolor="#ffffff"
     bordercolor="#666666"
     borderopacity="1"
     objecttolerance="10"
     gridtolerance="10"
     guidetolerance="10"
     inkscape:pageopacity="0"
     inkscape:pageshadow="2"
     inkscape:window-width="1366"
     inkscape:window-height="710"
     id="namedview10"
     showgrid="false"
     fit-margin-top="5"
     fit-margin-left="5"
     fit-margin-bottom="5"
     fit-margin-right="5"
     inkscape:zoom="1.0805484"
     inkscape:cx="-128.1236"
     inkscape:cy="88.241164"
     inkscape:window-x="0"
     inkscape:window-y="30"
     inkscape:window-maximized="1"
     inkscape:current-layer="svg8" />
  <ellipse
     style="opacity:1;fill:#eeeeee;fill-opacity:1;fill-rule:nonzero;stroke-width:0.1024"
     id="path821"
     cx="13.874104"
     cy="13.305503"
     rx="13.362103"
     ry="12.793503" />
  <path
     style="fill:#333333;fill-opacity:1;stroke-width:0.1024"
     d="m 11.816303,18.398998 c -0.281208,-0.171456 -0.332583,-0.262675 -0.331402,-0.588417 7.68e-4,-0.212029 0.02977,-0.49143 0.06445,-0.620893 0.06738,-0.251575 0.665455,-0.594371 1.470155,-0.84265 0.436434,-0.134656 0.609287,-0.256994 0.612832,-0.433737 8.6e-4,-0.043 -0.16534,-0.0084 -0.369338,0.0768 -0.217071,0.0907 -0.68327,0.154974 -1.124039,0.154974 -0.693924,0 -0.76656,-0.02049 -0.923914,-0.260642 -0.138901,-0.211991 -0.159086,-0.412283 -0.108136,-1.072994 0.03445,-0.446791 0.136333,-1.096724 0.226397,-1.444293 0.09006,-0.347569 0.151409,-0.86452 0.136322,-1.148778 L 11.4422,11.701535 11.949253,11.57008 c 0.27888,-0.0723 0.748974,-0.132343 1.044654,-0.133429 l 0.5376,-0.002 -0.0036,0.5376 c -0.002,0.29568 -0.07368,0.90624 -0.15937,1.3568 -0.08569,0.45056 -0.182234,1.01504 -0.214545,1.2544 -0.05594,0.414386 -0.04616,0.4352 0.204527,0.4352 0.144801,0 0.290207,-0.04358 0.323125,-0.09684 0.0996,-0.161153 0.464236,-2.270384 0.464236,-2.685351 0,-0.546176 0.303494,-0.721207 1.356202,-0.782147 0.737473,-0.04269 0.819923,-0.0296 0.762129,0.121008 -0.03564,0.09288 -0.117303,0.571551 -0.181467,1.063705 -0.140962,1.08121 -0.539364,2.986592 -0.74787,3.576733 -0.209213,0.592141 -0.642698,1.35672 -0.968057,1.707452 -0.602096,0.64905 -1.876451,0.886762 -2.550537,0.475763 z m 1.253376,-1.024054 c 0.161312,-0.168373 0.265922,-0.333503 0.232469,-0.366957 -0.10925,-0.10925 -0.999445,0.348324 -0.999445,0.513731 0,0.268687 0.451767,0.182234 0.766976,-0.146774 z m 3.533824,-1.492565 c 0,-0.270246 0.08634,-0.840095 0.19186,-1.26633 0.105522,-0.426236 0.287067,-1.189693 0.403433,-1.696574 0.116366,-0.50688 0.311586,-1.347516 0.433823,-1.86808 0.237669,-1.012156 0.216958,-1.3114374 -0.123886,-1.7901077 -0.363199,-0.510067 -0.249995,-0.561924 1.407595,-0.644786 1.970737,-0.09852 2.844447,-0.01694 3.341498,0.311993 0.560872,0.371168 0.73049,0.7684423 0.666808,1.5617797 -0.04512,0.562067 -0.09943,0.704138 -0.379795,0.993398 -0.179932,0.185643 -0.506736,0.418514 -0.726229,0.517492 l -0.399079,0.179959 0.504368,0.233677 c 0.668653,0.309792 1.028404,0.862894 1.028404,1.58113 0,0.676759 -0.194217,1.118127 -0.713971,1.622531 -0.618292,0.600031 -1.225263,0.773299 -2.394935,0.683665 -1.399766,-0.107266 -1.790276,-0.109528 -2.548694,-0.01476 l -0.6912,0.08637 z m 3.44641,-0.737981 c 0.670128,-0.536935 0.885443,-1.742379 0.398244,-2.229577 -0.183081,-0.183082 -0.362593,-0.251345 -0.660959,-0.251345 -0.39298,0 -0.412376,0.0156 -0.477603,0.384 -0.03739,0.2112 -0.131642,0.6356 -0.20944,0.943114 -0.0778,0.307512 -0.141452,0.733752 -0.141452,0.9472 v 0.388086 l 0.4352,-0.0023 c 0.255878,-0.0013 0.526183,-0.07518 0.65601,-0.1792 z m 0.248831,-3.719187 c 0.368349,-0.394319 0.528108,-0.913899 0.485117,-1.5777344 -0.03284,-0.5070623 -0.03672,-0.5122983 -0.40282,-0.5429273 l -0.369663,-0.03093 -0.128337,0.9013277 c -0.07059,0.495729 -0.151199,1.051085 -0.179141,1.234126 -0.06752,0.442271 0.190242,0.449262 0.594844,0.01613 z m -15.4326,4.147246 c 0.038631,-0.38906 0.2480507,-1.444661 0.465377,-2.345781 0.217326,-0.90112 0.470785,-2.003553 0.563243,-2.449852 L 6.062869,9.9653746 5.791801,9.4113303 C 5.585534,8.9897373 5.549242,8.8287653 5.639988,8.7379813 c 0.0808,-0.08084 0.786263,-0.128864 2.187786,-0.148951 2.0023664,-0.0287 2.0815644,-0.02208 2.476042,0.206887 1.144498,0.664302 1.157435,2.5228537 0.02548,3.6609687 -0.5676626,0.570753 -0.972458,0.73251 -1.993753,0.796704 l -0.843957,0.05305 -0.107959,0.369618 c -0.05938,0.20329 -0.160699,0.798938 -0.22516,1.323661 -0.09234,0.751677 -0.157876,0.975811 -0.30896,1.05667 -0.105468,0.05644 -0.610674,0.129766 -1.122682,0.162937 l -0.9309213,0.06031 z m 3.525505,-3.420981 c 0.01798,0 0.168048,-0.298509 0.333476,-0.663352 0.217741,-0.480217 0.300778,-0.821317 0.300778,-1.235531 0,-0.7254094 -0.126073,-0.9683167 -0.502574,-0.9683167 -0.270473,0 -0.294464,0.03364 -0.346887,0.4864003 -0.03097,0.2675204 -0.152037,0.9401344 -0.269028,1.4946994 -0.116991,0.554565 -0.212711,1.023668 -0.212711,1.042451 0,0.01878 0.149456,-0.0087 0.332124,-0.0611 0.182668,-0.05239 0.346838,-0.09525 0.364822,-0.09525 z"
     id="path904"
     inkscape:connector-curvature="0" />
</svg>
