<?xml version="1.0" encoding="UTF-8" standalone="no"?>
<svg
   xmlns:sketch="http://www.bohemiancoding.com/sketch/ns"
   xmlns:dc="http://purl.org/dc/elements/1.1/"
   xmlns:cc="http://creativecommons.org/ns#"
   xmlns:rdf="http://www.w3.org/1999/02/22-rdf-syntax-ns#"
   xmlns:svg="http://www.w3.org/2000/svg"
   xmlns="http://www.w3.org/2000/svg"
   xmlns:sodipodi="http://sodipodi.sourceforge.net/DTD/sodipodi-0.dtd"
   xmlns:inkscape="http://www.inkscape.org/namespaces/inkscape"
   width="310"
   height="310"
   viewBox="0 0 310 310"
   version="1.1"
   id="svg87"
   sodipodi:docname="snyk.svg"
   inkscape:version="0.92.2 (unknown)">
  <metadata
     id="metadata91">
    <rdf:RDF>
      <cc:Work
         rdf:about="">
        <dc:format>image/svg+xml</dc:format>
        <dc:type
           rdf:resource="http://purl.org/dc/dcmitype/StillImage" />
        <dc:title>Group 2</dc:title>
      </cc:Work>
    </rdf:RDF>
  </metadata>
  <sodipodi:namedview
     pagecolor="#ffffff"
     bordercolor="#666666"
     borderopacity="1"
     objecttolerance="10"
     gridtolerance="10"
     guidetolerance="10"
     inkscape:pageopacity="0"
     inkscape:pageshadow="2"
     inkscape:window-width="1366"
     inkscape:window-height="710"
     id="namedview89"
     showgrid="false"
     fit-margin-top="5"
     fit-margin-left="5"
     fit-margin-bottom="5"
     fit-margin-right="5"
     inkscape:zoom="1.2537313"
     inkscape:cx="-32.488099"
     inkscape:cy="152.30952"
     inkscape:window-x="0"
     inkscape:window-y="30"
     inkscape:window-maximized="1"
     inkscape:current-layer="svg87" />
  <!-- Generator: Sketch 3.5.2 (25235) - http://www.bohemiancoding.com/sketch -->
  <title
     id="title2">Group 2</title>
  <desc
     id="desc4">Created with Sketch.</desc>
  <defs
     id="defs6" />
  <circle
     style="opacity:1;fill:#eeeeee;fill-opacity:1;fill-rule:nonzero;stroke-width:1.38122451"
     id="path901"
     cx="155"
     cy="155"
     r="150" />
  <g
     id="Page-1"
     sketch:type="MSPage"
     transform="matrix(1.9334556,0,0,1.9334556,93.715828,58.352212)"
     style="fill:#333333;fill-opacity:1;fill-rule:evenodd;stroke:none;stroke-width:1">
    <g
       id="Group-2"
       sketch:type="MSLayerGroup"
       style="fill:#333333;fill-opacity:1">
      <g
         id="wordmark"
         transform="translate(76.646794,19.004525)"
         sketch:type="MSShapeGroup"
         style="fill:#333333;fill-opacity:1" />
      <g
         id="symbol"
         sketch:type="MSShapeGroup"
         style="fill:#333333;fill-opacity:1">
        <g
           id="Group"
           style="fill:#333333;fill-opacity:1">
          <path
             d="m 24.693815,25.033365 0.670823,1.103364 c 1.788568,-0.499381 4.028442,-0.945366 6.31476,-0.945366 2.292452,0 4.543718,0.447736 6.341926,0.948429 l 0.673014,-1.104677 0.7142,-4.999495 c -2.399363,-0.140492 -4.954274,-0.224524 -7.66955,-0.224524 -2.747701,0 -5.333721,0.08622 -7.761565,0.229776 z"
             id="path16"
             inkscape:connector-curvature="0"
             style="fill:#333333;fill-opacity:1" />
          <path
             d="M 46.409019,63.433146 H 31.630324 V 38.53721 l -14.995584,24.168092 -2.331449,24.817156 17.096123,12.285375 0.23091,0.166314 17.483894,-12.540098 z"
             id="path18"
             inkscape:connector-curvature="0"
             style="fill:#333333;fill-opacity:1" />
          <g
             transform="translate(31.547512,19.695114)"
             id="g24"
             style="fill:#333333;fill-opacity:1">
            <path
               d="M 6.4738123,6.4451165 7.1468259,5.3404394 7.8610265,0.3409443 C 5.461663,0.20045249 2.9067527,0.11642 0.19147587,0.11642 c -0.0140211,0 -0.0284804,8.7534e-4 -0.0429397,8.7534e-4 V 5.497125 C 2.4370453,5.499315 4.6804239,5.9452983 6.4738123,6.4451165 Z"
               id="path20"
               inkscape:connector-curvature="0"
               style="fill:#333333;fill-opacity:1" />
            <path
               d="m 25.429485,2.7389338 c 0.55734,1.8338339 0.903486,3.474218 0.903486,4.7228882 v 0.6823263 l -3.608685,9.7788427 c 1.848158,16.928606 1.019598,19.058305 0.705438,19.864054 -0.18359,0.473558 -0.728222,1.873662 -4.227367,6.533526 l 2.23111,20.692561 10.412432,-7.466199 V 4.5395048 c -4.38e-4,0 -2.230672,-0.8473275 -6.416414,-1.800571 z"
               id="path22"
               inkscape:connector-curvature="0"
               style="fill:#333333;fill-opacity:1" />
          </g>
          <path
             d="M 49.183885,87.382842 46.483944,63.433146 H 31.704373 v 36.485417 z"
             id="path26"
             inkscape:connector-curvature="0"
             style="fill:#333333;fill-opacity:1" />
          <path
             d="M 14.303291,87.522458 31.630324,99.974147 V 38.53721 L 16.63474,62.705302 Z"
             id="path28"
             inkscape:connector-curvature="0"
             style="fill:#333333;fill-opacity:1" />
          <path
             d="m 39.087367,80.447974 c 0,4.106212 -3.834337,6.141811 -7.351885,6.141811 -3.517547,0 -7.429439,-2.035599 -7.429439,-6.141811"
             id="path30"
             inkscape:connector-curvature="0"
             style="fill:#333333;fill-opacity:1" />
          <path
             d="m 36.93162,78.120887 c 0,4.815674 -2.592154,6.106798 -5.235134,6.106798 -2.642542,0 -5.235572,-1.291124 -5.235572,-6.106798"
             id="path32"
             inkscape:connector-curvature="0"
             style="fill:#333333;fill-opacity:1" />
          <path
             d="m 31.696486,82.571545 c -2.82394,0 -4.197133,-2.072364 -4.197133,-6.332636 h 1.346465 c 0,4.987678 1.924836,4.987678 2.850668,4.987678 0.925394,0 2.850668,0 2.850668,-4.987678 h 1.346027 c 0,4.260272 -1.373193,6.332636 -4.196695,6.332636 z"
             id="path34"
             inkscape:connector-curvature="0"
             style="fill:#333333;fill-opacity:1" />
          <g
             transform="translate(9.201358,5.478275)"
             id="g40"
             style="fill:#333333;fill-opacity:1">
            <path
               d="m 44.91095,21.678661 c 0,-5.195133 -8.777657,-21.54120225 -8.777657,-21.54120225 l -2.96941,20.73020125 -2.664888,4.376692 -7.987216,0.32475 -0.03155,0.06434 v -0.06434 L 14.4917,25.244352 11.827688,20.86766 8.8582784,0.13745875 c 0,0 -8.7785333,16.34606925 -8.7785333,21.54120225 l 3.7085853,9.982359 c 0,0 -1.8713809,16.767544 -1.0169691,18.962893 0.8517828,2.195786 6.7686939,9.538562 6.7686939,9.538562 0,0 -0.017526,6.172886 1.6023508,10.610852 1.155866,3.169162 3.702451,4.454597 6.140811,4.454597 3.734874,0 5.196138,-3.427387 5.196138,-3.427387 0,0 1.496316,3.427387 5.231191,3.427387 2.437921,0 4.981877,-1.283246 6.140372,-4.454597 1.618125,-4.436215 1.601913,-10.610852 1.601913,-10.610852 0,0 5.915596,-7.342776 6.769132,-9.538562 C 43.075936,48.428126 41.204117,31.66102 41.204117,31.66102 Z"
               id="path36"
               inkscape:connector-curvature="0"
               style="fill:#333333;fill-opacity:1" />
            <path
               d="m 22.495128,25.602365 -0.01534,0.03108 v -0.0639 L 14.491262,25.244789 11.82725,20.868098 8.8569639,0.13789642 c 0,0 -8.77765696,16.34606858 -8.77765696,21.54120258 l 3.70770896,9.982358 c 0,0 -1.8709427,16.767545 -1.0178454,18.962893 0.8535354,2.195787 6.7682557,9.538563 6.7682557,9.538563 0,0 -0.015336,6.172886 1.6027888,10.610851 1.157618,3.169163 3.704204,4.454598 6.140373,4.454598 3.737065,0 5.198329,-3.427388 5.198329,-3.427388 0,0 0.0066,0.01226 0.01665,0.03458 V 25.602365 Z"
               id="path38"
               inkscape:connector-curvature="0"
               style="fill:#333333;fill-opacity:1" />
          </g>
          <path
             d="m 50.48522,38.121862 c -0.680462,-1.424176 0.286995,-4.793791 0.286995,-4.793791 -5.543161,-5.683134 -6.929499,-17.533903 -6.929499,-17.533903 -1.034933,3.734194 -3.284446,14.7442 -3.284446,14.7442 0,0 -4.137106,-1.541034 -8.843381,-1.548474 v 0 h -0.01665 -0.0184 v 0 c -0.258514,0.0013 -0.513085,0.0079 -0.767656,0.01619 v 46.458147 l 0.351404,0.514699 v -0.254286 h 0.217327 v 0.254286 l 0.0022,-0.254286 h 0.428959 v 0.254286 -0.254286 h 0.219518 v 0.254286 l 3.831708,-5.596476 0.832942,-15.71495 4.770685,5.442854 6.14563,1.795756 c 0,0 2.299464,-1.639508 2.299464,-1.633381 0.97622,-1.367278 1.30002,-2.531916 1.536188,-3.136337 C 52.401731,54.93755 50.48522,38.121862 50.48522,38.121862 Z"
             id="path42"
             inkscape:connector-curvature="0"
             style="fill:#333333;fill-opacity:1" />
          <path
             d="m 31.739426,28.989456 c -0.0061,0 -0.01095,-4.37e-4 -0.01621,-4.37e-4 v 4.37e-4 c -4.708028,0.0079 -8.845572,1.548036 -8.845572,1.548036 0,0 -2.250389,-11.009568 -3.284446,-14.744199 0,0 -1.385462,11.850768 -6.929499,17.533903 0,0 0.967457,3.370052 0.286995,4.79379 0,0 -1.916512,16.816564 -1.062976,19.011912 0.23573,0.604859 0.562159,1.769059 1.537065,3.136338 0,-0.0061 2.300777,1.633819 2.300777,1.633819 l 6.144316,-1.796195 4.769809,-5.441978 0.835133,15.71495 3.829517,5.596476 v -0.254286 h 0.219518 v 0.254286 -0.254286 H 31.73899 V 28.989456 h 4.38e-4 z"
             id="path44"
             inkscape:connector-curvature="0"
             style="fill:#333333;fill-opacity:1" />
          <g
             transform="translate(17.964555,48.58128)"
             id="g62"
             style="fill:#333333;fill-opacity:1">
            <g
               transform="translate(17.526395)"
               id="g52"
               style="fill:#333333;fill-opacity:1">
              <path
                 d="m 7.3571426,0.05908534 v 0 h -5.384985 v 0 H 0.17745475 v 0.07571677 c 0,2.50521849 2.16801515,4.53469049 4.71109505,4.53469049 2.5439563,0 4.7119714,-2.0299097 4.7119714,-4.53469049 V 0.05908534 Z"
                 id="path46"
                 inkscape:connector-curvature="0"
                 style="fill:#333333;fill-opacity:1" />
              <path
                 d="m 1.9721576,0.05908534 v 0.07571677 c 0,1.49026359 1.2005581,2.69779289 2.6929307,2.69779289 1.4923726,0 2.6924925,-1.2075293 2.6924925,-2.69779289 V 0.05908534 Z"
                 id="path48"
                 inkscape:connector-curvature="0"
                 style="fill:#333333;fill-opacity:1" />
              <path
                 d="M 5.4958394,0.05908534 H 4.233939 c -0.012269,0 -0.022784,0.0061274 -0.033738,0.0083157 C 4.356624,0.10022622 4.4433797,0.45473827 4.4096414,0.69064196 4.3592527,1.0512814 4.0516645,1.3016282 3.6993839,1.3077555 3.8019133,1.7791253 4.1866177,2.1581468 4.6975121,2.2299245 5.3503704,2.3222727 5.9537165,1.8749748 6.0461683,1.2232854 6.1127686,0.74359995 5.8818583,0.05908534 5.4958394,0.05908534 Z"
                 id="path50"
                 inkscape:connector-curvature="0"
                 style="fill:#333333;fill-opacity:1" />
            </g>
            <g
               id="g60"
               style="fill:#333333;fill-opacity:1">
              <path
                 d="m 7.5521238,0.05908534 v 0 H 2.1680151 v 0 H 0.37287406 v 0.07571677 c 0,2.50521849 2.16845324,4.53469049 4.71109504,4.53469049 2.5439563,0 4.7124096,-2.0299097 4.7124096,-4.53469049 V 0.05908534 Z"
                 id="path54"
                 inkscape:connector-curvature="0"
                 style="fill:#333333;fill-opacity:1" />
              <path
                 d="m 2.1680151,0.05908534 v 0.07571677 c 0,1.49026359 1.2014344,2.69779289 2.6916162,2.69779289 1.4928107,0 2.6929306,-1.2075293 2.6929306,-2.69779289 V 0.05908534 Z"
                 id="path56"
                 inkscape:connector-curvature="0"
                 style="fill:#333333;fill-opacity:1" />
              <path
                 d="M 5.6916969,0.05908534 H 4.428482 c -0.010954,0 -0.022784,0.0061274 -0.032862,0.0083157 0.1559849,0.0328252 0.2423024,0.38733725 0.2094404,0.62324094 C 4.5542338,1.0512814 4.2483982,1.3016282 3.8939269,1.3077555 3.9977708,1.7791253 4.3824752,2.1581468 4.8924933,2.2299245 5.5449133,2.3222727 6.149574,1.8749748 6.2407112,1.2232854 6.3081879,0.74359995 6.0777158,0.05908534 5.6916969,0.05908534 Z"
                 id="path58"
                 inkscape:connector-curvature="0"
                 style="fill:#333333;fill-opacity:1" />
            </g>
          </g>
          <path
             d="m 42.306528,46.501914 c 0.301454,-0.330003 2.860746,-3.230874 -0.562159,-3.230874 -3.092971,0 -5.318385,2.492963 -5.908148,3.230874 z"
             id="path64"
             inkscape:connector-curvature="0"
             style="fill:#333333;fill-opacity:1" />
          <path
             d="m 27.542292,46.501914 c -0.589325,-0.737911 -2.814739,-3.230874 -5.908586,-3.230874 -3.421152,0 -0.86186,2.900871 -0.562159,3.230874 z"
             id="path66"
             inkscape:connector-curvature="0"
             style="fill:#333333;fill-opacity:1" />
          <rect
             id="Rectangle-path"
             x="16.686005"
             y="47.383816"
             width="13.093532"
             height="1.2298504"
             style="fill:#333333;fill-opacity:1" />
          <path
             d="m 55.86188,27.199827 c 0,-5.487059 -8.048997,-20.6741794 -8.968695,-22.3880919 L 44.319872,0 40.633633,25.771712 38.932258,28.571045 c -1.642661,-0.551026 -4.438121,-1.320011 -7.25286,-1.320011 -2.811672,0 -5.588291,0.766359 -7.223942,1.31826 l -1.702251,-2.798019 -1.293887,-9.03393 c 0.0018,-0.01488 0.0039,-0.03501 0.0039,-0.04421 l -0.01008,-0.0013 L 19.06127,0 16.433625,4.8117351 C 15.512613,6.5256476 7.399206,21.712768 7.399206,27.199827 v 0.322125 l 3.715158,9.885196 c -0.594145,5.389896 -1.7281029,17.097547 -0.837324,19.385681 0.555149,1.430741 2.691616,4.385008 4.498588,6.752798 l -2.433978,22.660323 3.351046,2.361662 1.771043,-16.483934 c 0.25457,1.603182 0.630073,3.296086 1.187413,4.825303 0.768532,2.107377 2.126828,3.702681 3.865446,4.649359 0.103406,5.045013 4.796975,7.765565 9.218884,7.765565 4.385543,0 9.040115,-2.72274 9.141768,-7.769504 1.735113,-0.944927 3.091656,-2.540232 3.859312,-4.64542 0.580562,-1.59049 0.961323,-3.361737 1.21458,-5.020504 L 47.7327,88.431935 51.083746,85.98624 48.655903,63.477351 c 1.79295,-2.357286 3.889107,-5.268224 4.438997,-6.683209 0.89078,-2.287697 -0.289185,-13.997098 -0.882454,-19.386119 l 3.648996,-9.886509 V 27.199827 Z M 11.087198,26.907902 c 0.203306,-2.846163 3.167458,-9.665487 5.994903,-15.412521 l 0.753635,5.254656 c -0.287433,1.964697 -1.601036,9.669864 -5.124718,14.526679 z m 20.648284,58.828866 c -1.970405,0 -4.771999,-0.877527 -5.469111,-3.203738 0.07142,0.0022 0.141525,0.0083 0.21426,0.0083 0.380761,0 0.737861,-0.03501 1.082693,-0.08403 0.999443,1.390037 2.556225,1.816327 4.1336,1.816327 1.580005,0 3.139854,-0.422351 4.141049,-1.814576 0.342641,0.04683 0.695798,0.08228 1.073492,0.08228 0.07405,0 0.145469,-0.0061 0.219518,-0.0083 -0.690102,2.326211 -3.454452,3.203738 -5.395501,3.203737 z M 29.462309,81.91329 c 0.479347,-0.213145 0.912249,-0.466993 1.293886,-0.746226 0.348775,0.102415 0.683529,0.102415 0.940291,0.102415 0.255447,0 0.586696,0.0022 0.932842,-0.100227 0.382514,0.277045 0.816292,0.530893 1.295639,0.744038 -0.601155,0.449049 -1.341645,0.701584 -2.226728,0.701584 -0.889903,0 -1.633899,-0.250785 -2.23593,-0.701584 z M 49.749988,55.495578 c -0.520096,1.334453 -4.110378,6.102421 -6.495282,9.062816 l -0.39785,0.496317 0.0018,0.633307 c 0,0.05733 -0.0018,5.901531 -1.493687,9.99155 -1.07875,2.956018 -3.474608,3.275516 -4.453457,3.275516 -2.478232,0 -3.547781,-2.269315 -3.585462,-2.351159 L 33.184477,74.478166 H 30.17169 l -0.13583,2.113505 c -0.04294,0.09629 -1.086198,2.357723 -3.552162,2.357723 -0.98104,0 -3.376022,-0.315997 -4.455648,-3.272015 -1.487115,-4.075575 -1.494125,-9.932026 -1.494125,-9.991549 l 0.0022,-0.633308 -0.39785,-0.494128 c -2.383589,-2.958206 -5.97431,-7.726174 -6.48126,-9.02824 -0.405298,-1.40842 0.263772,-10.516316 1.115555,-18.148391 l 0.04688,-0.423664 -0.672138,-1.807136 c 2.309103,-2.418122 3.929418,-5.746159 5.047164,-8.914008 l 0.108664,0.771173 3.667398,6.019702 1.432783,-0.614488 c 0.03593,-0.01532 3.710338,-1.576922 7.278274,-1.576922 3.545151,0 7.280026,1.562917 7.315079,1.578236 l 1.430592,0.609235 3.663017,-6.017076 0.143716,-1.004889 c 1.105916,3.198925 2.724478,6.586484 5.044535,9.05844 l -0.703685,1.89642 0.04688,0.423226 c 0.851345,7.633826 1.520415,16.741722 1.128262,18.115566 z M 50.722265,31.173426 C 46.915093,25.826859 45.720669,17.135186 45.617264,16.340817 l 0.694483,-4.844998 c 2.827008,5.746596 5.792912,12.566358 5.996218,15.41252 z"
             id="path69"
             inkscape:connector-curvature="0"
             style="fill:#333333;fill-opacity:1" />
          <g
             transform="translate(26.289593,68.276394)"
             id="g79"
             style="fill:#333333;fill-opacity:1">
            <path
               d="M 9.6320688,0.04376692 H 1.2097594 c 0,0 -1.13264326,1.97213738 -1.13264326,2.61200968 0,1.9003597 5.18386956,4.9259668 5.18386956,4.9259668 0,0 5.4756843,-3.115767 5.4756843,-4.9259668 0,-0.8635213 -1.1046012,-2.61200968 -1.1046012,-2.61200968 z"
               id="path71"
               inkscape:connector-curvature="0"
               style="fill:#333333;fill-opacity:1" />
            <g
               transform="translate(2.190799,4.814361)"
               id="g77"
               style="fill:#333333;fill-opacity:1">
              <path
                 d="M 5.817887,1.0223952 C 5.3481796,0.1903861 4.7417663,0.03851489 4.4635347,0.68013792 4.1861795,1.3221986 4.3447934,2.5170355 4.8145008,3.347294 5.2842082,4.1797408 5.8910597,4.331612 6.1679767,3.6895513 6.4462082,3.0479282 6.2884707,1.8526537 5.817887,1.0223952 Z"
                 id="path73"
                 inkscape:connector-curvature="0"
                 style="fill:#333333;fill-opacity:1" />
              <path
                 d="M 0.61430016,1.0223952 C 0.14371644,1.8526537 -0.01270664,3.0479282 0.26421041,3.6895513 0.54156562,4.331612 1.1471026,4.1797408 1.6190008,3.347294 2.0887082,2.5174732 2.2460076,1.3221986 1.967776,0.68013792 1.690859,0.03851489 1.0848839,0.1903861 0.61430016,1.0223952 Z"
                 id="path75"
                 inkscape:connector-curvature="0"
                 style="fill:#333333;fill-opacity:1" />
            </g>
          </g>
          <path
             d="M 12.681662,64.082647 C 9.1273086,59.365887 8.5791706,57.957467 8.3933908,57.479532 7.6147806,55.476758 7.8364895,48.797926 9.0532596,37.622481 l -3.6735325,-9.77753 v -0.688016 c 0,-1.23729 0.3404502,-2.860605 0.8977896,-4.682622 C 2.1886086,23.410487 0,24.234618 0,24.234618 v 53.006991 l 10.457124,7.498586 z"
             id="path81"
             inkscape:connector-curvature="0"
             style="fill:#333333;fill-opacity:1" />
        </g>
      </g>
    </g>
  </g>
</svg>
