<svg xmlns="http://www.w3.org/2000/svg" xmlns:xlink="http://www.w3.org/1999/xlink" width="655.4" height="642.5" viewBox="0 0 655.4 642.5"><path fill="#685F5F" d="M620.8 325.3c18.2 4.3 30.5 18 27.6 30.6l-12.8 54.7c-3 12.6-20.1 19.4-38.3 15.1l-50.9-12c-18.2-4.3-30.5-18-27.6-30.6l12.8-54.7c3-12.6 20.1-19.4 38.3-15.1l50.9 12z"/><path fill="#111" d="M520.09 399.13l19.674-83.82 45.463 10.67-19.674 83.82z"/><path fill="#685F5F" d="M86.9 114.1c-12.2-14.1-14.1-32.5-4.3-41l42.5-36.7c9.8-8.5 27.7-3.9 39.9 10.3l34.2 39.6c12.2 14.1 14.1 32.5 4.3 41L161 164c-9.8 8.5-27.7 3.9-39.9-10.3l-34.2-39.6z"/><path fill="#111" d="M211.742 113.614l-65.186 56.25-30.51-35.358 65.187-56.25z"/><path fill="#685F5F" d="M392 593.4c1.6 18.6-7.7 34.6-20.6 35.7l-56 4.7c-12.9 1.1-24.7-13.1-26.2-31.7l-4.4-52.1c-1.6-18.6 7.7-34.6 20.6-35.7l56-4.7c12.9-1.1 24.7 13.1 26.2 31.7l4.4 52.1z"/><path fill="#111" d="M290.8 520.47l85.8-7.19 3.9 46.538-85.8 7.19z"/><path fill="#685F5F" d="M69.3 465.9C52 473.2 34 469.3 29 457.4L7.2 405.6c-5-12 4.9-27.5 22.1-34.8l48.2-20.3c17.2-7.2 35.3-3.4 40.3 8.6l21.7 51.8c5 12-4.9 27.5-22.1 34.8l-48.1 20.2z"/><path fill="#111" d="M107.336 347.078l33.346 79.376L97.63 444.54l-33.347-79.375z"/><path fill="#685F5F" d="M428.9 26.8c9.7-16 26.5-23.5 37.6-16.7l48 29.1c11.1 6.7 12.2 25.1 2.6 41.1L490 125c-9.7 16-26.5 23.5-37.6 16.7l-48-29.1c-11.1-6.7-12.2-25.1-2.6-41.1l27.1-44.7z"/><path fill="#111" d="M468.003 145.275l-73.727-44.67 24.2-39.942 73.727 44.67z"/><circle fill="#B7A58F" cx="318.3" cy="304.9" r="234"/><path fill="#2D2D2D" d="M366.8 238.4c3.6-.8 7.2 1.6 8 5.2l11.4 54.9c.4 1.7-.7 3.4-2.5 3.8l-70.2 14.6c-1.7.4-3.4-.7-3.8-2.5l-11.4-54.9c-.8-3.6 1.6-7.2 5.2-8l63.3-13.1z"/><path fill="#14003A" d="M381.7 295.3c.6-.1 1.1.2 1.3.8l.5 2.6c.1.6-.2 1.1-.8 1.3l-2.6.5c-.6.1-1.1-.2-1.3-.8l-.5-2.6c-.1-.6.2-1.1.8-1.3l2.6-.5zm-8.4 1.8c.6-.1 1.1.2 1.3.8l.5 2.6c.1.6-.2 1.1-.8 1.3l-2.6.5c-.6.1-1.1-.2-1.3-.8l-.5-2.6c-.1-.6.2-1.1.8-1.3l2.6-.5zm-8.3 1.7c.6-.1 1.1.2 1.3.8l.5 2.6c.1.6-.2 1.1-.8 1.3l-2.6.5c-.6.1-1.1-.2-1.3-.8l-.5-2.6c-.1-.6.3-1.1.8-1.3l2.6-.5zm-8.4 1.7c.6-.1 1.1.2 1.3.8l.5 2.6c.1.6-.2 1.1-.8 1.3l-2.6.5c-.6.1-1.1-.2-1.3-.8l-.5-2.6c-.1-.6.2-1.1.8-1.3l2.6-.5zm-8.3 1.8c.6-.1 1.1.2 1.3.8l.5 2.6c.1.6-.2 1.1-.8 1.3l-2.6.5c-.6.1-1.1-.2-1.3-.8l-.5-2.6c-.1-.6.3-1.1.8-1.3l2.6-.5zm-8.4 1.7c.6-.1 1.1.2 1.3.8l.5 2.6c.1.6-.3 1.1-.8 1.3l-2.6.5c-.6.1-1.1-.2-1.3-.8l-.5-2.6c-.1-.6.3-1.1.8-1.3l2.6-.5zm-8.3 1.7c.6-.1 1.1.2 1.3.8l.5 2.6c.1.6-.2 1.1-.8 1.3l-2.6.6c-.6.1-1.1-.2-1.3-.8l-.5-2.6c-.1-.6.2-1.1.8-1.3l2.6-.6zm-8.3 1.8c.6-.1 1.1.2 1.3.8l.5 2.6c.1.6-.2 1.1-.8 1.3l-2.6.5c-.6.1-1.1-.2-1.3-.8l-.5-2.6c-.1-.6.3-1.1.8-1.3l2.6-.5zm-8.4 1.7c.6-.1 1.1.2 1.3.8l.5 2.6c.1.6-.3 1.1-.8 1.3l-2.6.5c-.6.1-1.1-.2-1.3-.8l-.5-2.6c-.1-.6.2-1.1.8-1.3l2.6-.5z"/><path fill="#fff" d="M381.4 296.9c.4-.1.8.2.8.6l2.1 10c.1.4-.2.8-.5.8l-1.4.3c-.4.1-.8-.2-.8-.6l-2.1-10c-.1-.4.2-.8.6-.8l1.3-.3zm-8.4 1.7c.4-.1.8.2.8.6l2.1 10c.1.4-.2.8-.6.8l-1.4.3c-.4.1-.8-.2-.8-.6l-2.1-10c-.1-.4.2-.8.5-.8l1.5-.3zm-8.3 1.8c.4-.1.8.2.8.6l2.1 10c.1.4-.2.8-.6.8l-1.4.3c-.4.1-.8-.2-.8-.5l-2.1-10c-.1-.4.2-.8.6-.8l1.4-.4zm-8.4 1.7c.4-.1.8.2.8.6l2.1 10c.1.4-.2.8-.5.8l-1.4.3c-.4.1-.8-.2-.8-.6l-2.1-10c-.1-.4.2-.8.5-.8l1.4-.3zm-8.3 1.7c.4-.1.8.2.8.6l2.1 10c.1.4-.2.8-.5.8l-1.4.3c-.4.1-.8-.2-.8-.6l-2.1-10c-.1-.4.2-.8.6-.8l1.3-.3zm-8.3 1.8c.4-.1.8.2.8.6l2.1 10c.1.4-.2.8-.6.8l-1.4.3c-.4.1-.8-.2-.8-.6l-2.1-10c-.1-.4.2-.8.5-.8l1.5-.3zm-8.4 1.7c.4-.1.8.2.8.6l2.1 10c.1.4-.2.8-.5.8l-1.4.3c-.4.1-.8-.2-.8-.6l-2.1-10c-.1-.4.2-.8.6-.8l1.3-.3zM323 309c.4-.1.8.2.8.6l2.1 10c.1.4-.2.8-.6.8l-1.4.3c-.4.1-.8-.2-.8-.6l-2.1-10c-.1-.4.2-.8.6-.8l1.4-.3zm-8.4 1.8c.4-.1.8.2.8.6l2.1 10c.1.4-.2.8-.6.8l-1.4.3c-.4.1-.8-.2-.8-.6l-2.1-10c-.1-.4.2-.8.6-.8l1.4-.3z"/><path fill="#474647" d="M315.533 304.902l-9.477-45.523 22.615-4.71 9.48 45.524z"/><path fill="#A0A0A0" d="M477 385.6l5-17.3 6.1.4-4 17.9zm14.9-63.7l5-17.3 6.1.4-4.1 17.9z"/><path fill="#8E8080" d="M634.9 315.2c-3 2.2-4 6.7-2.2 10.2 3.9 7.5 12.2 28 5.8 56.6-7 28.5-23.5 43.2-30.3 48.2-3.1 2.3-4.3 6.8-2.6 10.1.9 1.8 2.6 3.2 4.6 3.7 1.8.5 3.6.1 5.1-.9 8.1-5.6 27.7-21.9 36.6-54.7h.1l.7-3 .3-1 .4-2h-.1c6.6-33.3-3.7-56.6-8.5-65.2-.9-1.6-2.4-2.7-4.2-3.1-2-.6-4-.1-5.7 1.1z"/><path fill="#29374C" d="M592 307.9s-23.9 12.8-30.5 40.9c-3.1 13-2.5 10.7-3.1 13.1 0 0 0 .1-.1.3-.1.2-.1.6-.3 1.2 0 .1 0 .2-.1.3-.6 2.5-.5 2.1-3.6 15.2-6.3 26.8 9.6 48.1 9.6 48.1s13.1 16 29.1 7c19-10.6 31.4-39 31.4-39l7.1-29.7s4.2-28.9-11.3-53.2c-9.9-15.9-28.2-4.2-28.2-4.2z"/><path fill="#EAEAEA" d="M602.6 340.5l-41.9 11.9c-1.2 5.1-1.9 8-2.2 9.5 0 0 0 .1-.1.3-.1.2-.1.6-.3 1.2 0 .1 0 .2-.1.3-.4 1.7-1.2 5-2.6 11.1l32.1 29.7 15.1-64z"/><path fill="#918F8D" d="M526.1 306.7c1.1.3 1.8 1.4 1.5 2.5-.3 1.1-1.4 1.8-2.5 1.6-1.1-.3-1.8-1.4-1.5-2.5.2-1.1 1.4-1.8 2.5-1.6z"/><path fill="#546674" d="M513.8 290.8c-4.2-1-8.4 1.5-9.7 5.5l-22.8 97v.1c-1 4.4 1.7 8.9 6.1 9.9.2 0 .4.1.6.1l34.4 8.1L548.9 299l-35.1-8.2c.1 0 0 0 0 0z"/><path fill="#D0D4D7" d="M512.1 290.4c-4.2-1-8.4 1.5-9.7 5.5l-22.8 97v.1c-1 4.4 1.7 8.9 6.1 9.9.2.1.4.1.6.1l34.4 8.1 26.4-112.6-35-8.1z"/><path fill="#546674" d="M510.328 401.45l1.713-7.3 7.304 1.712-1.713 7.302zm16.052-68.348l1.715-7.3 7.3 1.714-1.714 7.302zm2.663-11.482l1.713-7.302 7.302 1.713-1.713 7.304zm2.66-11.008l1.716-7.3 7.3 1.714-1.716 7.3zM516.04 330.64l1.714-7.302 7.3 1.714-1.712 7.3zm2.68-11.446l1.713-7.3 7.3 1.713-1.713 7.3zm2.57-11.092L523 300.8l7.303 1.712-1.712 7.302zm-16.56 19.882l1.714-7.302 7.302 1.713-1.713 7.302zm2.668-11.392l1.714-7.302 7.3 1.714-1.713 7.3zm2.678-11.035l1.715-7.302 7.303 1.715-1.715 7.3zm-10.086 93.565l1.714-7.302 7.302 1.715-1.715 7.3zm2.585-11.445l1.714-7.302 7.3 1.714-1.715 7.3zm2.698-11.06l1.713-7.3 7.302 1.712-1.713 7.3zm-16.58 19.803l1.715-7.3 7.3 1.715-1.713 7.3zm2.69-11.41l1.715-7.302 7.3 1.714-1.712 7.3zm2.582-11.002l1.714-7.302 7.3 1.713-1.714 7.3zm13.75-8.21l1.713-7.3 7.3 1.712-1.713 7.3zm2.73-11.412l1.714-7.302 7.3 1.715-1.715 7.3zm2.615-11.06l1.714-7.3 7.302 1.714-1.714 7.3zm-16.53 19.79l1.715-7.3 7.3 1.712-1.713 7.302zm2.748-11.416l1.713-7.303 7.304 1.713-1.713 7.302zm2.49-11.07l1.712-7.3 7.302 1.713-1.714 7.3zm11.38 48.817l11.974-51.01 7.3 1.712-11.973 51.01z"/><path fill="#fff" d="M509.21 401.273l1.714-7.3 7.302 1.713-1.715 7.302zm16.127-68.5l1.715-7.303 7.3 1.715-1.713 7.3zm2.675-11.373l1.713-7.303 7.302 1.713-1.713 7.302zm2.552-11.022l1.715-7.3 7.3 1.714-1.716 7.3zm-15.632 19.998l1.715-7.3 7.3 1.714-1.714 7.302zm2.663-11.464l1.713-7.302 7.302 1.713-1.713 7.302zm2.662-11.044l1.716-7.302 7.3 1.716-1.715 7.302zm-16.515 19.844l1.715-7.302 7.302 1.716-1.718 7.3zm2.632-11.335l1.714-7.3 7.3 1.713-1.712 7.3zm2.606-11.094l1.715-7.302 7.302 1.716-1.714 7.302zm-10.096 93.57l1.713-7.302 7.302 1.715-1.715 7.302zm2.708-11.413l1.713-7.3 7.302 1.712-1.713 7.302zm2.535-11.057l1.716-7.3 7.3 1.714-1.714 7.3zM487.68 396.17l1.712-7.3 7.302 1.712-1.713 7.302zm2.59-11.412l1.713-7.3 7.3 1.713-1.713 7.303zm2.69-11.063l1.714-7.302 7.302 1.713-1.714 7.302zm13.77-8.258l1.713-7.302 7.302 1.713-1.713 7.302zm2.662-11.317l1.716-7.3 7.3 1.715-1.714 7.3zm2.544-11.03l1.714-7.302 7.3 1.713-1.713 7.304zm-16.526 19.812l1.714-7.3 7.3 1.713-1.713 7.3zm2.713-11.45l1.716-7.3 7.3 1.714-1.716 7.3zm2.614-11.06l1.714-7.3 7.304 1.714-1.715 7.3zm11.285 48.814l11.973-51.01 7.3 1.712-11.972 51.012z"/><path fill="#FFE1CC" d="M600.8 341.7c17.7 4.2 28.9 20.9 25.1 37.4-3.9 16.5-21.4 26.5-39.1 22.3-17.7-4.2-27.2-20.1-23.5-35.9 4.6-19.7 19.8-27.9 37.5-23.8zm-2.6 63.1c2 .5 3.1 2.5 2.6 4.7-.5 2.1-2.5 3.5-4.4 3l-8.8-4c-2-.5-3-2.6-2.6-4.7 0 0 2-1.6 4-1.1l9.2 2.1zm14.1-60c2 .5 3.9-.9 4.4-3 .5-2.1-.7-4.2-2.6-4.7l-9.6-.3c-2-.5-3.9.9-4.4 3.1 0 0 1.1 2.3 3.1 2.8l9.1 2.1z"/><path fill="#7C5129" d="M580.4 346.4l-3.8 5.3c-3.4 5.1-2.8 6.3-2.2 9.6l.1.6c.2 1.4-.2 1.9-1.7 1.5-.7-.2-2.5-.6-3.4-.8-1.1-.3-1.3.2-1.3 1l1.6 18.8c1 13.4 13.5 23.1 23.8 25.6l5.8 1.4c17.1 4 31.7-7.8 35.6-24.6l1.4-6c3.6-15.1-2.5-33.5-19.6-37.5l-4.9-1.2c-9.1-2-24.4-3.2-31.4 6.3z"/><path fill="#D0D4D7" d="M442.9 401.5c-3-.7-4.8-4.1-4-7.5l27.5-117.3c.8-3.4 3.9-5.6 6.9-4.9l23.4 12.2c2.5 1.3 3.9 4.2 3.2 7l-24.8 105.8c-.6 2.7-3.2 4.7-6 4.6l-26.2.1z"/><path fill="#1E1E1E" d="M494.2 289.8l-24.6 104.9-23.3-1 26.6-113.3z"/><path fill="#FFE1CC" d="M535.7 332.1c-.5-.9-.7-2.2.2-4l3.9-6.9c2.3-4.3 1.1-4.8.8-5-.4-.3-1.2-.5-2.3-.1l-7.5 4.1c-2.4 1.8-6.2 7.9-8.1 10.5-3.1 4.1-5.2 3.3-5.6.9-.3-2 5.2-11.1 5.1-11.5-1.2-12.4 5.4-16.5 5.4-16.5l14.4-9.3 6.7 5.5.8 4.6c1.4 1.6 1.2 9 .6 10.9-.1 1.6-.7 3.3-1.6 4.7l-8.7 11.4c-1 1.7-3.4 2.1-4.1.7z"/><path fill="#C3DEE5" d="M545 289.4l13.6 21.4-3 2.1c-2.3 2-5.1 2-8.2-2.8l-7.4-11.9c-1.9-2.8-.3-4.5.6-5.3l4.4-3.5z"/><path fill="#29374C" d="M626.6 324.5l-19.3-53.8c-2.3-6.9-12.3-17.5-22.9-9.9l-38.8 26.4c-1.5 1.2-3.7 3.6-2.2 6.1l11.1 17.1c2.1 3.2 5.5 1.6 6.8.6l16.6-13.9c2.7-2.2 4.6-1.5 4.6 2.4l-1.9 17.9 46 7.1z"/><path fill="#13253A" d="M625.5 321.5l-.9-2.6c-3.1-1.3-6.3-2.4-9.5-3.4-4.3-1.3-8.7-2.4-13.2-2.9-2.2-.3-4.5-.4-6.8-.3-2.3.1-4.5.6-6.7 1-2.2.5-4.4 1.1-6.5 1.9-.4.2-.7.3-1.1.5v.2c.4-.2.8-.3 1.2-.5 2.1-.8 4.3-1.3 6.5-1.7 2.2-.4 4.4-.7 6.6-.7 2.2 0 4.4.2 6.6.5 4.4.7 8.7 1.9 12.9 3.4 3.7 1.4 7.4 2.9 10.9 4.6z"/><path fill="#FFE1CC" d="M529.2 394.2c1.2 4.9.9 10-3.4 12.8l-8.3 4.6s-5.1 1.7-8.7-4.9c-4.4-8-6.1-10.9-6.1-10.9s-5.3-8.8 1.6-18.3c.3-.4 3.9-4.6 4.2-4.9 5.9-4.4 4.1 5.1 7.6 13.3l2.5 6.7c.9 1.9 2.5 1.1 2.4-1.2l-.2-8.4c-.2-2.2.1-3.7 1.5-4.5 1.8-1 3.4.2 3.9 1.7l3 14z"/><path fill="#C3DEE5" d="M516.1 420.8l19.6-12.3-1.8-3.2c-1.2-2.8-3.6-4.1-8.6-1.1l-9.8 5.9c-2.8 2.1-2.4 4.8-2 5.9l2.6 4.8z"/><path fill="#29374C" d="M601.4 428l-40 38c-5.1 5.2-18.8 10.2-24.9-1.4l-21.3-42.4c-.8-1.8-2.2-4.4.3-5.9l16.3-9.3c3.3-1.9 5.6 1 6.4 2.5l8.7 19.8c1.4 3.2 3.5 3.3 5.2-.1l6.3-16.8 43 15.6z"/><path fill="#13253A" d="M568.9 424.9c-2-1-3.8-2.3-5.6-3.6-1.8-1.3-3.5-2.8-5-4.4-.4-.4-.7-.8-1.1-1.2l-.1.2c.3.4.6.8 1 1.2 1.5 1.7 3.2 3.2 4.9 4.6 1.8 1.4 3.5 2.8 5.5 3.9s4.1 2 6.2 2.8c4.3 1.5 8.7 2.5 13.1 3.3 2.9.5 5.8.8 8.7 1.1l1.9-1.8c-3.5-.1-6.9-.3-10.4-.8-4.4-.6-8.8-1.4-13-2.7-2.1-.8-4.1-1.6-6.1-2.6z"/><path fill="#8E8080" d="M69.6 114c3.7 0 7.2-3.1 7.7-6.9 1.3-8.3 6.6-29.8 28.6-49.2 22.4-18.9 44.4-21.1 52.8-21.1 3.9 0 7.4-2.9 8-6.7.3-2-.2-4.1-1.5-5.6-1.2-1.4-2.8-2.2-4.7-2.3-9.9-.3-35.3 1.4-61.8 22.7l-.1-.1-2.3 2-.8.7-1.6 1.4c-24.9 23-30.3 48-31.5 57.8-.2 1.8.3 3.6 1.6 5 1.5 1.5 3.5 2.3 5.6 2.3z"/><path fill="#8D8F91" d="M99.9 145.1s24.8 5.4 48.7-15.1c10.1-8.7 8.3-7.2 10.2-8.8l.2-.2c.2-.1.5-.4 1-.8l.2-.2c1.9-1.7 1.7-1.4 11.8-10.2 23.8-20.5 20.5-44.6 20.5-44.6s2.3-17.5-15.6-21.6c-23-5.2-60.6 19.2-60.6 19.2l-6.9 6s-30.3 26.1-28.7 57.6c.8 18.8 19.2 18.7 19.2 18.7z"/><path fill="#CEE8EF" d="M111.1 114.8l40.3 12.8c4-3.4 6.2-5.4 7.4-6.4l.2-.2c.2-.1.5-.4 1-.8l.2-.2c1.3-1.1 3.9-3.3 8.6-7.4l-7.7-40.9-50 43.1z"/><path fill="#FFE1CC" d="M112.3 113c-11.9-13.8-11.1-33.9 1.7-45 12.8-11.1 32.8-8.9 44.7 4.9 11.9 13.8 10.2 32.3-2.1 42.9-15.4 13.3-32.4 11-44.3-2.8zm39.1-49.5c-1.3-1.5-1-3.9.6-5.3s4-1.3 5.4.2l4.7 8.4c1.3 1.5 1 3.9-.7 5.3 0 0-2.6.1-3.9-1.4l-6.1-7.2zm-46.6 40.2c-1.3-1.5-3.7-1.6-5.4-.2-1.6 1.4-1.9 3.8-.6 5.3l7.6 5.9c1.3 1.5 3.7 1.5 5.3.1 0 0 .5-2.5-.9-4.1l-6-7z"/><path fill="#EDC620" d="M123.1 122.2s8.9.7 15.1-4.6l6.4-4.9c1.6-1.1 2.5-1.5 3.6-.3.5.5 1.2 1.4 1.8 2.1.7.9 1.2.6 1.6 0l9.8-16.2c7.1-11.4 2.7-26.6-4.3-34.7l-3.9-4.5C141.7 45.8 123 46.8 109.9 58l-4.6 4c-11.8 10.2-17.7 28.6-6.2 41.9l3.3 3.8c6.2 7.2 14.3 13.6 20.7 14.5z"/><path fill="#fff" d="M203.523 122.784l45.273 52.467-41.034 35.41-45.274-52.466z"/><path fill="#8E8E8E" d="M206.2 197.9l16.9-14.6 12.2-10.5c.6-.5.6-1.5.1-2.1-.6-.6-1.5-.7-2.1-.2L221.1 181l-16.9 14.6c-.6.5-.7 1.5-.1 2.1.5.6 1.5.7 2.1.2zm3.2-13.2l12.1-10.5 8.7-7.5c.4-.4.3-1.2-.2-1.8-.6-.6-1.4-.9-1.8-.5l-8.7 7.5-12.1 10.5c-.4.4-.3 1.2.2 1.9.5.6 1.4.8 1.8.4zm-11.3-.7l15.5-13.4 11.2-9.6c.6-.5.6-1.4 0-2-.5-.6-1.5-.8-2-.3l-11.2 9.6-15.5 13.4c-.6.5-.6 1.4 0 2 .6.6 1.5.8 2 .3zm-7.6-3.9l16.9-14.6 12.2-10.5c.6-.5.6-1.5.1-2.1-.6-.6-1.5-.7-2.1-.2l-12.2 10.5-16.9 14.6c-.6.5-.7 1.5-.1 2.1.5.6 1.5.7 2.1.2zm3.8-13.7l11.9-10.3 8.6-7.4c.4-.4.3-1.2-.2-1.8-.6-.6-1.3-.9-1.8-.5l-8.6 7.4-11.9 10.2c-.4.4-.3 1.2.2 1.8.5.7 1.3.9 1.8.6zm-11.7-.4l15.5-13.4 11.2-9.6c.6-.5.6-1.4 0-2-.6-.6-1.5-.8-2-.3l-11.2 9.6-15.5 13.4c-.6.5-.6 1.4 0 2 .5.6 1.5.8 2 .3z"/><path fill="#FFE1CC" d="M173 183.5c-.6-.4-.8-2.2.4-2.8 2.4-1.1-2.3-5.4-3.9-5.7-2.2-.4-10.9 8.3-10.9 8.3 0 .2-.1.3-.1.5l-1.4 13.1s-.3.8 4.5 1.6c4.1.7 11.9 1.3 11.9 1.3s7.9 1.1 10.8-8.9c0 0 7.5-1.5 5.9-8.5-.7-3.7-12.3 4.6-17.2 1.1z"/><path fill="#DAEDF2" d="M154.3 197.7l.3-19.6h4.9c1.5-.1 2.6-.1 2.6 3.1l-.2 14.6c.1 1.6-1.7 2.2-2.9 2.1l-4.7-.2z"/><path fill="#8D8F91" d="M80.6 126.4l5.3 54.1c.3 3.3 2.4 18.6 17.4 17.7l51.3 1.4c2-.1 3.5.2 3.5-2.5l.1-17.6c.1-1.7 0-2.5-2.6-2.7l-35.5.1c-3.2-.2-5.7-3-5.5-6.2l.1-26.2-34.1-18.1z"/><path fill="#231F20" d="M186 178.3l2.2 4.1s2-1.1 4.2-1.6c0 0 .4-2.3 3.1-3.8l-.4-.7-4.1 2.2c.1.3-.1.7-.4.9-.4.2-.9.1-1.1-.3-.2-.4-.1-.9.3-1.1.3-.2.7-.1 1 .2l4.1-2.2-.4-.7c-2.7 1.4-4.9.4-4.9.4-1.6 1.6-3.6 2.6-3.6 2.6z"/><path fill="#103754" d="M185 178.5l-1.8 1.3c-1 .8-2.1 1.4-3.3 1.9l-7.5 3.7 2.2 4.2 7.3-4.1c1.1-.7 2.3-1.2 3.5-1.6l2.1-.7-2.5-4.7z"/><path fill="#A52B00" d="M185.4 178.3c.5-.3 1.1-.1 1.4.4l1.5 2.9c.3.5.1 1.1-.4 1.4l-.5.2-2.5-4.7.5-.2zm-27.3 14.2c-1.4.7-1.9 2.5-1.2 3.8.7 1.4 2.5 1.9 3.8 1.2l13.7-7.2c.2-.1.3-.4.2-.6l-2.3-4.3c-.1-.2-.4-.3-.6-.2l-13.6 7.3z"/><path fill="#103754" d="M168 185.1c.3-.2.7 0 .9.3.2.3 0 .7-.3.9l-8.7 4.6c-.5.2-.7.8-.4 1.3l2.5 4.7-1.1.6-2.5-4.7c-.6-1.1-.2-2.5.9-3.1l8.7-4.6z"/><path fill="#FFE1CC" d="M175.8 180.8c-3.7-.6-3.1 2-3.1 2-3.4-.1-10.9-3-10.9-2.5 0 0 4-8 12.5-5.8l9 2c1.9.1 1.1 3.1-.1 4.1-2.3 2-5.4.6-7.4.2zm35.4-42.6c1.9-4.7 5.2-8.6 10.3-8.4l9.4 1.2s5.1 1.6 4.2 9.1c-1.2 9.1-1.5 12.4-1.5 12.4s-.9 10.3-12 13.9c-.4.1-5.9 1.5-6.3 1.5-7.4.1-.3-6.5 1.7-15.2l1.9-6.9c.4-2.1-1.3-2.4-2.6-.4l-4.8 6.9c-1.1 2-2.2 2.9-3.8 2.8-2.1-.2-2.6-2.1-2.1-3.7l5.6-13.2z"/><path fill="#C3DEE5" d="M237.1 124.9l-21.3-2.8-.8 5.7c-.3 1.8-.5 3 3 3.5l16.6 2.2c1.8.4 1.8-1.8 2-3.2l.5-5.4z"/><path fill="#8D8F91" d="M176.9 43.7l51.8 12.9c5.2 1.8 17.4 4.4 15 19.8l-4.8 50.7c-.4 1.9-1.4 3.4-4 2.9l-18.4-2.5c-1.7-.2-2.5-.3-2.3-3l4.7-36.6c.3-3.2-.6-5.6-3.9-5.9l-25.2-2.3-12.9-36z"/><path fill="#8E8080" d="M406 603.7c-3.1-2.2-7.6-1.7-10.4 1.1-5.9 6-22.9 20.2-52 23-29.2 2.2-48.3-9.1-55.2-14-3.2-2.3-7.8-2-10.4.7-1.5 1.5-2.2 3.5-2.1 5.5.1 1.8 1 3.5 2.4 4.6 7.8 6 29.4 19.6 63.3 18v.1l3.1-.3 1-.1 2.1-.2v-.1c33.7-4 52.7-21 59.4-28.2 1.2-1.3 1.8-3.1 1.6-4.9-.1-2.2-1.1-4-2.8-5.2z"/><path fill="#1B8DCC" d="M399.7 560.6s-16.9-19-48.3-16.3c-13.3 1.1-10.9.9-13.5 1.1h-.3c-.2 0-.6.1-1.3.1h-.3c-2.5.2-2.2.2-15.5 1.3-31.3 2.6-42.8 24-42.8 24s-9.6 14.4 1.6 29.1c14.5 19 58.7 17.7 58.7 17.7l9.1-.8s40.9-2 55.6-29.6c9-16.5-3-26.6-3-26.6z"/><path fill="#CEE8EF" d="M372.1 578.7l-24.4-34.1c-5.3.4-8.2.7-9.8.8h-.3c-.2 0-.6.1-1.3.1h-.3c-1.7.1-5.1.4-11.3.9L307 581.2l65.1-2.5z"/><path fill="#FFE1CC" d="M369.9 579.5c1.5 18.1-10.9 34-27.8 35.4-16.9 1.4-31.8-12.1-33.3-30.3-1.5-18.1 10.7-32.1 26.9-33.5 20.2-1.7 32.7 10.2 34.2 28.4zm-60.7 17c.2 2-1.5 3.8-3.6 4-2.2.2-4.1-1.3-4.2-3.3l1.1-9.6c-.2-2 1.5-3.7 3.7-3.9 0 0 2.1 1.5 2.3 3.5l.7 9.3zm61.4-5.1c.2 2 2.1 3.5 4.2 3.3 2.2-.2 3.8-2 3.6-4l-2.7-9.3c-.2-2-2.1-3.4-4.3-3.2 0 0-1.9 1.8-1.7 3.8l.9 9.4z"/><path fill="#333130" d="M361.6 563.6l-8.7-4c-5.7-2.8-6.8-.7-9.8.9l-.5.3c-1.3.6-1.9.4-2-1.1-.1-.7-.2-2.5-.3-3.5-.1-1.1-.6-1.2-1.3-.9l-17.4 7.3c-12.5 5.1-17.8 19.9-16.9 30.6l.5 5.9c1.5 17.5 17.2 27.7 34.4 26.3l6.1-.5c15.5-1.3 31.1-12.8 29.6-30.3l-.4-5c-1.3-21.6-13.3-26-13.3-26z"/><path fill="#FFE1CC" d="M303.2 495.2c-1.2-.3-1.1-1.8-.1-3l3-4.2c3.4-4.2 8.5-7.1 7.5-10.2-.1-.3-.3-1.6-1.8-2.5-6.9-4-14.6 6.2-14.6 6.2l-9.8 12s-2.2 2-.5 3.9c3.1 3.5 8.5 7.3 8.5 7.3 1.4 1.3 5.1 1.5 6.8 1 1.3-.1 1.7-10.3 1-10.5z"/><path fill="#fff" d="M354.7 505.6c.2 3-1.9 5.6-4.9 5.8l-36.9 3.1c-3 .2-5.6-1.9-5.8-4.9l-5.2-61.9c-.2-3 1.9-5.6 4.9-5.8l36.9-3.1c3-.2 5.6 1.9 5.8 4.9l5.2 61.9z"/><path fill="#39D1EA" d="M307.596 448.823l36.472-3.055 4.733 56.5-36.47 3.057z"/><circle fill="#546674" cx="325.5" cy="443.5" r="1.3"/><path fill="#F36564" d="M333.2 508.6c.1 1.2-.8 2.3-2 2.4-1.2.1-2.3-.8-2.4-2-.1-1.2.8-2.3 2-2.4 1.2-.1 2.3.8 2.4 2z"/><path fill="#FFE1CC" d="M373.8 496.8l-6.6-2.5c-5.3 2.7-13.1.9-16.7-1.4l-9.9-4.5c-1-.6-1.3-1.8-.8-2.8.5-1 1.7-1.5 2.8-1.2l7.6 1.8c1.5.5 3.3.8 3.7-.7.4-1.5.2-2.3-2.7-5-1.1-1.1-5.2-4.8-5.2-4.8l-8.3-6.7c-.7-.8-.8-1.9-.2-2.8.6-.8 1.1-.7 2.6-.6l11.3 6.2c1.6.1 6.3-5 9.8-5 3.5 0 7.7 3.2 10.2 5.6l13.1 11.7-10.7 12.7z"/><path fill="#C3DEE5" d="M386.5 484.9l-11.9 15.9-4.3-3.1c-1.4-.9-2.3-1.6-.5-4.2l8.9-11.8c.9-1.4 2.8-.7 3.8.1l4 3.1z"/><path fill="#1B8DCC" d="M402.9 587.2l28.9-47c1.7-2.9 9-16.5-3.7-24.6l-40.7-31.2c-1.7-1.1-2.7-2.2-4.3 0l-9.9 13.5c-1.1 1.4-1.5 2 .5 3.7l29.4 22.3c2.5 2 2.9 5.7.8 8.3L388.3 551l14.6 36.2z"/><path fill="#FFE1CC" d="M312.4 489.8l-3 2.2c-3.5 2.1-5.8 3.4-6.2 3.2l-8.8 8.7c.5.4.7.7.7.7 1.4 1.3 3.2 1.7 5 1.7 1.5-.3 2.9-.5 4.5-1.8l10.2-10.8c1.2-1.5 2.2-2.6 1.1-4.1-.4-.5-1.2-1.4-3.5.2z"/><path fill="#C3DEE5" d="M280.2 499.8l14.1 11.5 3.1-3.7c1-1.1 1.7-1.9-.5-3.8l-10.5-8.6c-1.1-1-2.6 0-3.4 1l-2.8 3.6z"/><path fill="#1B8DCC" d="M279.4 599.9l-38.3-42.1c-10.1-12.7-2.5-20.1-.1-22.3l37.4-35.6c2.4-2.3 3-3 5.4-.8l10.7 9.3c2.4 2.2 2.3 3 .1 5.4l-24.1 27.6c-2.1 2.4-1.9 6.2.6 8.3l16.1 13.8-7.8 36.4z"/><path fill="#8E8080" d="M63.8 482.4c1.1-3.6-.8-7.8-4.2-9.5-7.5-3.8-26.3-15.5-37.9-42.4-11.1-27.1-6.3-48.7-3.8-56.8 1.2-3.7-.5-8-3.9-9.7-1.8-.9-4-1-5.8-.3-1.7.7-3 2-3.6 3.7-3.3 9.3-9.6 34.1 2.5 65.8H7l1.2 2.8.4 1 .8 1.9c14.2 30.8 36.3 43.7 45.2 47.8 1.7.8 3.5.8 5.2 0 1.9-.7 3.4-2.3 4-4.3z"/><path fill="#383736" d="M102.8 463.1s12.8-22 .6-51c-5.2-12.3-4.3-10.1-5.2-12.5 0 0 0-.1-.1-.2-.1-.2-.2-.6-.5-1.2 0-.1-.1-.2-.1-.2-1-2.3-.9-2-6-14.4-12.2-29-36-33.3-36-33.3s-15.5-5.9-26.4 8.9c-11.5 15.7.6 62.9.6 62.9l3.6 8.5s13.5 40.3 44.3 45.8c18.3 3.3 25.2-13.3 25.2-13.3z"/><path fill="#CEE8EF" d="M77.3 443.1l24.6-34.3c-2-4.9-3.2-7.6-3.8-9 0 0 0-.1-.1-.2-.1-.2-.2-.6-.5-1.2 0-.1-.1-.2-.1-.2-.7-1.6-2-4.7-4.4-10.5l-41.3-5.3 25.6 60.7z"/><path fill="#AF1212" d="M76.4 401.5l-5.8 7.8-.2.1h.1l-.1.1.2-.1 9.6 1.4 3.4-4.1c.6-.7 1.2-1.1 2.1-1.3l13.6-2.7c-.8-1.9-1.3-3.1-1.7-4 0 0 0-.1-.1-.2-.1-.2-.2-.6-.5-1.2 0-.1-.1-.2-.1-.2-.3-.8-.8-1.9-1.5-3.6L84 401.2c-.6.4-.8.9-2.4.6l-5.2-.3z"/><path fill="#FFE1CC" d="M76 441.5c-16.8 7-35.7.1-42.2-15.5-6.6-15.6 1.7-34 18.5-41s33.8.3 40.1 15.3c7.8 18.6.4 34.1-16.4 41.2zm-35-52.6c-1.9.8-4-.2-4.9-2.2-.8-2 0-4.3 1.8-5l9.4-1.9c1.9-.8 4 .3 4.8 2.3 0 0-.7 2.5-2.6 3.3l-8.5 3.5zm23.9 56.8c-1.9.8-2.7 3-1.8 5 .8 2 3 3 4.9 2.2l8-5.4c1.9-.8 2.6-3 1.7-5 0 0-2.3-1.2-4.1-.4l-8.7 3.6z"/><path fill="#633A11" d="M86.9 434.1l-3.2-3.2-.4-6.4c.5-4.3 6.3-10.3 2-20.5-2.2-5.2-12.3-10.5-13-10.9-10.5-5.8-6.8-11.5-6.8-11.5-2-2.1-12.8-2.1-22.6 2l-5.5 2.3c-16.2 6.8-21.1 24.9-14.4 40.8l2.4 5.7c6 14.3 21.8 25.6 37.9 18.8l4.6-2c8.7-3.7 18.1-11 19-15.1z"/><path fill="#FFE1CC" d="M152.7 406.5c-.4 5 .8 10 5.5 12.1l9 3.2s5.3.9 7.8-6.3c3-8.7 4.2-11.8 4.2-11.8s3.7-9.6-4.6-17.8c-.3-.3-4.6-3.9-5-4.1-6.6-3.3-3.1 5.7-5.2 14.4l-1.4 7c-.6 2-2.2 1.5-2.5-.8l-1.2-8.3c-.1-2.3-.7-3.6-2.2-4.2-1.9-.7-3.3.7-3.5 2.3l-.9 14.3z"/><path fill="#C3DEE5" d="M169.9 429.9l-20.4-7 1.8-5.4c.5-1.7.8-2.9 4.3-1.8l15.8 5.4c1.8.5.8 2.4.3 3.8l-1.8 5z"/><path fill="#383736" d="M78.9 476.6l53.2 10.8c5.5.7 17.6 3.8 22.2-11.1l18.3-47.5c.5-1.9.3-3.6-2.3-4.4l-17.6-5.9c-1.6-.6-2.3-.8-3.4 1.6l-12.1 34.8c-1.2 3-3 4.7-6.1 3.5l-23.6-9.1-28.6 27.3z"/><circle fill="#918F8D" cx="154.1" cy="424.2" r="2.1"/><path fill="#FFE1CC" d="M130.6 355.2c-3.8-3.3-6.6-7.6-4.8-12.4l4-8.6s3.1-4.4 9.9-1.1c8.3 3.9 11.3 5.2 11.3 5.2s9.5 4.1 9.5 15.7c0 .5-.4 6.1-.6 6.4-1.4 3.5-6.3-1.8-13.9-6.3l-6-3.9c-1.9-1-2.7.5-1.2 2.4l5.1 6.7c1.5 1.7 2.1 3 1.5 4.5-.8 1.9-2.8 1.8-4.1.9l-10.7-9.5z"/><path fill="#C3DEE5" d="M125.9 326.5l-9.3 19.4 5.1 2.5c1.6.9 2.7 1.4 4.3-1.8l7.2-15.1c.9-1.6-1.2-2.3-2.5-2.9l-4.8-2.1z"/><path fill="#383736" d="M29 359.3l29.3-46c3.3-4.4 9.6-15.2 23.5-8.1l46.8 20.2c1.7 1 2.8 2.3 1.5 4.7l-8.1 16.7c-.7 1.6-1.1 2.2-3.5 1.3l-33.4-15.7c-3-1.3-5.5-1.1-6.8 1.8l-10 23.3-39.3 1.8z"/><circle fill="#918F8D" cx="118.9" cy="341.8" r="2.1"/><path fill="#fff" d="M456 162.9c3.3 2 4.4 6.3 2.4 9.7L433.2 214c-2 3.3-6.3 4.4-9.7 2.4l-69.6-42.2c-3.3-2-4.4-6.3-2.4-9.7l25.1-41.5c2-3.3 6.3-4.4 9.7-2.4l69.7 42.3z"/><path fill="#39D1EA" d="M359.557 169.132l24.874-41.054 63.55 38.502-24.873 41.054z"/><path fill="#546674" d="M368.6 144.5c.8.5 1.1 1.5.6 2.3-.5.8-1.5 1.1-2.3.6-.8-.5-1.1-1.5-.6-2.3.4-.8 1.5-1 2.3-.6z"/><path fill="#F36564" d="M442.6 188c1.4.8 1.8 2.6 1 3.9-.8 1.4-2.6 1.8-3.9 1-1.4-.8-1.8-2.6-1-3.9.8-1.4 2.5-1.8 3.9-1z"/><path fill="#8E8080" d="M423.7 10.2c1.2 3.6 5.2 5.8 9 5.2 8.3-1.4 30.4-2.9 55.6 12 24.9 15.4 33.8 35.7 36.4 43.7 1.2 3.7 5.1 6.2 8.8 5.6 2-.3 3.8-1.5 4.9-3.2 1-1.6 1.2-3.4.7-5.1-2.8-9.5-12.3-33.2-40.7-51.7v-.1l-2.7-1.6-.9-.6-1.8-1c-29.6-16.6-55-14-64.7-12.1-1.8.4-3.3 1.4-4.2 3-.9 1.9-1.1 4-.4 5.9z"/><path fill="#DD2424" d="M403.4 48.8s2.5 25.3 29.4 41.6c11.4 6.9 9.4 5.7 11.6 7 0 0 .1 0 .2.1.2.1.5.3 1.1.7.1 0 .1.1.2.1 2.2 1.3 1.9 1.1 13.3 8.1 26.9 16.3 48.7 5.8 48.7 5.8s16.2-6.1 15.8-24.5c-.6-23.9-37.1-48.8-37.1-48.8l-7.8-4.8s-34.2-22.4-62.4-8.8c-16.8 8.2-13 23.5-13 23.5z"/><path fill="#fff" d="M436.4 50.4l-.3 41.9c4.5 2.7 7 4.3 8.4 5.1 0 0 .1 0 .2.1.2.1.5.3 1.1.7.1 0 .1.1.2.1 1.5.9 4.4 2.6 9.7 5.9l34.8-17.8-54.1-36z"/><path fill="#FFE1CC" d="M438.6 51c9.4-15.6 28.8-21.1 43.3-12.3 14.5 8.8 18.6 28.5 9.1 44.1-9.4 15.6-27.6 19.6-41.4 11.2-17.3-10.5-20.4-27.4-11-43zm59.2 21.9c1-1.7 3.4-2.2 5.2-1.1 1.9 1.1 2.5 3.4 1.5 5.1L498 84c-1 1.7-3.4 2.1-5.2 1 0 0-.9-2.4.2-4.1l4.8-8zM445.1 41c1-1.7.4-4-1.5-5.1-1.9-1.1-4.2-.6-5.2 1.1l-3.3 9.1c-1 1.7-.3 4 1.6 5.1 0 0 2.6-.4 3.6-2.1l4.8-8.1z"/><path fill="#633A11" d="M436 68.7l4.7 8.3c3 5.6 5.1 4.6 8.5 5l.6.1c1.4.3 1.7.7.9 2.1-.4.6-1.3 2.2-1.8 3-.6.9-.3 1.3.5 1.5l18.4 4.3c13.1 3.2 26.1-5.7 31.7-14.8l3.1-5.1c9.1-15 2.4-32.5-12.3-41.5l-5.2-3.2c-13.3-8.1-32.7-7.9-41.8 7.1l-2.6 4.3c-11.8 18.3-4.7 28.9-4.7 28.9z"/><path fill="#FFE1CC" d="M443.1 158.4c.8.9-.2 2.1-1.6 2.5l-4.9 1.7c-5.2 1.4-11.1.7-12.1 3.9-.1.3-.7 1.5 0 3.1 3.2 7.3 15.5 3.6 15.5 3.6l15-3.9s3-.3 2.7-2.9c-.5-4.6-2.6-10.9-2.6-10.9-.3-1.9-3.3-4.2-4.9-4.8-1.2-.9-7.6 7.1-7.1 7.7zm-56.2-42.8l3.9 5.9c5.9 1 11.2 7 12.7 10.9l5.4 9.4c.4 1 0 2.3-1 2.8s-2.3.3-2.9-.7l-5.1-5.9c-.9-1.3-2.2-2.6-3.4-1.6-1.2 1-1.5 1.7-.8 5.6.3 1.5 1.3 6.9 1.3 6.9l2.7 10.3c.1 1-.5 2-1.5 2.4-1 .3-1.3 0-2.4-1.1l-5.5-11.6c-1.2-1.1-8 .4-10.9-1.7-2.8-2-4.3-7.1-4.9-10.5l-3.7-17.2 16.1-3.9z"/><path fill="#C3DEE5" d="M369.6 117.7l19-5.9 1.6 5c.6 1.6 1 2.6-2.1 3.6l-14.1 4.4c-1.5.6-2.7-1.1-3-2.4l-1.4-4.7z"/><path fill="#DD2424" d="M416.5 25.4l-51 21c-3.1 1.3-16.9 8-11.5 22l14.5 49.2c.7 1.8.9 3.4 3.4 2.5l16-5.1c1.7-.5 2.4-.7 1.8-3.3L379 76.4c-.8-3.1 1-6.4 4.2-7.2l23.7-6.1 9.6-37.7z"/><path fill="#FFE1CC" d="M432.4 157.4h3.7c4.1.3 6.7.6 6.9 1.1l12.2-1.9c-.1-.6-.2-1-.2-1-.3-1.9-1.5-3.3-3.1-4.3-1.4-.7-2.6-1.3-4.7-1.1l-14.6 2.7c-1.9.5-3.3.9-3.3 2.7.2.5.4 1.7 3.1 1.8z"/><path fill="#C3DEE5" d="M464.4 168.2l-4.6-17.6-4.7 1.2c-1.5.3-2.5.5-1.8 3.4l3.5 13.1c.3 1.5 2.2 1.5 3.3 1.2l4.3-1.3z"/><path fill="#DD2424" d="M523.8 87.7l6.3 56.6c.7 16.2-9.8 17.7-13 18.1l-51.1 6.8c-3.3.4-4.2.7-4.8-2.6l-3.1-13.8c-.7-3.2-.1-3.7 3.1-4.4l35.7-8.2c3.2-.7 5.1-3.9 4.4-7.1l-4.9-20.6 27.4-24.8z"/><path fill="#2D2D2D" d="M237 444c-1.2-.1-2.1-1.2-1.9-2.5l3.9-32.3c.1-1.2 1.2-2.1 2.5-1.9l28.4 3.4c1.2.1 2.1 1.2 1.9 2.5l-3.9 32.3c-.1 1.2-1.2 2.1-2.5 1.9L237 444z"/><path fill="#C63E3E" d="M255.8 419.2c-.7-.1-1.3-.8-1.2-1.5l.5-4.1c.1-.7.8-1.3 1.5-1.2.7.1.9.1.9.1l-.8 6.8s-.2 0-.9-.1z"/><path fill="#137C6D" d="M254.8 427.1c-.7-.1-1.3-.8-1.2-1.5l.5-4.1c.1-.7.8-1.3 1.5-1.2.7.1.9.1.9.1l-.8 6.8s-.1 0-.9-.1z"/><path fill="#B8BCBF" d="M253.9 435c-.7-.1-1.3-.8-1.2-1.5l.5-4.1c.1-.7.8-1.3 1.5-1.2.7.1.9.1.9.1l-.8 6.8s-.2 0-.9-.1z"/><path fill="#BFA537" d="M252.9 442.9c-.7-.1-1.3-.8-1.2-1.5l.5-4.1c.1-.7.8-1.3 1.5-1.2.7.1.9.1.9.1l-.8 6.8s-.1 0-.9-.1zm-1.5-24.2c-.7-.1-1.3-.8-1.2-1.5l.5-4.1c.1-.7.8-1.3 1.5-1.2.7.1.9.1.9.1l-.8 6.8s-.2 0-.9-.1zm-.9 7.9c-.7-.1-1.3-.8-1.2-1.5l.5-4.1c.1-.7.8-1.3 1.5-1.2.7.1.9.1.9.1l-.8 6.8c-.1 0-.2 0-.9-.1zm-1 7.9c-.7-.1-1.3-.8-1.2-1.5l.5-4.1c.1-.7.8-1.3 1.5-1.2.7.1.9.1.9.1l-.8 6.8s-.1 0-.9-.1zm-.9 7.9c-.7-.1-1.3-.8-1.2-1.5l.5-4.1c.1-.7.8-1.3 1.5-1.2.7.1.9.1.9.1l-.8 6.8c-.1 0-.2 0-.9-.1zm-1.6-24.3c-.7-.1-1.3-.8-1.2-1.5l.5-4.1c.1-.7.8-1.3 1.5-1.2.7.1.9.1.9.1l-.8 6.8s-.1 0-.9-.1zm-.9 8c-.7-.1-1.3-.8-1.2-1.5l.5-4.1c.1-.7.8-1.3 1.5-1.2.7.1.9.1.9.1l-.8 6.8c-.1 0-.2-.1-.9-.1zm-1 7.9c-.7-.1-1.3-.8-1.2-1.5l.5-4.1c.1-.7.8-1.3 1.5-1.2.7.1.9.1.9.1l-.8 6.8s-.1 0-.9-.1zm-.9 7.9c-.7-.1-1.3-.8-1.2-1.5l.5-4.1c.1-.7.8-1.3 1.5-1.2.7.1.9.1.9.1l-.8 6.8s-.2 0-.9-.1zm-1.6-24.3c-.7-.1-1.3-.8-1.2-1.5l.5-4.1c.1-.7.8-1.3 1.5-1.2.7.1.9.1.9.1l-.8 6.8s-.1 0-.9-.1zm-.9 7.9c-.7-.1-1.3-.8-1.2-1.5l.5-4.1c.1-.7.8-1.3 1.5-1.2.7.1.9.1.9.1l-.8 6.8s-.2 0-.9-.1zm-1 7.9c-.7-.1-1.3-.8-1.2-1.5l.5-4.1c.1-.7.8-1.3 1.5-1.2.7.1.9.1.9.1l-.8 6.8s-.1 0-.9-.1zm-.9 7.9c-.7-.1-1.3-.8-1.2-1.5l.5-4.1c.1-.7.8-1.3 1.5-1.2.7.1.9.1.9.1l-.8 6.8c0 .1-.2 0-.9-.1z"/><path fill="#D0D4D7" d="M269.027 413.537l-3.692 30.88-8.14-.974 3.69-30.88z"/><path fill="#F36564" d="M256.7 419.3c-.7-.1-1.3-.8-1.2-1.5l.5-4.1c.1-.7.8-1.3 1.5-1.2.7.1 1.3.8 1.2 1.5l-.5 4.1c-.1.8-.8 1.3-1.5 1.2z"/><path fill="#14A797" d="M255.7 427.2c-.7-.1-1.3-.8-1.2-1.5l.5-4.1c.1-.7.8-1.3 1.5-1.2.7.1 1.3.8 1.2 1.5l-.5 4.1c-.1.8-.7 1.3-1.5 1.2z"/><path fill="#D0D4D7" d="M254.8 435.1c-.7-.1-1.3-.8-1.2-1.5l.5-4.1c.1-.7.8-1.3 1.5-1.2.7.1 1.3.8 1.2 1.5l-.5 4.1c-.1.8-.8 1.3-1.5 1.2z"/><path fill="#F3D541" d="M253.8 443c-.7-.1-1.3-.8-1.2-1.5l.5-4.1c.1-.7.8-1.3 1.5-1.2.7.1 1.3.8 1.2 1.5l-.5 4.1c-.1.8-.7 1.3-1.5 1.2zm-1.5-24.2c-.7-.1-1.3-.8-1.2-1.5l.5-4.1c.1-.7.8-1.3 1.5-1.2.7.1 1.3.8 1.2 1.5l-.5 4.1c-.1.7-.8 1.3-1.5 1.2zm-1 7.9c-.7-.1-1.3-.8-1.2-1.5l.5-4.1c.1-.7.8-1.3 1.5-1.2.7.1 1.3.8 1.2 1.5l-.5 4.1c-.1.7-.7 1.3-1.5 1.2zm-.9 7.9c-.7-.1-1.3-.8-1.2-1.5l.5-4.1c.1-.7.8-1.3 1.5-1.2.7.1 1.3.8 1.2 1.5l-.5 4.1c-.1.8-.8 1.3-1.5 1.2zm-1 7.9c-.7-.1-1.3-.8-1.2-1.5l.5-4.1c.1-.7.8-1.3 1.5-1.2.7.1 1.3.8 1.2 1.5l-.5 4.1c0 .8-.7 1.3-1.5 1.2zm-1.5-24.3c-.7-.1-1.3-.8-1.2-1.5l.5-4.1c.1-.7.8-1.3 1.5-1.2.7.1 1.3.8 1.2 1.5l-.5 4.1c-.1.8-.8 1.3-1.5 1.2zm-1 8c-.7-.1-1.3-.8-1.2-1.5l.5-4.1c.1-.7.8-1.3 1.5-1.2.7.1 1.3.8 1.2 1.5l-.5 4.1c0 .7-.7 1.2-1.5 1.2zm-.9 7.9c-.7-.1-1.3-.8-1.2-1.5l.5-4.1c.1-.7.8-1.3 1.5-1.2.7.1 1.3.8 1.2 1.5l-.5 4.1c-.1.7-.8 1.3-1.5 1.2zm-.9 7.9c-.7-.1-1.3-.8-1.2-1.5l.5-4.1c.1-.7.8-1.3 1.5-1.2.7.1 1.3.8 1.2 1.5l-.5 4.1c-.1.7-.8 1.3-1.5 1.2zm-1.6-24.3c-.7-.1-1.3-.8-1.2-1.5l.5-4.1c.1-.7.8-1.3 1.5-1.2.7.1 1.3.8 1.2 1.5l-.5 4.1c-.1.8-.8 1.3-1.5 1.2zm-.9 7.9c-.7-.1-1.3-.8-1.2-1.5l.5-4.1c.1-.7.8-1.3 1.5-1.2.7.1 1.3.8 1.2 1.5l-.5 4.1c-.1.8-.8 1.3-1.5 1.2zm-1 7.9c-.7-.1-1.3-.8-1.2-1.5l.5-4.1c.1-.7.8-1.3 1.5-1.2.7.1 1.3.8 1.2 1.5l-.5 4.1c-.1.8-.7 1.3-1.5 1.2zm-.9 8c-.7-.1-1.3-.8-1.2-1.5l.5-4.1c.1-.7.8-1.3 1.5-1.2.7.1 1.3.8 1.2 1.5l-.5 4.1c-.1.7-.8 1.2-1.5 1.2z"/><path fill="#454E6B" d="M257.1 369.9c.2-.1.4 0 .5.2.1.2 0 .4-.2.5l-1.2.6-.4-.7 1.3-.6z"/><path fill="#DADDE5" d="M205.697 399.433l-2.28-4.45L252.195 370l2.28 4.45z"/><path fill="#BDC0C6" d="M255.4 370.2l.8 1.6-1.7 2.7-2.3-4.5z"/><path fill="#6F82D1" d="M256.3 370.2l.4.9-.5.7-.8-1.6z"/><path fill="#7492E8" d="M247.6 371.7c.4-.2.8 0 1 .3l2.2 4.3c.2.4 0 .8-.3 1l-17.3 8.9c-.4.2-.8 0-1-.3l-2.2-4.3c-.2-.4 0-.8.3-1l17.3-8.9z"/><path fill="#6F82D1" d="M203.4 395l2.3 4.5-1.2.6c-.4.2-.8 0-1-.3l-1.6-3.2c-.2-.4 0-.8.3-1l1.2-.6zm2.7-1.4l1-3 1.7-.9-1 3.1zm13.1-9.9c.3-.1.6 0 .7.2.1.3 0 .6-.2.7l-12.8 6.5.4-1.5 11.9-5.9z"/><circle fill="#FC6B6B" cx="263.4" cy="339" r="2.8"/><path fill="#F9991F" d="M261.58 342.21l5.255-2.21 21.843 51.996-5.254 2.208z"/><path fill="#E58013" d="M264.243 341.033l2.58-1.084 21.845 51.993-2.582 1.084z"/><path fill="#FFC892" d="M287.2 395.6l1.5-3.6-2.6 1.1-2.6 1.1 3.7 1.5z"/><path fill="#0E3C55" d="M287.6 394.5l-1.6.7 1.2.5v-.1l.5-1.1zm-26.848-54.428l5.255-2.207.852 2.028-5.257 2.208z"/><path fill="#E2E2E2" d="M310.3 138c1.5-1 3.5-.6 4.5.9l6.9 10.1-5.4 3.7-6.9-10.1c-1-1.5-.6-3.5.9-4.6z"/><circle fill="#F9F9F9" cx="323.1" cy="158.2" r="14.2"/><circle fill="#6D470B" cx="323.1" cy="158.2" r="10.9"/><path fill="#875710" d="M317.6 152.3l5.9 13.5c-2.9.7-6.1-.4-7.9-3.1-2.3-3.4-1.4-8.1 2-10.4z"/><path fill="#E2E2E2" d="M440.4 268.1c1.7.4 2.8 2.2 2.4 3.9l-2.9 11.8-6.3-1.5 2.9-11.8c.3-1.7 2.1-2.8 3.9-2.4z"/><circle fill="#F9F9F9" cx="434" cy="291.1" r="14.2"/><circle fill="#6D470B" cx="434" cy="291.1" r="10.9"/><path fill="#875710" d="M434.7 283.1l-6 13.4c-2.5-1.7-3.7-4.8-3-7.9.9-4 5-6.5 9-5.5z"/><path fill="#E2E2E2" d="M417.5 438.1c-.1 1.8-1.6 3.2-3.4 3.1l-12.2-.6.3-6.5 12.2.6c1.9 0 3.2 1.6 3.1 3.4z"/><circle fill="#F9F9F9" cx="393.8" cy="436.1" r="14.2"/><circle fill="#6D470B" cx="393.8" cy="436.1" r="10.9"/><path fill="#875710" d="M401.8 435.3l-14.3-3.4c1.2-2.7 4-4.6 7.2-4.4 4.1.1 7.3 3.7 7.1 7.8z"/><path fill="#956F52" d="M136.8 304.3c-2.1-2.8-1.5-6.9 1.4-8.9l46-33.8c2.8-2.1 6.9-1.5 8.9 1.4l26 35.3c1.4 1.9 1 4.6-.9 6l-49.4 36.3c-1.7 1.3-4.4 1.3-6-.9l-26-35.4zm31.9 43.4c-1.6-2.2-.8-4.8.9-6l49.4-36.3c1.9-1.4 4.6-1 6 .9l26 35.3c2.1 2.8 1.5 6.9-1.4 8.9l-46 33.8c-2.8 2.1-6.9 1.5-8.9-1.4l-26-35.2z"/><path fill="#F5F5F5" d="M139.8 297.6c-1.6 1.2-1.9 3.4-.8 5l26 35.3c.8 1 1.9.5 2.1.3l49.4-36.3c.7-.5.8-1.4.3-2.1l-26-35.3c-1.2-1.6-3.4-1.9-5-.8l-46 33.9z"/><path fill="#F77770" d="M143.1 288.5c-.8.6-1 1.7-.4 2.5l2.1 2.9 9.3-6.8-2.1-2.9c-.6-.8-1.7-1-2.5-.4l-6.4 4.7z"/><path fill="#00AEAD" d="M172 267.4c-.8.6-1 1.7-.4 2.5l2.1 2.9 9.3-6.8-2.1-2.9c-.6-.8-1.7-1-2.5-.4l-6.4 4.7z"/><path fill="#F5F5F5" d="M201.9 382.1c-1.6 1.2-3.8.8-5-.8l-26-35.3c-.8-1 .1-1.9.3-2.1l49.4-36.3c.7-.5 1.6-.3 2.1.3l26 35.3c1.2 1.6.8 3.8-.8 5l-46 33.9z"/><path fill="#73698B" d="M228.7 369c-.8.6-1.9.4-2.5-.4l-2.1-2.9 9.3-6.8 2.1 2.9c.6.8.4 1.9-.4 2.5l-6.4 4.7z"/><circle fill="#956F52" cx="175.5" cy="346" r="2.2"/><circle fill="#956F52" cx="183.1" cy="340.4" r="2.2"/><circle fill="#956F52" cx="190.8" cy="334.8" r="2.2"/><circle fill="#956F52" cx="198.4" cy="329.2" r="2.2"/><circle fill="#956F52" cx="206.1" cy="323.6" r="2.2"/><circle fill="#956F52" cx="213.7" cy="317.9" r="2.2"/><circle fill="#956F52" cx="221.3" cy="312.3" r="2.2"/><circle fill="#956F52" cx="165.6" cy="332.6" r="2.2"/><circle fill="#956F52" cx="173.3" cy="327" r="2.2"/><circle fill="#956F52" cx="180.9" cy="321.4" r="2.2"/><circle fill="#956F52" cx="188.5" cy="315.7" r="2.2"/><circle fill="#956F52" cx="196.2" cy="310.1" r="2.2"/><circle fill="#956F52" cx="203.8" cy="304.5" r="2.2"/><circle fill="#956F52" cx="211.5" cy="298.9" r="2.2"/><path fill="#B9B7B9" d="M203.2 303.6c-.5.4-.7 1.2-.3 1.7l9.9 13.4c.4.5 1.2.7 1.7.3.5-.4.7-1.2.3-1.7l-9.9-13.4c-.4-.6-1.2-.7-1.7-.3zm7.6-5.6c-.5.4-.7 1.2-.3 1.7l9.9 13.4c.4.5 1.2.7 1.7.3.5-.4.7-1.2.3-1.7l-9.9-13.4c-.4-.6-1.1-.7-1.7-.3zm-15.3 11.2c-.5.4-.7 1.2-.3 1.7l9.9 13.4c.4.5 1.2.7 1.7.3.5-.4.7-1.2.3-1.7l-9.9-13.4c-.4-.5-1.1-.7-1.7-.3zm-7.6 5.6c-.5.4-.7 1.2-.3 1.7l9.9 13.4c.4.5 1.2.7 1.7.3.5-.4.7-1.2.3-1.7l-9.9-13.4c-.4-.5-1.2-.7-1.7-.3zm-7.6 5.7c-.5.4-.7 1.2-.3 1.7l9.9 13.4c.4.5 1.2.7 1.7.3.5-.4.7-1.2.3-1.7l-9.9-13.4c-.4-.6-1.2-.7-1.7-.3zm-7.7 5.6c-.5.4-.7 1.2-.3 1.7l9.9 13.4c.4.5 1.2.7 1.7.3.5-.4.7-1.2.3-1.7l-9.9-13.4c-.4-.6-1.1-.7-1.7-.3zm-7.6 5.6c-.5.4-.7 1.2-.3 1.7l9.9 13.4c.4.5 1.2.7 1.7.3.5-.4.7-1.2.3-1.7l-9.9-13.4c-.4-.6-1.2-.7-1.7-.3z"/><path d="M160.3 329.2l-1.1.8.4.6.4.6 1.2-.8-.5-.6zm7.4-5.5l-2.7 2 .4.6.5.6 2.7-2-.4-.6zm7.4-5.4l-2.7 2 .4.6.5.6 2.7-2-.4-.6zm7.5-5.5l-2.8 2 .5.6.4.6 2.7-2-.4-.6zm7.4-5.4l-2.8 2 .5.6.4.6 2.7-2-.4-.6zm7.4-5.5l-2.7 2 .4.6.4.6 2.7-2-.4-.6zm7.4-5.4l-2.7 2 .4.6.4.6 2.8-2-.5-.6zm6.1-4.5l-1.4 1 .4.6.5.6 1.4-1.1-.4-.5zm16.4 22.3l-.4-.6-1.5 1 .5.6.4.6 1.5-1.1zm-51 36.6l-1.2.8.4.6.5.6 1.1-.8-.4-.6zm7.4-5.5l-2.7 2 .4.6.4.6 2.7-2-.4-.6zm7.4-5.4l-2.7 2 .4.6.4.6 2.8-2-.5-.6zm7.4-5.5l-2.7 2 .4.6.5.6 2.7-2-.5-.6zm7.4-5.4l-2.7 2 .4.6.5.6 2.7-2-.4-.6zm7.4-5.5l-2.7 2 .4.6.5.6 2.7-2-.4-.6zm7.5-5.4l-2.8 2 .5.6.4.6 2.7-2.1-.4-.5z" fill="#C9C9C9"/><path fill="#C1C1C1" d="M327.595 369l23.847 9.58-7.158 17.816-23.847-9.58z"/><path fill="#AFB713" d="M327.147 371.468l7.423 2.982-5.964 14.847-7.424-2.983z"/><path fill="#B0C114" d="M327.34 371.065l7.424 2.982-5.963 14.846-7.42-2.98z"/><path fill="#B8D318" d="M327.545 370.604l7.423 2.982-5.965 14.846-7.423-2.982z"/><path fill="#BDE21E" d="M327.742 370.178l7.423 2.982-5.963 14.846-7.423-2.98z"/><path fill="#C0F225" d="M327.953 369.704l7.423 2.982-5.964 14.846-7.424-2.982z"/><path fill="#C9FF45" d="M328.1 369.198l7.424 2.98-5.963 14.85-7.422-2.982z"/><path fill="#C0F225" d="M328.064 369.205l7.424 2.982-.97 2.413-7.423-2.982z"/><path fill="#D86FCE" d="M334.957 374.574l7.423 2.983-5.965 14.846-7.423-2.982z"/><path fill="#E073D0" d="M335.155 374.17l7.423 2.982-5.963 14.846-7.423-2.982z"/><path fill="#EA81D7" d="M335.322 373.8l7.423 2.984-5.965 14.846-7.423-2.982z"/><path fill="#F28CDA" d="M335.553 373.304l7.423 2.982-5.965 14.847-7.42-2.983z"/><path fill="#F99BDF" d="M335.67 372.773l7.423 2.982-5.965 14.847-7.423-2.983z"/><path fill="#FFA9E2" d="M335.828 372.384l7.423 2.982-5.962 14.847-7.424-2.983z"/><path fill="#F99BDF" d="M335.878 372.42l7.424 2.98-.97 2.413-7.423-2.98z"/><path fill="#5BAAA2" d="M342.75 377.687l7.422 2.982-5.965 14.845-7.423-2.983z"/><path fill="#66BCB5" d="M342.948 377.302l7.423 2.983-5.963 14.846-7.423-2.98z"/><path fill="#6FCEC9" d="M343.152 376.9l7.424 2.983-5.965 14.846-7.42-2.984z"/><path fill="#77DBD8" d="M343.252 376.38l7.423 2.982-5.965 14.846-7.423-2.982z"/><path fill="#7FEAEA" d="M343.42 375.98l7.424 2.982-5.965 14.847-7.425-2.985z"/><path fill="#8FFCFF" d="M343.637 375.49l7.423 2.983-5.965 14.846-7.423-2.984z"/><path fill="#7FEAEA" d="M343.646 375.51l7.423 2.984-.97 2.412-7.425-2.982z"/><path fill="#546674" d="M439 322.5l2.2 1.8 4-4.7c-.5-1.7-.2-3.6 1-5l-.2-.2-3 3.5c.1.2.1.5 0 .6-.2.2-.5.3-.8.1-.2-.2-.3-.5-.1-.8.2-.2.4-.2.6-.1l3-3.5-.2-.1c-1.2 1.4-3 2.1-4.8 1.9l-4 4.7 2.3 1.8z"/><path fill="#3598DB" d="M421.826 348.268l-5.132-4.307 20.894-24.893 5.132 4.307z"/><path fill="#F9991F" d="M420.985 349.188l-5.132-4.308 20.894-24.895 5.132 4.308zM417.9 354.1l.1-.1-6.2-5.2-.1.1c-1.4 1.7-1.1 4.2.6 5.7 1.6 1.3 4.1 1.1 5.6-.5z"/><path fill="#3598DB" d="M411.8 348.7l6.2 5.2 8.5-10.1c.2-.3.2-.7-.1-.9l-5.3-4.4c-.3-.2-.7-.2-.9.1l-7.6 9.1c-.8-.6-.9-1.8-.2-2.5l9.5-11.3c.2-.3.3-.8 0-1l-.5-.5-10 11.9c-1.2 1.2-1 3.2.4 4.4z"/><path fill="#F9991F" d="M413.835 346.22l6.204 5.208-1.16 1.38-6.203-5.208z"/><path fill="#082735" d="M268.6 209l-4.9 12c-.2.5 0 1.1.5 1.3l6.8 2.8h.2l1.5-3.6c.4.2.9 0 1.1-.4l2.1-5.1c.2-.4 0-.9-.5-1.1l1.5-3.6-.1-.1-6.8-2.8c-.6-.2-1.2.1-1.4.6z"/><path fill="#0E3C55" d="M269.2 209.2l-4.9 12c-.2.5 0 1.1.5 1.3l6.8 2.8h.2l1.5-3.6c.4.2.9 0 1.1-.4l2.1-5.1c.2-.4 0-.9-.5-1.1l1.5-3.6-.1-.1-6.8-2.8c-.6-.1-1.2.1-1.4.6z"/><path fill="#9DA1A3" d="M276 213.5l-.4.9c-.1.4-.2.4-.6.3l-11.9-2.8c-.4-.1-.6-.1-.8-.5 0 0-.4-.9-.5-1.2 0 0-.2-.4-.5-.5-1.4-.4-2.8.3-3.5 1.5 0 .1-.1.2-.1.3 0 .1-.1.2-.1.3-.4 1.4.1 2.8 1.4 3.5.4.2.7 0 .7 0 .3-.1 1.2-.5 1.2-.5.4-.2.6-.1.9.2l10.5 6.3c.3.2.3.3.2.6l-.4.9c-.1.2 0 .4.2.4.2.1.4 0 .5-.2l.5-1.2c.1-.3 0-.7-.3-.9l-11.2-6.9c-.4-.2-.7-.1-.7-.1l-1.3.5c-.2.1-.4 0-.6-.2-.7-.6-1-1.6-.6-2.5.4-.9 1.2-1.4 2.2-1.4.3 0 .5.1.6.3l.5 1.3s.1.3.6.4l12.8 2.9c.3.1.7-.1.9-.4l.5-1.2c.1-.2 0-.4-.2-.4-.3.1-.5.2-.5.3z"/><path fill="#546674" d="M273.3 221.8c.4.2.6.7.5 1.1l-.8 2c-.2.4-.7.6-1.1.5-.4-.2-.8-.3-.8-.3l1.2-2.8c.1-.5.6-.7 1-.5zm4.2-10.3c.4.2.6.7.5 1.1l-.8 2c-.2.4-.7.6-1.1.5-.4-.2-.6-.7-.5-1.1l1.2-2.8s.2.1.7.3z"/><path fill="#082735" d="M286.7 192.8l-12-4.9c-.5-.2-.8-.8-.6-1.3l2.8-6.8c0-.1 0-.1.1-.1l3.6 1.5c.2-.4.7-.6 1.1-.5l5.1 2.1c.4.2.6.7.4 1.1l3.6 1.5v.2l-2.8 6.8c-.2.4-.8.6-1.3.4z"/><path fill="#0E3C55" d="M287 192.2l-12-4.9c-.5-.2-.8-.8-.6-1.3l2.8-6.8c0-.1 0-.1.1-.1l3.6 1.5c.2-.4.7-.6 1.1-.5l5.1 2.1c.4.2.6.7.4 1.1l3.6 1.5v.2l-2.8 6.8c-.2.4-.8.6-1.3.4z"/><path fill="#9DA1A3" d="M288.6 184.4l-.9-.4c-.4-.1-.4-.2-.6.2l-6.4 10.5c-.2.4-.3.5-.2.9 0 0 .4.9.5 1.2 0 0 .1.4 0 .7-.7 1.3-2.1 1.8-3.5 1.4-.1 0-.2-.1-.3-.1-.1 0-.2-.1-.3-.1-1.3-.7-1.9-2.1-1.5-3.5.1-.4.4-.5.5-.5.3-.1 1.2-.5 1.2-.5.4-.2.4-.4.5-.8l2.8-11.9c.1-.4 0-.4-.3-.6l-.9-.4c-.2-.1-.2-.3-.2-.5.1-.2.3-.3.4-.2l1.2.5c.3.1.5.5.4.9l-2.9 12.8c-.1.5-.4.6-.4.6l-1.3.5c-.2.1-.3.3-.3.6 0 .9.5 1.8 1.4 2.2.9.4 1.9.1 2.5-.6.2-.2.3-.4.2-.6l-.5-1.3s-.1-.3.1-.7l6.9-11.2c.2-.3.6-.5.9-.3l1.2.5c.2.1.2.3.2.5 0 .1-.2.2-.4.2z"/><path fill="#546674" d="M280.9 180.5c.2-.4 0-.9-.5-1.1l-2-.8c-.4-.2-.9 0-1.1.5-.2.4-.3.8-.3.8l2.8 1.2c.4 0 .9-.2 1.1-.6zm10.2 4.2c.2-.4 0-.9-.5-1.1l-2-.8c-.4-.2-.9 0-1.1.5-.2.4 0 .9.5 1.1l2.8 1.2c0-.2.1-.5.3-.9z"/><path fill="#EBECED" d="M222.1 455.5l-15.1-36-22.7 9.5-7.8 19 9.5 22.7z"/><path fill="#ddd" d="M189.9 442.4l-5.6-13.4-7.8 19z"/><path fill="#D0D4D7" d="M184.3 429l5.6 13.4 7.7-19z"/><circle fill="#D1D1D1" cx="210.1" cy="462.2" r="19.6"/><path fill="#E2E2E2" d="M202.3 441.8c1.5-.6 3.3.1 3.9 1.6l4.3 10.3-5.5 2.3-4.3-10.3c-.7-1.5.1-3.3 1.6-3.9z"/><circle fill="#F9F9F9" cx="210.1" cy="462.2" r="13"/><circle fill="#6D470B" cx="210.1" cy="462.2" r="10"/><path fill="#875710" d="M211.6 455.4l-7.3 11.3c-2-1.9-2.7-4.9-1.6-7.6 1.4-3.5 5.4-5.2 8.9-3.7z"/><circle fill="#7ABCB4" cx="221.4" cy="240.7" r="21.3"/><path fill="#fff" d="M235.7 244.2c-2.2 7.5-10 11.9-17.6 9.7-7.5-2.2-11.9-10-9.7-17.6 2.2-7.5 10-11.9 17.6-9.7 7.6 2.2 11.9 10.1 9.7 17.6zm-26.1 6.7c-1.3.7-3 .3-3.7-1.1-.7-1.3-.3-3 1.1-3.7l7.9-4.4c1.3-.7 3-.3 3.7 1.1.7 1.3.3 3-1.1 3.7l-7.9 4.4z"/><path fill="#CC805A" d="M234.1 243.6c-1.9 6.5-8.7 10.3-15.2 8.4-6.5-1.9-10.3-8.7-8.4-15.2 1.9-6.5 8.7-10.3 15.2-8.4 6.5 1.9 10.2 8.7 8.4 15.2z"/><path fill="#fff" d="M235.3 261.2c-.3 1-1.4 1.6-2.4 1.3l-3.4-1c-1-.3-1.6-1.4-1.3-2.4l1-3.4c.3-1 1.4-1.6 2.4-1.3l3.4 1c1 .3 1.6 1.4 1.3 2.4l-1 3.4zm-9.2-1.4c.5.9.2 2.1-.8 2.6l-3.1 1.7c-.9.5-2.1.2-2.6-.8l-1.7-3.1c-.5-.9-.2-2.1.8-2.6l3.1-1.7c.9-.5 2.1-.2 2.6.8l1.7 3.1z"/><defs><path id="a" d="M328.6 470.1l-1.4 1.8-8.2-7.1v-.3l7-8.4 1.7 1.5 1.5-1.8 8.3 7.1v.3l-7 8.3-1.9-1.4zm-.7-9.9l-3.4 3.9 4 3.3 3.2-3.9-3.8-3.3z"/></defs><use xlink:href="#a" overflow="visible" fill-rule="evenodd" clip-rule="evenodd" fill="#fff"/><clipPath id="b"><use xlink:href="#a" overflow="visible"/></clipPath><path transform="matrix(-.997 .081 -.081 -.997 692.863 899.503)" clip-path="url(#b)" fill-rule="evenodd" clip-rule="evenodd" fill="#fff" d="M317 454h22.4v19.6H317z"/><defs><path id="c" d="M404.3 169l2.2-.6 2.6 10.5-.1.3-10.5 2.8-.5-2.2-2.3.6-2.7-10.6.1-.3 10.5-2.8.7 2.3zm-5.1 8.4l5-1.3-1.4-5-4.9 1.3 1.3 5z"/></defs><use xlink:href="#c" overflow="visible" fill-rule="evenodd" clip-rule="evenodd" fill="#fff"/><clipPath id="d"><use xlink:href="#c" overflow="visible"/></clipPath><path transform="matrix(.861 .509 -.509 .861 144.436 -179.768)" clip-path="url(#d)" fill-rule="evenodd" clip-rule="evenodd" fill="#fff" d="M389.9 164.5h22.4v19.6h-22.4z"/><defs><path id="e" d="M351.6 274.4l-2-1.2 6-9.1.3-.1 9.2 5.8-1.3 1.9 2 1.3-6 9.1-.3.1-9.2-5.9 1.3-1.9zm9.7-2l-4.3-2.8-2.7 4.4 4.2 2.7 2.8-4.3z"/></defs><use xlink:href="#e" overflow="visible" fill-rule="evenodd" clip-rule="evenodd" fill="#070707"/><clipPath id="f"><use xlink:href="#e" overflow="visible"/></clipPath><path transform="matrix(-.21 -.978 .978 -.21 165.856 680.3)" clip-path="url(#f)" fill-rule="evenodd" clip-rule="evenodd" fill="#070707" d="M346.5 263.3h22.4v19.6h-22.4z"/></svg>