<?xml version="1.0" encoding="UTF-8" standalone="no"?>
<svg
   xmlns:dc="http://purl.org/dc/elements/1.1/"
   xmlns:cc="http://creativecommons.org/ns#"
   xmlns:rdf="http://www.w3.org/1999/02/22-rdf-syntax-ns#"
   xmlns:svg="http://www.w3.org/2000/svg"
   xmlns="http://www.w3.org/2000/svg"
   xmlns:sodipodi="http://sodipodi.sourceforge.net/DTD/sodipodi-0.dtd"
   xmlns:inkscape="http://www.inkscape.org/namespaces/inkscape"
   width="270.97858"
   height="259.87311"
   viewBox="0 0 27.748206 26.607809"
   preserveAspectRatio="xMinYMin meet"
   version="1.1"
   id="svg8"
   sodipodi:docname="travis.svg"
   inkscape:version="0.92.2 (unknown)">
  <metadata
     id="metadata14">
    <rdf:RDF>
      <cc:Work
         rdf:about="">
        <dc:format>image/svg+xml</dc:format>
        <dc:type
           rdf:resource="http://purl.org/dc/dcmitype/StillImage" />
        <dc:title />
      </cc:Work>
    </rdf:RDF>
  </metadata>
  <defs
     id="defs12" />
  <sodipodi:namedview
     pagecolor="#ffffff"
     bordercolor="#666666"
     borderopacity="1"
     objecttolerance="10"
     gridtolerance="10"
     guidetolerance="10"
     inkscape:pageopacity="0"
     inkscape:pageshadow="2"
     inkscape:window-width="1366"
     inkscape:window-height="710"
     id="namedview10"
     showgrid="false"
     fit-margin-top="5"
     fit-margin-left="5"
     fit-margin-bottom="5"
     fit-margin-right="5"
     inkscape:zoom="1.0805484"
     inkscape:cx="-128.1236"
     inkscape:cy="88.241164"
     inkscape:window-x="0"
     inkscape:window-y="30"
     inkscape:window-maximized="1"
     inkscape:current-layer="svg8" />
  <ellipse
     style="opacity:1;fill:#eeeeee;fill-opacity:1;fill-rule:nonzero;stroke-width:0.1024"
     id="path821"
     cx="13.874104"
     cy="13.305503"
     rx="13.362103"
     ry="12.793503" />
  <g
     id="g6"
     transform="matrix(0.06040981,0,0,0.06090781,5.859361,5.5230017)"
     style="fill:#333333;fill-opacity:1">
    <path
       d="m 168.485,152.203 c 0.309,8.564 4.89,8.5 10.338,8.3 7.338,-0.134 11.366,-2.383 15.048,-0.61 -0.058,-0.205 -1.208,-3.643 -6.29,-3.045 0.59,-1.272 0.841,-2.994 0.662,-5.359 -0.669,-8.558 -5.648,-15.356 -11.11,-15.163 -5.448,0.186 -8.95,7.293 -8.648,15.877 z m 8.135,-10.441 a 2.777,2.777 0 0 1 2.833,2.737 2.79,2.79 0 0 1 -2.73,2.84 2.797,2.797 0 0 1 -2.84,-2.75 2.78,2.78 0 0 1 2.737,-2.827 z m -82.936,20.284 c 0.566,0.013 1.157,0 1.76,-0.013 0.528,0 1.055,-0.013 1.607,-0.032 5.468,-0.052 9.998,0.462 9.927,-8.109 -0.09,-8.57 -3.894,-15.51 -9.361,-15.452 -5.455,0.051 -10.737,7.08 -10.422,15.645 0.096,2.236 0.424,3.842 0.95,5.005 -4.754,1.202 -6.07,4.138 -6.148,4.324 2.994,-1.612 6.38,-1.381 11.687,-1.368 z m 4.697,-18.215 c 1.542,-0.052 2.82,1.169 2.872,2.711 a 2.795,2.795 0 0 1 -2.718,2.86 2.783,2.783 0 0 1 -2.865,-2.712 2.777,2.777 0 0 1 2.711,-2.86 z m 12.831,-91.333 h 15.33 v -6.322 h 3.45 v 29.208 h -5.21 v 16.34 h 26.837 v -16.34 h -5.217 V 46.176 h 3.457 v 6.322 h 15.343 V 30.852 h -53.99 z"
       id="path2"
       inkscape:connector-curvature="0"
       style="fill:#333333;fill-opacity:1" />
    <path
       d="m 255.006,94.235 a 65.78,65.78 0 0 0 -0.527,-5.532 c -0.129,-0.925 -0.264,-1.85 -0.456,-2.756 -0.18,-0.938 -0.36,-1.806 -0.662,-2.827 l -0.193,-0.72 -0.507,-0.405 c -2.924,-2.287 -6.066,-4.022 -9.259,-5.55 -2.64,-1.247 -5.32,-2.333 -8.025,-3.329 C 227.815,52.144 214.836,33.55 197.752,20.604 180.102,7.214 159.342,0.127 137.728,0.127 116.102,0.127 95.348,7.214 77.692,20.604 64.245,30.794 53.354,44.492 45.637,60.086 H 45.6 a 124.275,124.275 0 0 0 -5.57,13.03 c -2.712,0.996 -5.391,2.082 -8.032,3.328 -3.2,1.53 -6.335,3.264 -9.259,5.551 l -0.514,0.405 -0.192,0.72 a 30.131,30.131 0 0 0 -0.669,2.827 c -0.18,0.906 -0.327,1.831 -0.45,2.756 -0.186,1.317 -0.308,2.654 -0.417,3.99 h 0.045 a 40.818,40.818 0 0 0 -0.11,1.549 69.644,69.644 0 0 0 0.322,11.102 69.809,69.809 0 0 0 2.056,10.942 58.402,58.402 0 0 0 1.793,5.333 c 0.34,0.88 0.713,1.754 1.13,2.634 0.206,0.437 0.431,0.868 0.656,1.311 l 0.366,0.649 c 0.141,0.244 0.238,0.418 0.45,0.732 l 0.366,0.579 0.591,0.302 c 0.623,0.321 1.144,0.559 1.71,0.829 l 1.644,0.745 c 0.302,0.122 0.598,0.25 0.912,0.379 -7.498,6.926 -15.645,15.928 -22.693,27.056 l -8.9,14.026 12.497,-10.968 c 0.219,-0.186 10.691,-9.252 28.168,-19.538 l 0.244,2.01 0.636,5.07 3.2,26.002 c 0.07,0.495 0.327,0.939 0.739,1.221 l 6.56,4.607 c 0.115,0.366 0.224,0.733 0.334,1.112 0.154,0.52 0.295,1.034 0.456,1.554 l 1.497,4.517 c 3.283,10.21 7.935,19.417 13.595,27.506 -0.27,0.084 -0.546,0.16 -0.816,0.238 -3.411,-1.58 -15.33,-7.106 -19.333,-8.912 l -8.372,-3.758 4.954,7.729 c 0.36,0.559 8.905,13.885 15.877,22.867 6.534,8.385 15.471,16.943 32.33,16.943 a 60.64,60.64 0 0 0 6.342,-0.36 c 5.031,-0.585 8.809,-1.034 11.681,-1.407 17.695,6.515 37.214,6.9 55.738,-0.11 a 81.021,81.021 0 0 0 13.93,-6.88 c 0.09,-0.013 0.173,-0.04 0.25,-0.058 6.888,-1.658 14.707,-3.528 18.569,-4.607 0.616,-0.167 1.394,-0.354 2.197,-0.546 5.378,-1.227 14.366,-3.322 19.153,-12.908 4.825,-9.676 12.703,-24.493 12.78,-24.64 l 3.688,-6.895 -7.164,3.117 c -0.392,0.167 -9.477,4.13 -14.2,6.605 -0.16,0.096 -0.366,0.18 -0.552,0.27 3.842,-7.833 5.757,-14.072 6.444,-16.468 l 2.59,-10.685 7.459,-16.686 c 0,0 2.094,-18.24 2.14,-18.228 l 0.732,-6.978 c 0.655,-0.276 4.639,-0.552 5.416,-0.86 1.112,-0.438 2.223,-0.868 3.335,-1.35 l 1.638,-0.745 c 0.579,-0.27 1.093,-0.508 1.716,-0.83 l 0.59,-0.301 0.374,-0.578 c 0.205,-0.315 0.32,-0.495 0.443,-0.733 l 0.36,-0.649 c 0.25,-0.443 0.462,-0.874 0.661,-1.31 a 47.28,47.28 0 0 0 1.144,-2.635 62.508,62.508 0 0 0 1.78,-5.333 c 0.976,-3.617 1.683,-7.26 2.056,-10.942 0.411,-3.675 0.501,-7.388 0.315,-11.096 z M 84.779,139.256 c 0.16,-0.11 6.862,-4.504 17.804,-9.856 a 474.045,474.045 0 0 1 35.84,-1.356 c 3.135,0 6.212,0.045 9.251,0.097 -2.12,1.709 -4.356,3.321 -6.682,4.716 l -7.729,4.677 c -4.877,0.591 -9.104,1.805 -9.336,1.87 a 1.637,1.637 0 0 0 -0.404,0.173 c -0.38,0.219 -0.669,0.578 -0.797,1.003 l -7.903,26.028 -42.18,9.374 -13.294,-9.31 -3.868,-31.31 c 7.543,-1.394 17.643,-2.994 29.76,-4.35 a 64.699,64.699 0 0 0 -3.751,4.896 l -7.216,10.358 z m 56.927,108.931 c -6.959,0.463 -14.026,-0.353 -20.946,-2.249 0.578,-0.115 0.996,-0.18 1.51,-0.237 0.565,-0.078 12.985,-1.71 18.568,-10.01 l 0.527,0.012 1.388,-0.013 c 0.919,0 1.754,-0.077 2.647,-0.115 2.12,-0.174 4.17,-0.482 6.207,-0.893 0.218,0.212 0.424,0.424 0.649,0.655 4.195,4.157 9.406,6.54 15.13,6.958 -9.63,3.913 -18.696,5.43 -25.68,5.892 z m 0.63,-15.227 c 1.046,-2.333 1.837,-4.151 2.434,-5.52 a 186.198,186.198 0 0 0 4.55,4.896 c -1.37,0.206 -2.719,0.38 -4.049,0.489 -0.873,0.038 -1.786,0.135 -2.621,0.135 h -0.315 z m -20.696,-53.727 3.771,-0.848 a 1.755,1.755 0 0 0 1.298,-1.208 l 7.878,-25.913 c 1.362,-0.18 2.557,-0.276 3.591,-0.276 1.002,0 2.217,0.097 3.573,0.276 l 8.108,26.684 c 0.206,0.681 0.79,1.176 1.484,1.253 l 3.007,0.34 0.771,0.084 51.8,5.892 c 0.43,0.051 0.854,-0.071 1.207,-0.315 l 5.205,-3.637 4.812,-3.367 1.78,-1.252 c -0.29,1.24 -0.61,2.473 -0.945,3.688 a 158.718,158.718 0 0 1 -1.548,4.664 c -2.127,6.053 -4.51,11.546 -7.106,16.506 a 35.78,35.78 0 0 1 -2.275,0.077 c -2.519,0 -5.076,-0.205 -7.91,-0.469 -4.92,-0.456 -12.714,-1.349 -15.169,-1.625 -2.14,-1.703 -9.406,-7.466 -15.44,-12.227 -0.23,-0.18 -0.436,-0.373 -0.648,-0.54 -1.06,-0.9 -2.268,-1.915 -4.716,-1.915 -2.236,0 -5.487,0.81 -13.345,3.18 4.093,-3.057 4.125,-6.996 4.125,-6.996 0,0 -5.821,5.423 -15.215,6.618 -9.368,1.208 -16.737,-4.556 -16.737,-4.556 0.308,1.003 0.745,3.27 2.872,5.192 -2.5,-0.29 -5.198,-0.495 -8.032,-0.495 -1.015,0 -2.056,0.026 -3.052,0.077 -5.77,0.309 -13.89,9.021 -19.59,17.817 -2.801,0.887 -11.558,3.669 -21.684,6.644 -5.982,-8.276 -10.036,-16.674 -12.33,-22.077 -1.337,-3.148 -2.082,-5.288 -2.249,-5.795 v -0.013 c -0.186,-0.514 -0.386,-1.06 -0.559,-1.607 l 2.429,1.697 v 0.012 l 6.007,4.215 2.005,1.395 c 0.302,0.212 0.668,0.32 1.015,0.32 0.128,0 0.257,-0.012 0.392,-0.038 z m 31.958,-38.653 a 1.783,1.783 0 0 0 -1.208,-1.183 c -0.263,-0.083 -5.474,-1.567 -11.006,-2.036 l 1.015,-0.078 c 0.874,-0.064 15.401,-1.837 32.756,-7.825 19.217,1.471 34.907,3.83 45.637,5.782 l -3.797,26.639 -13.403,9.374 -42.13,-4.787 z m 92.49,-35.885 c -0.47,3.431 -2.024,10.113 -2.024,10.113 l -1.215,0.2 c -0.636,-0.174 -6.56,-1.71 -16.763,-3.598 0.328,-0.071 0.643,-0.142 0.951,-0.212 a 47.008,47.008 0 0 0 6.22,-1.992 c 1.002,-0.43 2.004,-0.887 2.949,-1.427 0.938,-0.546 1.857,-1.15 2.576,-1.966 -10.216,3.341 -31.328,1.825 -50.096,-0.115 -17.149,-1.774 -34.362,-2.917 -51.658,-2.956 -17.29,0.039 -34.483,1.189 -51.651,2.956 -18.768,1.94 -39.874,3.456 -50.09,0.115 0.72,0.81 1.644,1.42 2.589,1.966 0.938,0.54 1.934,0.99 2.936,1.427 a 47.751,47.751 0 0 0 6.226,1.992 c 0.745,0.173 1.504,0.34 2.262,0.475 -9.31,1.767 -14.7,3.168 -15.305,3.335 0,0 -2.146,0.347 -2.615,-1.298 -0.931,-3.29 -1.555,-5.59 -2.024,-9.015 A 75.688,75.688 0 0 1 28.714,94.39 c 0.006,-0.566 -0.007,-1.697 -0.007,-1.697 0.032,-1.156 0.084,-2.313 0.193,-3.47 0.064,-0.854 3.206,-3.59 5.905,-5.146 2.917,-1.696 5.982,-3.225 9.104,-4.645 3.09,-1.465 13.107,-3.592 19.147,-4.684 6.04,-1.105 27.64,-3.97 29.26,-4.575 1.613,-0.616 10.948,-7.813 12.58,-8.41 -3.43,0.565 -50.835,7.806 -52.968,8.481 15.388,-40.24 45.592,-59.837 85.794,-59.837 40.189,0 70.4,18.504 85.8,58.751 -20.328,-5.403 -48.483,-7.922 -51.914,-8.494 1.632,0.598 10.865,7.093 12.58,7.312 14.058,1.825 36.225,6.74 37.831,7.376 3.187,1.291 6.38,2.621 9.477,4.08 3.13,1.42 6.188,2.949 9.105,4.645 2.698,1.562 5.834,4.292 5.91,5.147 0.149,1.722 0.213,3.437 0.232,5.16 0.026,3.443 -0.212,6.9 -0.655,10.311 z"
       id="path4"
       inkscape:connector-curvature="0"
       style="fill:#333333;fill-opacity:1" />
  </g>
</svg>
