<?xml version="1.0" encoding="UTF-8" standalone="no"?>
<svg
   xmlns:dc="http://purl.org/dc/elements/1.1/"
   xmlns:cc="http://creativecommons.org/ns#"
   xmlns:rdf="http://www.w3.org/1999/02/22-rdf-syntax-ns#"
   xmlns:svg="http://www.w3.org/2000/svg"
   xmlns="http://www.w3.org/2000/svg"
   xmlns:sodipodi="http://sodipodi.sourceforge.net/DTD/sodipodi-0.dtd"
   xmlns:inkscape="http://www.inkscape.org/namespaces/inkscape"
   width="188.28709"
   height="133.4874"
   viewBox="0 0 188.28709 133.4874"
   version="1.1"
   id="svg194"
   sodipodi:docname="web-api.svg"
   inkscape:version="0.92.2 (unknown)">
  <metadata
     id="metadata198">
    <rdf:RDF>
      <cc:Work
         rdf:about="">
        <dc:format>image/svg+xml</dc:format>
        <dc:type
           rdf:resource="http://purl.org/dc/dcmitype/StillImage" />
        <dc:title>Group 3</dc:title>
      </cc:Work>
    </rdf:RDF>
  </metadata>
  <sodipodi:namedview
     pagecolor="#ffffff"
     bordercolor="#666666"
     borderopacity="1"
     objecttolerance="10"
     gridtolerance="10"
     guidetolerance="10"
     inkscape:pageopacity="0"
     inkscape:pageshadow="2"
     inkscape:window-width="1366"
     inkscape:window-height="710"
     id="namedview196"
     showgrid="false"
     fit-margin-top="5"
     fit-margin-left="5"
     fit-margin-bottom="5"
     fit-margin-right="5"
     inkscape:zoom="2.3758788"
     inkscape:cx="129.47049"
     inkscape:cy="31.440819"
     inkscape:window-x="0"
     inkscape:window-y="30"
     inkscape:window-maximized="1"
     inkscape:current-layer="svg194" />
  <!-- Generator: Sketch 43.2 (39069) - http://www.bohemiancoding.com/sketch -->
  <title
     id="title2">Group 3</title>
  <desc
     id="desc4">Created with Sketch.</desc>
  <defs
     id="defs6" />
  <g
     id="Page-1"
     style="fill:none;fill-rule:evenodd;stroke:none;stroke-width:1"
     transform="translate(-55.432,-8.2501)">
    <g
       id="Group-3">
      <path
         d="m 200.6689,27.3301 c 0,7.776 -6.304,14.08 -14.08,14.08 -7.776,0 -14.08,-6.304 -14.08,-14.08 0,-7.776 6.304,-14.08 14.08,-14.08 7.776,0 14.08,6.304 14.08,14.08"
         id="Fill-1700"
         inkscape:connector-curvature="0"
         style="fill:#006e8c" />
      <path
         d="m 74.0459,71.0889 -0.33,-0.943 c 0.531,-0.186 1.092,-0.323 1.667,-0.409 l 0.147,0.991 c -0.514,0.075 -1.013,0.197 -1.484,0.361 z m -4.244,3.559 -0.855,-0.52 c 0.569,-0.937 1.25,-1.747 2.025,-2.406 l 0.648,0.762 c -0.693,0.589 -1.304,1.318 -1.818,2.164 z m -1.739,5.463 -0.994,-0.105 c 0.111,-1.055 0.318,-2.075 0.615,-3.031 l 0.955,0.297 c -0.278,0.893 -0.472,1.849 -0.576,2.839 z m -0.553,6.028 c -0.254,-0.975 -0.42,-2 -0.494,-3.048 l 0.997,-0.07 c 0.071,0.986 0.227,1.95 0.465,2.866 z m 19.662,3.544 c -0.129,-0.957 -0.52,-0.957 -0.687,-0.957 -0.198,0.001 -0.45,0.069 -0.728,0.198 l -0.422,-0.906 c 0.414,-0.193 0.8,-0.291 1.149,-0.292 0.536,0 1.466,0.237 1.679,1.824 z m -16.789,1.92 c -0.61,-0.695 -1.151,-1.457 -1.607,-2.266 l -0.16,-0.295 0.885,-0.465 0.146,0.269 c 0.422,0.748 0.922,1.454 1.487,2.097 z m 11.945,1.536 -0.955,-0.295 c 0.33,-1.071 0.827,-2.015 1.477,-2.808 l 0.774,0.635 c -0.568,0.691 -1.003,1.523 -1.296,2.468 z m 2.222,1.365 -0.445,-0.894 c 0.746,-0.373 1.684,-0.887 2.318,-1.576 l 0.736,0.676 c -0.745,0.811 -1.785,1.385 -2.609,1.794 z m -9.096,0.637 c -0.962,-0.361 -1.889,-0.851 -2.756,-1.459 l 0.574,-0.819 c 0.798,0.56 1.65,1.011 2.533,1.34 z m 3.882,0.715 c -0.277,0 -0.553,-0.012 -0.828,-0.034 l 0.078,-0.996 c 0.945,0.074 1.909,0.007 2.833,-0.201 l 0.218,0.977 c -0.752,0.168 -1.526,0.254 -2.301,0.254 z m 1.81,3.166 c -0.17,-0.928 -0.257,-1.854 -0.257,-2.752 l 0.004,-0.335 1,0.023 -0.004,0.312 c 0,0.837 0.081,1.703 0.24,2.572 z m 2.277,5.723 c -0.563,-0.841 -1.044,-1.766 -1.432,-2.751 l 0.931,-0.365 c 0.361,0.917 0.809,1.778 1.333,2.56 z m 4.56,4.171 c -0.918,-0.501 -1.77,-1.108 -2.534,-1.806 l 0.675,-0.739 c 0.704,0.645 1.49,1.205 2.337,1.666 z m 5.929,1.687 c -1.054,-0.078 -2.08,-0.254 -3.05,-0.526 l 0.27,-0.963 c 0.905,0.253 1.865,0.418 2.853,0.491 z"
         id="Fill-1701"
         inkscape:connector-curvature="0"
         style="fill:#ffffff" />
      <path
         d="m 235.8091,87.4492 c -0.565,-0.775 -1.243,-1.437 -2.015,-1.964 l 0.564,-0.826 c 0.867,0.593 1.627,1.333 2.26,2.202 z m 1.915,5.337 c -0.1,-0.989 -0.305,-1.935 -0.61,-2.81 l 0.944,-0.33 c 0.331,0.949 0.553,1.972 0.661,3.04 z m 0.386,6.027 -0.957,-0.289 c 0.278,-0.918 0.468,-1.875 0.567,-2.844 l 0.995,0.102 c -0.105,1.032 -0.309,2.053 -0.605,3.031 z m -16.996,5.074 c -0.375,-0.802 -0.782,-1.282 -1.091,-1.282 -0.095,0 -0.206,0.047 -0.328,0.139 l -0.602,-0.799 c 1.005,-0.758 2.108,-0.237 2.927,1.521 z m 14.004,0.306 -0.762,-0.646 c 0.351,-0.414 0.702,-0.87 1.045,-1.357 0.225,-0.32 0.436,-0.655 0.632,-1.006 l 0.873,0.489 c -0.212,0.379 -0.444,0.747 -0.688,1.093 -0.359,0.51 -0.729,0.991 -1.1,1.427 z m -14.069,3.037 c -1.198,-0.615 -2.052,-1.278 -2.541,-1.97 l 0.818,-0.576 c 0.388,0.55 1.142,1.123 2.18,1.658 z m 9.093,0.633 -0.354,-0.935 c 0.884,-0.335 1.698,-0.789 2.486,-1.384 l 0.603,0.797 c -0.853,0.645 -1.774,1.157 -2.735,1.522 z m -4.343,0.745 c -0.223,0 -0.448,-0.005 -0.678,-0.014 -0.344,-0.014 -0.834,-0.132 -1.184,-0.23 l 0.267,-0.963 c 0.41,0.113 0.769,0.186 0.959,0.193 0.648,0.029 1.254,0.014 1.84,-0.04 l 0.092,0.997 c -0.42,0.038 -0.851,0.057 -1.296,0.057 z m -3.353,0.898 c -0.007,-0.494 -0.147,-1.6 -0.44,-2.863 l 0.974,-0.226 c 0.269,1.163 0.457,2.398 0.466,3.075 z m -0.441,5.998 -0.919,-0.395 c 0.36,-0.841 0.662,-1.772 0.898,-2.767 l 0.972,0.23 c -0.248,1.051 -0.568,2.037 -0.951,2.932 z m -18.43,4.586 c -1.073,-0.833 -1.661,-1.779 -1.748,-2.81 l 0.996,-0.084 c 0.063,0.741 0.522,1.449 1.365,2.105 z m 14.683,0.336 -0.595,-0.803 c 0.747,-0.554 1.421,-1.231 2.003,-2.013 l 0.802,0.598 c -0.641,0.86 -1.385,1.606 -2.21,2.218 z m -8.936,1.974 c -1.009,-0.181 -2.04,-0.465 -2.982,-0.822 l 0.356,-0.936 c 0.884,0.337 1.853,0.604 2.801,0.774 z m 3.123,0.146 -0.096,-0.996 c 1.001,-0.097 1.945,-0.3 2.805,-0.603 l 0.332,0.943 c -0.936,0.329 -1.959,0.55 -3.041,0.656 z"
         id="Fill-1702"
         inkscape:connector-curvature="0"
         style="fill:#ffffff" />
      <path
         d="m 155.3994,101.6895 c 0,9.005 -7.303,16.306 -16.307,16.306 -9.005,0 -16.306,-7.301 -16.306,-16.306 0,-9.006 7.301,-16.307 16.306,-16.307 9.004,0 16.307,7.301 16.307,16.307"
         id="Fill-1703"
         inkscape:connector-curvature="0"
         style="fill:#006e8c" />
      <path
         d="m 213.6094,67.7598 c -0.091,0.149 -0.219,0.365 -0.38,0.624 -0.079,0.13 -0.165,0.269 -0.253,0.416 -0.104,0.139 -0.217,0.283 -0.327,0.434 -0.226,0.303 -0.457,0.632 -0.746,0.919 -0.518,0.619 -1.136,1.142 -1.59,1.539 -0.486,0.361 -0.809,0.602 -0.809,0.602 0,10e-4 -0.073,0.071 -0.228,0.154 -0.152,0.092 -0.367,0.222 -0.626,0.379 -0.129,0.076 -0.265,0.173 -0.419,0.249 -0.155,0.075 -0.318,0.153 -0.49,0.234 -0.339,0.168 -0.698,0.348 -1.082,0.468 -0.746,0.311 -1.536,0.475 -2.119,0.621 -0.597,0.09 -0.994,0.152 -0.994,0.152 0,0 -0.1,0.017 -0.274,0.038 -0.176,0.009 -0.429,0.02 -0.732,0.034 -0.303,0.017 -0.655,0.049 -1.035,0.01 -0.373,-0.035 -0.784,-0.01 -1.179,-0.082 -0.398,-0.07 -0.798,-0.115 -1.168,-0.187 -0.364,-0.095 -0.703,-0.184 -0.996,-0.258 -0.296,-0.061 -0.522,-0.182 -0.692,-0.233 -0.162,-0.062 -0.257,-0.095 -0.257,-0.095 0,0 -0.095,-0.034 -0.26,-0.093 -0.17,-0.049 -0.393,-0.166 -0.664,-0.299 -0.556,-0.237 -1.247,-0.649 -1.921,-1.091 -0.323,-0.244 -0.644,-0.484 -0.946,-0.713 -0.278,-0.254 -0.543,-0.491 -0.764,-0.695 -0.235,-0.194 -0.38,-0.405 -0.504,-0.528 -0.118,-0.13 -0.188,-0.206 -0.188,-0.206 0,0 -0.067,-0.074 -0.187,-0.205 -0.129,-0.121 -0.267,-0.332 -0.45,-0.573 -0.384,-0.47 -0.807,-1.156 -1.195,-1.86 -0.17,-0.365 -0.355,-0.722 -0.508,-1.065 -0.127,-0.355 -0.249,-0.686 -0.355,-0.969 -0.115,-0.277 -0.142,-0.534 -0.199,-0.7 -0.041,-0.17 -0.066,-0.267 -0.066,-0.267 0,0 -0.026,-0.098 -0.072,-0.267 -0.056,-0.17 -0.088,-0.418 -0.131,-0.717 -0.036,-0.298 -0.122,-0.643 -0.14,-1.021 -0.02,-0.379 -0.04,-0.781 -0.061,-1.185 0.021,-0.404 0.041,-0.805 0.061,-1.184 0.018,-0.378 0.104,-0.722 0.14,-1.023 0.043,-0.296 0.075,-0.548 0.131,-0.716 0.046,-0.171 0.072,-0.267 0.072,-0.267 0,0 0.025,-0.098 0.066,-0.268 0.057,-0.167 0.084,-0.42 0.199,-0.7 0.106,-0.283 0.228,-0.613 0.355,-0.966 0.153,-0.345 0.338,-0.702 0.508,-1.067 0.388,-0.703 0.811,-1.391 1.195,-1.86 0.183,-0.242 0.321,-0.452 0.45,-0.575 0.12,-0.129 0.187,-0.204 0.187,-0.204 0,0 0.07,-0.074 0.188,-0.204 0.124,-0.123 0.271,-0.334 0.504,-0.528 0.221,-0.203 0.486,-0.441 0.764,-0.696 0.302,-0.227 0.623,-0.469 0.946,-0.71 0.674,-0.444 1.365,-0.858 1.921,-1.094 0.271,-0.132 0.494,-0.25 0.664,-0.298 0.165,-0.061 0.26,-0.094 0.26,-0.094 0,0 0.095,-0.034 0.257,-0.095 0.17,-0.049 0.396,-0.17 0.692,-0.233 0.293,-0.075 0.632,-0.162 0.996,-0.258 0.37,-0.073 0.77,-0.118 1.168,-0.184 0.395,-0.075 0.804,-0.051 1.179,-0.085 0.38,-0.038 0.732,-0.007 1.035,0.01 0.303,0.012 0.556,0.024 0.732,0.033 0.174,0.021 0.274,0.042 0.274,0.042 0,0 0.397,0.059 0.994,0.148 0.583,0.149 1.373,0.313 2.119,0.622 0.384,0.12 0.743,0.3 1.08,0.468 0.174,0.08 0.337,0.159 0.492,0.233 0.154,0.079 0.29,0.173 0.419,0.25 0.259,0.156 0.474,0.287 0.626,0.378 0.155,0.084 0.228,0.156 0.228,0.157 0,0 0.323,0.239 0.806,0.601 0.457,0.396 1.075,0.92 1.593,1.537 0.289,0.286 0.52,0.616 0.746,0.919 0.11,0.152 0.223,0.296 0.327,0.436 0.088,0.147 0.174,0.288 0.253,0.418 0.158,0.256 0.289,0.47 0.38,0.621 0.097,0.147 0.128,0.244 0.128,0.245 0,0 0.177,0.362 0.436,0.906 0.215,0.562 0.527,1.308 0.694,2.095 0.045,0.196 0.111,0.387 0.142,0.581 0.03,0.197 0.059,0.392 0.086,0.576 0.057,0.373 0.125,0.72 0.12,1.024 0.034,0.605 0.057,1.009 0.057,1.009 0,0 -0.023,0.404 -0.057,1.006 0.005,0.307 -0.063,0.653 -0.12,1.026 -0.027,0.187 -0.056,0.38 -0.086,0.575 -0.031,0.195 -0.097,0.387 -0.142,0.583 -0.167,0.787 -0.479,1.534 -0.691,2.097 -0.262,0.542 -0.439,0.904 -0.439,0.904 0,0 -0.031,0.097 -0.128,0.245 m 5.282,-4.655 c -0.325,-0.083 -0.651,-0.162 -0.953,-0.233 0.009,-0.113 0.022,-0.229 0.022,-0.334 0.039,-0.729 0.064,-1.214 0.064,-1.214 0,0 -0.025,-0.485 -0.064,-1.212 0,-0.106 -0.013,-0.224 -0.024,-0.337 0.304,-0.068 0.63,-0.148 0.955,-0.231 1.239,-0.31 2.465,-0.679 2.465,-0.679 0,0 -0.043,-0.279 -0.104,-0.699 -0.036,-0.211 -0.074,-0.455 -0.115,-0.717 -0.052,-0.259 -0.129,-0.533 -0.197,-0.807 -0.149,-0.545 -0.259,-1.105 -0.427,-1.498 -0.144,-0.399 -0.239,-0.665 -0.239,-0.665 0,0 -1.263,0.244 -2.506,0.545 -0.323,0.076 -0.644,0.156 -0.942,0.234 -0.043,-0.105 -0.086,-0.217 -0.124,-0.312 -0.317,-0.657 -0.527,-1.095 -0.527,-1.095 0,0 -0.043,-0.114 -0.155,-0.295 -0.111,-0.182 -0.269,-0.441 -0.457,-0.752 -0.054,-0.09 -0.118,-0.192 -0.176,-0.287 0.233,-0.205 0.486,-0.424 0.734,-0.65 0.963,-0.857 1.869,-1.752 1.869,-1.752 0,0 -0.17,-0.226 -0.423,-0.567 -0.25,-0.344 -0.589,-0.795 -0.982,-1.202 -0.733,-0.865 -1.596,-1.601 -1.594,-1.601 0,0 -1.007,0.802 -1.965,1.644 -0.251,0.218 -0.499,0.44 -0.73,0.647 -0.086,-0.075 -0.174,-0.15 -0.253,-0.219 -0.585,-0.437 -0.974,-0.729 -0.974,-0.729 0,0 -0.09,-0.082 -0.275,-0.186 -0.181,-0.112 -0.441,-0.268 -0.753,-0.456 -0.09,-0.053 -0.194,-0.114 -0.289,-0.173 0.113,-0.289 0.233,-0.601 0.353,-0.915 0.449,-1.202 0.842,-2.418 0.842,-2.418 0,0 -0.255,-0.123 -0.639,-0.308 -0.192,-0.091 -0.416,-0.198 -0.653,-0.313 -0.242,-0.109 -0.515,-0.196 -0.777,-0.297 -1.053,-0.43 -2.16,-0.676 -2.16,-0.678 0,0 -0.518,1.178 -0.974,2.372 -0.12,0.31 -0.235,0.619 -0.343,0.91 -0.109,-0.026 -0.227,-0.055 -0.326,-0.076 -0.723,-0.112 -1.202,-0.185 -1.202,-0.185 0,0 -0.119,-0.023 -0.329,-0.046 -0.213,-0.012 -0.516,-0.027 -0.882,-0.044 -0.101,-0.006 -0.221,-0.013 -0.336,-0.018 -0.034,-0.309 -0.073,-0.638 -0.115,-0.968 -0.08,-0.64 -0.172,-1.28 -0.247,-1.759 -0.079,-0.473 -0.131,-0.79 -0.131,-0.79 0,0 -0.283,0.013 -0.705,0.032 -0.425,0.034 -0.992,0.02 -1.55,0.117 -0.558,0.087 -1.116,0.173 -1.536,0.237 -0.413,0.101 -0.687,0.167 -0.687,0.167 0,0 0.088,1.289 0.237,2.56 0.037,0.332 0.077,0.658 0.118,0.965 -0.109,0.028 -0.226,0.057 -0.326,0.084 -0.357,0.079 -0.63,0.216 -0.834,0.279 -0.198,0.074 -0.315,0.114 -0.315,0.114 0,0 -0.114,0.042 -0.314,0.115 -0.204,0.062 -0.475,0.201 -0.803,0.359 -0.094,0.041 -0.201,0.095 -0.302,0.144 -0.174,-0.255 -0.362,-0.528 -0.552,-0.801 -0.737,-1.053 -1.525,-2.082 -1.525,-2.082 0,0 -0.061,0.033 -0.171,0.089 -0.107,0.064 -0.258,0.156 -0.441,0.264 -0.359,0.225 -0.859,0.499 -1.317,0.825 -0.452,0.342 -0.907,0.679 -1.245,0.934 -0.33,0.267 -0.531,0.463 -0.531,0.463 0,0 0.68,1.098 1.403,2.157 0.187,0.274 0.375,0.544 0.553,0.797 -0.086,0.076 -0.173,0.156 -0.251,0.226 -0.277,0.236 -0.456,0.486 -0.607,0.636 -0.143,0.157 -0.226,0.246 -0.226,0.246 0,0 -0.082,0.092 -0.226,0.247 -0.152,0.151 -0.321,0.402 -0.545,0.694 -0.063,0.08 -0.133,0.175 -0.201,0.267 -0.271,-0.147 -0.564,-0.301 -0.861,-0.454 -1.14,-0.595 -2.313,-1.139 -2.313,-1.139 0,0 -0.047,0.052 -0.108,0.161 -0.066,0.104 -0.159,0.255 -0.27,0.435 -0.214,0.365 -0.535,0.836 -0.786,1.343 -0.244,0.51 -0.49,1.02 -0.673,1.404 -0.163,0.393 -0.253,0.659 -0.253,0.659 0,0 1.109,0.657 2.241,1.259 0.294,0.157 0.588,0.31 0.861,0.448 -0.038,0.109 -0.081,0.218 -0.115,0.318 -0.138,0.338 -0.178,0.642 -0.244,0.844 -0.052,0.207 -0.081,0.325 -0.081,0.325 0,0 -0.03,0.116 -0.084,0.324 -0.066,0.201 -0.108,0.503 -0.162,0.862 -0.012,0.106 -0.032,0.222 -0.053,0.334 -0.307,-0.003 -0.639,-0.003 -0.971,-10e-4 -1.285,0.007 -2.578,0.072 -2.578,0.072 0,0 -0.05,0.281 -0.061,0.705 -0.021,0.422 -0.047,0.987 -0.075,1.55 0.028,0.564 0.054,1.129 0.075,1.55 0.011,0.426 0.063,0.705 0.063,0.705 0,0 1.291,0.065 2.576,0.071 0.332,0.005 0.664,0.005 0.971,0 0.021,0.111 0.041,0.23 0.053,0.332 0.054,0.361 0.096,0.662 0.162,0.866 0.054,0.206 0.084,0.323 0.084,0.323 0,0 0.029,0.117 0.081,0.322 0.066,0.203 0.106,0.508 0.244,0.847 0.034,0.098 0.077,0.209 0.115,0.315 -0.273,0.142 -0.567,0.294 -0.861,0.452 -1.132,0.599 -2.241,1.257 -2.241,1.257 0,0 0.09,0.267 0.253,0.66 0.183,0.382 0.429,0.893 0.673,1.404 0.251,0.506 0.572,0.975 0.786,1.342 0.111,0.18 0.204,0.332 0.27,0.437 0.061,0.107 0.108,0.16 0.108,0.16 0,0 1.173,-0.545 2.313,-1.138 0.297,-0.153 0.59,-0.309 0.861,-0.455 0.068,0.091 0.138,0.188 0.201,0.268 0.224,0.29 0.393,0.541 0.545,0.691 0.144,0.159 0.226,0.246 0.226,0.246 0,0 0.083,0.09 0.226,0.248 0.151,0.15 0.33,0.399 0.607,0.637 0.078,0.068 0.165,0.15 0.251,0.226 -0.178,0.252 -0.366,0.522 -0.553,0.798 -0.723,1.056 -1.403,2.153 -1.403,2.153 0,10e-4 0.203,0.199 0.531,0.468 0.338,0.253 0.793,0.591 1.245,0.931 0.461,0.326 0.96,0.599 1.317,0.824 0.183,0.111 0.334,0.201 0.441,0.264 0.11,0.057 0.173,0.088 0.173,0.088 -0.002,0 0.786,-1.026 1.523,-2.079 0.19,-0.273 0.378,-0.546 0.552,-0.802 0.101,0.048 0.208,0.103 0.305,0.144 0.325,0.158 0.596,0.295 0.802,0.36 0.198,0.071 0.312,0.114 0.312,0.114 0,0 0.117,0.041 0.315,0.114 0.204,0.064 0.477,0.2 0.834,0.28 0.102,0.026 0.217,0.054 0.326,0.082 -0.041,0.309 -0.081,0.636 -0.118,0.966 -0.149,1.274 -0.237,2.561 -0.237,2.561 0,0 0.274,0.065 0.687,0.167 0.42,0.065 0.978,0.151 1.536,0.235 0.56,0.097 1.128,0.083 1.55,0.118 0.422,0.019 0.705,0.03 0.705,0.03 0,0 0.052,-0.314 0.131,-0.79 0.075,-0.477 0.167,-1.117 0.249,-1.755 0.042,-0.333 0.079,-0.662 0.113,-0.972 0.115,-0.005 0.235,-0.01 0.336,-0.016 0.366,-0.017 0.669,-0.033 0.882,-0.043 0.21,-0.026 0.332,-0.048 0.332,-0.048 0,0 0.476,-0.072 1.199,-0.182 0.099,-0.025 0.217,-0.053 0.326,-0.079 0.108,0.291 0.223,0.601 0.343,0.911 0.456,1.193 0.974,2.371 0.974,2.371 0,0 1.109,-0.248 2.16,-0.677 0.262,-0.102 0.535,-0.189 0.777,-0.298 0.237,-0.113 0.463,-0.22 0.653,-0.312 0.384,-0.185 0.639,-0.309 0.639,-0.309 0,0 -0.393,-1.216 -0.842,-2.415 -0.118,-0.315 -0.238,-0.626 -0.353,-0.919 0.095,-0.057 0.199,-0.116 0.289,-0.171 0.312,-0.188 0.572,-0.345 0.753,-0.456 0.185,-0.105 0.275,-0.187 0.275,-0.187 0,0 0.389,-0.291 0.974,-0.728 0.079,-0.067 0.167,-0.145 0.253,-0.219 0.231,0.207 0.479,0.427 0.73,0.646 0.958,0.844 1.965,1.645 1.965,1.645 0,0 0.861,-0.735 1.594,-1.601 0.393,-0.408 0.732,-0.859 0.982,-1.203 0.253,-0.339 0.425,-0.566 0.425,-0.566 0,0 -0.908,-0.895 -1.871,-1.753 -0.248,-0.223 -0.501,-0.445 -0.734,-0.648 0.061,-0.098 0.122,-0.198 0.176,-0.287 0.188,-0.313 0.346,-0.569 0.457,-0.753 0.112,-0.181 0.155,-0.295 0.155,-0.295 0,0 0.21,-0.436 0.527,-1.093 0.038,-0.097 0.081,-0.208 0.124,-0.314 0.298,0.078 0.619,0.157 0.942,0.236 1.243,0.298 2.508,0.542 2.506,0.542 0,0 0.095,-0.266 0.242,-0.665 0.165,-0.393 0.275,-0.951 0.427,-1.498 0.065,-0.274 0.142,-0.548 0.194,-0.807 0.041,-0.262 0.079,-0.507 0.115,-0.717 0.061,-0.419 0.104,-0.701 0.104,-0.701 0,0 -1.226,-0.367 -2.465,-0.675"
         id="Fill-1704"
         inkscape:connector-curvature="0"
         style="fill:#96b400" />
      <path
         d="m 201.8516,65.6895 c -2.411,0 -4.365,-1.954 -4.365,-4.365 0,-2.412 1.954,-4.367 4.365,-4.367 2.413,0 4.367,1.955 4.367,4.367 0,2.411 -1.954,4.365 -4.367,4.365 m 0,-15.211 c -5.99,0 -10.843,4.856 -10.843,10.846 0,5.987 4.853,10.842 10.843,10.842 5.989,0 10.845,-4.855 10.845,-10.842 0,-5.99 -4.856,-10.846 -10.845,-10.846"
         id="Fill-1705"
         inkscape:connector-curvature="0"
         style="fill:#96b400" />
      <path
         d="m 226.9121,43.1729 c -0.079,0.061 -0.169,0.176 -0.314,0.271 -0.267,0.221 -0.666,0.45 -1.084,0.636 -0.423,0.17 -0.87,0.275 -1.211,0.318 -0.172,0.028 -0.317,0.015 -0.418,0.028 -0.1,0.006 -0.156,0.01 -0.156,0.01 0,0 -0.057,-0.004 -0.158,-0.01 -0.102,-0.013 -0.247,0 -0.416,-0.028 -0.341,-0.043 -0.789,-0.148 -1.213,-0.318 -0.416,-0.186 -0.818,-0.415 -1.083,-0.636 -0.147,-0.095 -0.237,-0.21 -0.314,-0.271 -0.076,-0.066 -0.119,-0.105 -0.119,-0.105 0,0 -0.039,-0.043 -0.107,-0.119 -0.061,-0.08 -0.176,-0.17 -0.268,-0.315 -0.224,-0.266 -0.452,-0.666 -0.638,-1.083 -0.171,-0.424 -0.273,-0.871 -0.316,-1.212 -0.032,-0.17 -0.018,-0.316 -0.029,-0.416 -0.007,-0.102 -0.011,-0.158 -0.011,-0.158 0,0 0.004,-0.058 0.011,-0.158 0.011,-0.1 -0.003,-0.247 0.029,-0.416 0.043,-0.341 0.145,-0.788 0.316,-1.212 0.186,-0.417 0.414,-0.819 0.638,-1.082 0.092,-0.148 0.207,-0.238 0.268,-0.317 0.068,-0.074 0.107,-0.117 0.107,-0.117 0,0 0.043,-0.04 0.119,-0.106 0.077,-0.06 0.167,-0.177 0.314,-0.271 0.265,-0.221 0.667,-0.45 1.083,-0.638 0.424,-0.171 0.872,-0.272 1.213,-0.314 0.169,-0.03 0.314,-0.019 0.416,-0.029 0.101,-0.007 0.158,-0.011 0.158,-0.011 0,0 0.056,0.004 0.156,0.011 0.101,0.01 0.246,-10e-4 0.418,0.029 0.341,0.042 0.788,0.143 1.211,0.314 0.418,0.188 0.817,0.417 1.084,0.638 0.145,0.094 0.235,0.211 0.314,0.271 0.077,0.066 0.12,0.106 0.12,0.106 0,0 0.036,0.043 0.104,0.117 0.061,0.079 0.176,0.169 0.271,0.317 0.219,0.263 0.449,0.665 0.637,1.082 0.172,0.424 0.273,0.871 0.314,1.212 0.031,0.169 0.02,0.316 0.031,0.416 0.005,0.1 0.01,0.158 0.01,0.158 0,0 -0.005,0.056 -0.01,0.158 -0.011,0.1 0,0.246 -0.031,0.416 -0.041,0.341 -0.142,0.788 -0.314,1.212 -0.188,0.417 -0.418,0.817 -0.637,1.083 -0.095,0.145 -0.21,0.235 -0.271,0.315 -0.068,0.076 -0.104,0.119 -0.104,0.119 0,0 -0.043,0.039 -0.12,0.105 m 3.276,-2.386 c 0.014,-0.075 0.025,-0.152 0.034,-0.221 0.041,-0.238 0.029,-0.441 0.043,-0.58 0.007,-0.141 0.011,-0.221 0.011,-0.221 0,0 -0.004,-0.08 -0.011,-0.221 -0.014,-0.14 -0.002,-0.343 -0.043,-0.58 -0.009,-0.069 -0.02,-0.148 -0.034,-0.221 0.204,-0.059 0.42,-0.124 0.635,-0.196 0.836,-0.266 1.656,-0.6 1.656,-0.6 0,0 -0.052,-0.204 -0.128,-0.507 -0.068,-0.311 -0.22,-0.702 -0.367,-1.096 -0.323,-0.778 -0.786,-1.481 -0.786,-1.481 0,0 -0.806,0.34 -1.591,0.744 -0.203,0.103 -0.401,0.209 -0.587,0.311 -0.045,-0.059 -0.09,-0.124 -0.135,-0.18 -0.136,-0.197 -0.287,-0.332 -0.378,-0.44 -0.094,-0.105 -0.149,-0.164 -0.149,-0.164 0,0 -0.059,-0.054 -0.163,-0.15 -0.108,-0.088 -0.241,-0.24 -0.442,-0.378 -0.052,-0.042 -0.118,-0.087 -0.179,-0.131 0.102,-0.187 0.21,-0.388 0.31,-0.59 0.404,-0.783 0.745,-1.589 0.745,-1.589 0,0 -0.702,-0.463 -1.48,-0.786 -0.395,-0.148 -0.786,-0.301 -1.095,-0.368 -0.306,-0.077 -0.511,-0.128 -0.511,-0.128 0,0 -0.33,0.821 -0.596,1.655 -0.073,0.216 -0.139,0.433 -0.197,0.636 -0.075,-0.012 -0.151,-0.027 -0.221,-0.036 -0.238,-0.038 -0.441,-0.03 -0.579,-0.04 -0.142,-0.008 -0.221,-0.013 -0.221,-0.013 0,0 -0.082,0.005 -0.222,0.013 -0.14,0.01 -0.343,0.002 -0.583,0.04 -0.065,0.009 -0.144,0.024 -0.217,0.036 -0.061,-0.203 -0.126,-0.42 -0.196,-0.636 -0.266,-0.834 -0.601,-1.655 -0.601,-1.655 0,0 -0.204,0.051 -0.508,0.128 -0.31,0.067 -0.701,0.22 -1.094,0.368 -0.779,0.323 -1.482,0.786 -1.482,0.786 0,0 0.341,0.806 0.746,1.589 0.104,0.202 0.207,0.403 0.309,0.59 -0.061,0.044 -0.124,0.089 -0.179,0.131 -0.198,0.138 -0.334,0.29 -0.442,0.378 -0.104,0.096 -0.163,0.15 -0.163,0.15 0,0 -0.052,0.059 -0.149,0.164 -0.088,0.108 -0.242,0.243 -0.38,0.44 -0.043,0.056 -0.086,0.121 -0.131,0.18 -0.187,-0.102 -0.386,-0.208 -0.589,-0.311 -0.782,-0.402 -1.589,-0.744 -1.589,-0.744 0,0 -0.463,0.703 -0.786,1.481 -0.147,0.394 -0.3,0.785 -0.368,1.096 -0.077,0.305 -0.127,0.507 -0.127,0.507 0,0 0.818,0.334 1.654,0.6 0.217,0.072 0.434,0.137 0.635,0.196 -0.011,0.073 -0.025,0.152 -0.034,0.221 -0.041,0.237 -0.029,0.44 -0.041,0.58 -0.009,0.141 -0.011,0.221 -0.011,0.221 0,0 0.002,0.08 0.011,0.221 0.012,0.139 0,0.342 0.041,0.58 0.009,0.069 0.023,0.146 0.034,0.221 -0.201,0.059 -0.418,0.124 -0.635,0.195 -0.836,0.267 -1.654,0.599 -1.654,0.599 0,0 0.05,0.204 0.127,0.51 0.068,0.307 0.221,0.701 0.368,1.095 0.323,0.779 0.786,1.481 0.786,1.481 0,0 0.807,-0.341 1.589,-0.745 0.203,-0.104 0.402,-0.21 0.589,-0.31 0.045,0.061 0.088,0.124 0.131,0.178 0.138,0.199 0.292,0.332 0.38,0.442 0.097,0.103 0.149,0.166 0.149,0.166 0,0 0.059,0.051 0.163,0.145 0.108,0.091 0.244,0.244 0.442,0.38 0.055,0.045 0.118,0.089 0.179,0.134 -0.102,0.184 -0.205,0.384 -0.309,0.587 -0.405,0.784 -0.746,1.59 -0.746,1.59 0,0 0.703,0.463 1.482,0.788 0.393,0.144 0.784,0.298 1.094,0.365 0.304,0.077 0.508,0.13 0.508,0.13 0,0 0.335,-0.822 0.601,-1.656 0.07,-0.217 0.135,-0.433 0.196,-0.635 0.073,0.011 0.152,0.025 0.217,0.033 0.24,0.041 0.443,0.029 0.583,0.043 0.14,0.008 0.222,0.012 0.222,0.012 0,0 0.079,-0.004 0.221,-0.012 0.138,-0.014 0.341,-0.002 0.579,-0.043 0.07,-0.008 0.146,-0.022 0.221,-0.033 0.058,0.202 0.124,0.418 0.197,0.635 0.266,0.834 0.596,1.656 0.596,1.656 0,0 0.205,-0.053 0.511,-0.13 0.309,-0.067 0.7,-0.221 1.095,-0.365 0.778,-0.325 1.48,-0.788 1.48,-0.788 0,0 -0.341,-0.806 -0.745,-1.59 -0.1,-0.203 -0.208,-0.403 -0.31,-0.588 0.061,-0.044 0.127,-0.088 0.179,-0.133 0.201,-0.136 0.334,-0.289 0.442,-0.38 0.104,-0.094 0.163,-0.145 0.163,-0.145 0,0 0.055,-0.063 0.149,-0.166 0.091,-0.11 0.242,-0.243 0.378,-0.442 0.045,-0.054 0.09,-0.117 0.135,-0.178 0.186,0.1 0.384,0.206 0.587,0.31 0.785,0.404 1.591,0.745 1.591,0.745 0,0 0.463,-0.702 0.786,-1.481 0.147,-0.394 0.299,-0.788 0.367,-1.095 0.076,-0.306 0.128,-0.51 0.128,-0.51 0,0 -0.82,-0.332 -1.656,-0.599 -0.215,-0.071 -0.431,-0.136 -0.635,-0.195"
         id="Fill-1706"
         inkscape:connector-curvature="0"
         style="fill:#007896" />
      <path
         d="m 190.1841,31.7598 v -4.286 c 0,-0.074 -0.023,-0.109 -0.054,-0.099 0,0 -0.319,0.079 -0.324,0.079 -0.051,0.01 -0.083,-0.02 -0.083,-0.14 v -0.286 c 0,-0.097 0.039,-0.128 0.088,-0.139 l 0.85,-0.224 c 0.018,-0.003 0.034,-0.007 0.047,-0.007 0.05,0 0.075,0.033 0.075,0.156 v 4.946 c 0,0.16 -0.037,0.25 -0.088,0.25 h -0.428 c -0.051,0 -0.083,-0.09 -0.083,-0.25"
         id="Fill-1707"
         inkscape:connector-curvature="0"
         style="fill:#ffffff" />
      <path
         d="m 193.562,29.3027 c 0,-1.615 -0.183,-2.226 -0.66,-2.226 -0.477,0 -0.655,0.614 -0.655,2.226 0,1.664 0.194,2.28 0.66,2.28 0.465,0 0.655,-0.606 0.655,-2.28 m -1.884,0 c 0,-2.241 0.56,-2.708 1.224,-2.708 0.669,0 1.234,0.455 1.234,2.708 0,2.194 -0.565,2.758 -1.234,2.758 -0.664,0 -1.224,-0.564 -1.224,-2.758"
         id="Fill-1708"
         inkscape:connector-curvature="0"
         style="fill:#ffffff" />
      <path
         d="m 196.7656,29.3027 c 0,-1.615 -0.183,-2.226 -0.657,-2.226 -0.479,0 -0.655,0.614 -0.655,2.226 0,1.664 0.191,2.28 0.657,2.28 0.465,0 0.655,-0.606 0.655,-2.28 m -1.884,0 c 0,-2.241 0.56,-2.708 1.227,-2.708 0.666,0 1.231,0.455 1.231,2.708 0,2.194 -0.565,2.758 -1.231,2.758 -0.667,0 -1.227,-0.564 -1.227,-2.758"
         id="Fill-1709"
         inkscape:connector-curvature="0"
         style="fill:#ffffff" />
      <path
         d="m 198.4512,31.7598 v -4.286 c 0,-0.074 -0.023,-0.109 -0.052,-0.099 0,0 -0.321,0.079 -0.326,0.079 -0.051,0.01 -0.083,-0.02 -0.083,-0.14 v -0.286 c 0,-0.097 0.039,-0.128 0.088,-0.139 l 0.849,-0.224 c 0.019,-0.003 0.035,-0.007 0.048,-0.007 0.05,0 0.075,0.033 0.075,0.156 v 4.946 c 0,0.16 -0.037,0.25 -0.088,0.25 h -0.425 c -0.054,0 -0.086,-0.09 -0.086,-0.25"
         id="Fill-1710"
         inkscape:connector-curvature="0"
         style="fill:#ffffff" />
      <path
         d="m 201.8311,29.3027 c 0,-1.615 -0.183,-2.226 -0.66,-2.226 -0.479,0 -0.655,0.614 -0.655,2.226 0,1.664 0.192,2.28 0.658,2.28 0.465,0 0.657,-0.606 0.657,-2.28 m -1.887,0 c 0,-2.241 0.563,-2.708 1.227,-2.708 0.667,0 1.234,0.455 1.234,2.708 0,2.194 -0.567,2.758 -1.234,2.758 -0.664,0 -1.227,-0.564 -1.227,-2.758"
         id="Fill-1711"
         inkscape:connector-curvature="0"
         style="fill:#ffffff" />
      <path
         d="m 203.5142,31.7598 v -4.286 c 0,-0.074 -0.022,-0.109 -0.052,-0.099 0,0 -0.321,0.079 -0.325,0.079 -0.052,0.01 -0.081,-0.02 -0.081,-0.14 v -0.286 c 0,-0.097 0.038,-0.128 0.085,-0.139 l 0.85,-0.224 c 0.018,-0.003 0.034,-0.007 0.047,-0.007 0.05,0 0.075,0.033 0.075,0.156 v 4.946 c 0,0.16 -0.036,0.25 -0.088,0.25 h -0.425 c -0.054,0 -0.086,-0.09 -0.086,-0.25"
         id="Fill-1712"
         inkscape:connector-curvature="0"
         style="fill:#ffffff" />
      <path
         d="m 206.8945,29.3027 c 0,-1.615 -0.183,-2.226 -0.66,-2.226 -0.477,0 -0.655,0.614 -0.655,2.226 0,1.664 0.194,2.28 0.66,2.28 0.463,0 0.655,-0.606 0.655,-2.28 m -1.884,0 c 0,-2.241 0.562,-2.708 1.224,-2.708 0.669,0 1.236,0.455 1.236,2.708 0,2.194 -0.567,2.758 -1.236,2.758 -0.662,0 -1.224,-0.564 -1.224,-2.758"
         id="Fill-1713"
         inkscape:connector-curvature="0"
         style="fill:#ffffff" />
      <path
         d="m 208.5776,31.7598 v -4.286 c 0,-0.074 -0.02,-0.109 -0.05,-0.099 0,0 -0.321,0.079 -0.325,0.079 -0.052,0.01 -0.081,-0.02 -0.081,-0.14 v -0.286 c 0,-0.097 0.036,-0.128 0.085,-0.139 l 0.848,-0.224 c 0.02,-0.003 0.034,-0.007 0.049,-0.007 0.05,0 0.073,0.033 0.073,0.156 v 4.946 c 0,0.16 -0.037,0.25 -0.088,0.25 h -0.423 c -0.054,0 -0.088,-0.09 -0.088,-0.25"
         id="Fill-1714"
         inkscape:connector-curvature="0"
         style="fill:#ffffff" />
      <path
         d="m 211.9575,29.3027 c 0,-1.615 -0.181,-2.226 -0.66,-2.226 -0.474,0 -0.655,0.614 -0.655,2.226 0,1.664 0.194,2.28 0.66,2.28 0.465,0 0.655,-0.606 0.655,-2.28 m -1.884,0 c 0,-2.241 0.562,-2.708 1.224,-2.708 0.669,0 1.236,0.455 1.236,2.708 0,2.194 -0.567,2.758 -1.236,2.758 -0.662,0 -1.224,-0.564 -1.224,-2.758"
         id="Fill-1715"
         inkscape:connector-curvature="0"
         style="fill:#ffffff" />
      <path
         d="m 191.7046,36.3525 c 0,-1.616 -0.185,-2.227 -0.66,-2.227 -0.479,0 -0.659,0.614 -0.659,2.227 0,1.663 0.196,2.281 0.664,2.281 0.463,0 0.655,-0.607 0.655,-2.281 m -1.886,0 c 0,-2.242 0.562,-2.709 1.226,-2.709 0.667,0 1.232,0.456 1.232,2.709 0,2.194 -0.565,2.758 -1.232,2.758 -0.664,0 -1.226,-0.564 -1.226,-2.758"
         id="Fill-1716"
         inkscape:connector-curvature="0"
         style="fill:#ffffff" />
      <path
         d="m 193.3877,38.8086 v -4.284 c 0,-0.075 -0.023,-0.111 -0.052,-0.101 0,0 -0.321,0.081 -0.325,0.081 -0.052,0.009 -0.081,-0.021 -0.081,-0.14 v -0.288 c 0,-0.097 0.036,-0.126 0.085,-0.138 l 0.85,-0.224 c 0.018,-0.003 0.032,-0.007 0.047,-0.007 0.05,0 0.075,0.035 0.075,0.156 v 4.945 c 0,0.16 -0.038,0.25 -0.09,0.25 h -0.425 c -0.05,0 -0.084,-0.09 -0.084,-0.25"
         id="Fill-1717"
         inkscape:connector-curvature="0"
         style="fill:#ffffff" />
      <path
         d="m 195.2451,38.8086 v -4.284 c 0,-0.075 -0.021,-0.111 -0.052,-0.101 0,0 -0.321,0.081 -0.323,0.081 -0.052,0.009 -0.084,-0.021 -0.084,-0.14 v -0.288 c 0,-0.097 0.039,-0.126 0.086,-0.138 l 0.85,-0.224 c 0.018,-0.003 0.034,-0.007 0.049,-0.007 0.05,0 0.075,0.035 0.075,0.156 v 4.945 c 0,0.16 -0.036,0.25 -0.09,0.25 h -0.425 c -0.052,0 -0.086,-0.09 -0.086,-0.25"
         id="Fill-1718"
         inkscape:connector-curvature="0"
         style="fill:#ffffff" />
      <path
         d="m 198.625,36.3525 c 0,-1.616 -0.181,-2.227 -0.657,-2.227 -0.477,0 -0.658,0.614 -0.658,2.227 0,1.663 0.194,2.281 0.66,2.281 0.466,0 0.655,-0.607 0.655,-2.281 m -1.884,0 c 0,-2.242 0.562,-2.709 1.227,-2.709 0.666,0 1.233,0.456 1.233,2.709 0,2.194 -0.567,2.758 -1.233,2.758 -0.665,0 -1.227,-0.564 -1.227,-2.758"
         id="Fill-1719"
         inkscape:connector-curvature="0"
         style="fill:#ffffff" />
      <path
         d="m 200.3105,38.8086 v -4.284 c 0,-0.075 -0.022,-0.111 -0.052,-0.101 0,0 -0.32,0.081 -0.323,0.081 -0.054,0.009 -0.086,-0.021 -0.086,-0.14 v -0.288 c 0,-0.097 0.039,-0.126 0.089,-0.138 l 0.849,-0.224 c 0.018,-0.003 0.034,-0.007 0.048,-0.007 0.049,0 0.074,0.035 0.074,0.156 v 4.945 c 0,0.16 -0.037,0.25 -0.088,0.25 h -0.428 c -0.049,0 -0.083,-0.09 -0.083,-0.25"
         id="Fill-1720"
         inkscape:connector-curvature="0"
         style="fill:#ffffff" />
      <path
         d="m 203.6904,36.3525 c 0,-1.616 -0.183,-2.227 -0.66,-2.227 -0.476,0 -0.655,0.614 -0.655,2.227 0,1.663 0.193,2.281 0.66,2.281 0.466,0 0.655,-0.607 0.655,-2.281 m -1.886,0 c 0,-2.242 0.562,-2.709 1.226,-2.709 0.667,0 1.234,0.456 1.234,2.709 0,2.194 -0.567,2.758 -1.234,2.758 -0.664,0 -1.226,-0.564 -1.226,-2.758"
         id="Fill-1721"
         inkscape:connector-curvature="0"
         style="fill:#ffffff" />
      <path
         d="m 205.374,38.8086 v -4.284 c 0,-0.075 -0.02,-0.111 -0.05,-0.101 0,0 -0.323,0.081 -0.326,0.081 -0.054,0.009 -0.083,-0.021 -0.083,-0.14 v -0.288 c 0,-0.097 0.039,-0.126 0.086,-0.138 l 0.85,-0.224 c 0.02,-0.003 0.033,-0.007 0.047,-0.007 0.05,0 0.077,0.035 0.077,0.156 v 4.945 c 0,0.16 -0.039,0.25 -0.091,0.25 h -0.425 c -0.051,0 -0.085,-0.09 -0.085,-0.25"
         id="Fill-1722"
         inkscape:connector-curvature="0"
         style="fill:#ffffff" />
      <path
         d="m 208.7539,36.3525 c 0,-1.616 -0.183,-2.227 -0.66,-2.227 -0.477,0 -0.655,0.614 -0.655,2.227 0,1.663 0.194,2.281 0.66,2.281 0.465,0 0.655,-0.607 0.655,-2.281 m -1.884,0 c 0,-2.242 0.56,-2.709 1.224,-2.709 0.669,0 1.236,0.456 1.236,2.709 0,2.194 -0.567,2.758 -1.236,2.758 -0.664,0 -1.224,-0.564 -1.224,-2.758"
         id="Fill-1723"
         inkscape:connector-curvature="0"
         style="fill:#ffffff" />
      <path
         d="m 211.9575,36.3525 c 0,-1.616 -0.181,-2.227 -0.66,-2.227 -0.474,0 -0.655,0.614 -0.655,2.227 0,1.663 0.194,2.281 0.66,2.281 0.465,0 0.655,-0.607 0.655,-2.281 m -1.884,0 c 0,-2.242 0.562,-2.709 1.224,-2.709 0.669,0 1.236,0.456 1.236,2.709 0,2.194 -0.567,2.758 -1.236,2.758 -0.662,0 -1.224,-0.564 -1.224,-2.758"
         id="Fill-1724"
         inkscape:connector-curvature="0"
         style="fill:#ffffff" />
      <polygon
         id="Fill-1725"
         points="225.277,68.911 228.074,68.911 228.074,52.728 225.277,52.728 "
         style="fill:#ff6400" />
      <polygon
         id="Fill-1726"
         points="229.079,68.911 231.878,68.911 231.878,54.446 229.079,54.446 "
         style="fill:#ffc800" />
      <polygon
         id="Fill-1727"
         points="232.882,68.911 235.681,68.911 235.681,58.961 232.882,58.961 "
         style="fill:#00a0b4" />
      <polygon
         id="Fill-1728"
         points="232.332,73.022 236.069,73.022 236.069,72.174 232.332,72.174 "
         style="fill:#ffffff" />
      <polygon
         id="Fill-1729"
         points="227.38,73.022 231.485,73.022 231.485,72.174 227.38,72.174 "
         style="fill:#ffffff" />
      <polygon
         id="Fill-1730"
         points="224.887,73.022 226.53,73.022 226.53,72.174 224.887,72.174 "
         style="fill:#ffffff" />
      <polygon
         id="Fill-1731"
         points="230.452,74.932 236.069,74.932 236.069,74.083 230.452,74.083 "
         style="fill:#ffffff" />
      <polygon
         id="Fill-1732"
         points="224.887,74.932 229.605,74.932 229.605,74.083 224.887,74.083 "
         style="fill:#ffffff" />
      <polygon
         id="Fill-1733"
         points="232.945,76.84 236.069,76.84 236.069,75.991 232.945,75.991 "
         style="fill:#ffffff" />
      <polygon
         id="Fill-1734"
         points="227.086,76.84 232.095,76.84 232.095,75.991 227.086,75.991 "
         style="fill:#ffffff" />
      <polygon
         id="Fill-1735"
         points="224.888,76.84 226.239,76.84 226.239,75.991 224.888,75.991 "
         style="fill:#ffffff" />
      <path
         d="m 145.9053,136.7373 c -1.09,0 -1.984,-0.892 -1.984,-1.982 v -63.656 c 0,-1.093 0.894,-1.984 1.984,-1.984 h 47.59 c 1.092,0 1.984,0.891 1.984,1.984 v 63.656 c 0,1.09 -0.892,1.982 -1.984,1.982 z"
         id="Fill-1736"
         inkscape:connector-curvature="0"
         style="fill:#464646" />
      <polygon
         id="Fill-1737"
         points="145.905,134.755 193.495,134.755 193.495,71.1 145.905,71.1 "
         style="fill:#f6f6f6" />
      <polygon
         id="Fill-1738"
         points="169.358,134.755 193.495,134.755 193.495,71.1 169.358,71.1 "
         style="fill:#ffffff" />
      <polygon
         id="Fill-1739"
         points="162.431,74.114 176.97,74.114 176.97,66.511 162.431,66.511 "
         style="fill:#ffc800" />
      <path
         d="m 169.7002,64.6953 c -1.002,0 -1.816,0.814 -1.816,1.816 0,1.004 0.814,1.82 1.816,1.82 1.002,0 1.816,-0.816 1.816,-1.82 0,-1.002 -0.814,-1.816 -1.816,-1.816 m 0,4.627 c -1.549,0 -2.809,-1.262 -2.809,-2.811 0,-1.548 1.26,-2.809 2.809,-2.809 1.549,0 2.809,1.261 2.809,2.809 0,1.549 -1.26,2.811 -2.809,2.811"
         id="Fill-1740"
         inkscape:connector-curvature="0"
         style="fill:#ffc800" />
      <polygon
         id="Fill-1741"
         points="169.359,95.136 172.63,95.136 172.63,76.211 169.359,76.211 "
         style="fill:#ff6400" />
      <polygon
         id="Fill-1742"
         points="173.807,95.136 177.077,95.136 177.077,78.219 173.807,78.219 "
         style="fill:#ffc800" />
      <polygon
         id="Fill-1743"
         points="178.251,95.136 181.524,95.136 181.524,83.498 178.251,83.498 "
         style="fill:#00a0b4" />
      <polygon
         id="Fill-1744"
         points="182.699,95.136 185.972,95.136 185.972,80.151 182.699,80.151 "
         style="fill:#96b400" />
      <polygon
         id="Fill-1745"
         points="187.146,95.136 190.419,95.136 190.419,86.891 187.146,86.891 "
         style="fill:#b4b4b4" />
      <polygon
         id="Fill-1746"
         points="148.619,78.195 165.226,78.195 165.226,76.211 148.619,76.211 "
         style="fill:#b4b4b4" />
      <polygon
         id="Fill-1747"
         points="148.617,81.583 165.226,81.583 165.226,79.599 148.617,79.599 "
         style="fill:#b4b4b4" />
      <polygon
         id="Fill-1748"
         points="148.619,84.97 165.226,84.97 165.226,82.987 148.619,82.987 "
         style="fill:#b4b4b4" />
      <polygon
         id="Fill-1749"
         points="148.619,88.357 165.226,88.357 165.226,86.376 148.619,86.376 "
         style="fill:#b4b4b4" />
      <polygon
         id="Fill-1750"
         points="148.619,91.745 165.226,91.745 165.226,89.764 148.619,89.764 "
         style="fill:#b4b4b4" />
      <polygon
         id="Fill-1751"
         points="148.618,99.448 190.419,99.448 190.419,97.465 148.618,97.465 "
         style="fill:#b4b4b4" />
      <polygon
         id="Fill-1752"
         points="148.618,102.927 190.419,102.927 190.419,100.944 148.618,100.944 "
         style="fill:#b4b4b4" />
      <path
         d="m 158.9346,120.1914 8.346,-6.064 c 3.349,4.612 2.326,11.06 -2.284,14.41 -4.609,3.35 -11.058,2.326 -14.408,-2.284 -3.349,-4.606 -2.326,-11.062 2.284,-14.409 1.843,-1.341 3.783,-1.969 6.062,-1.969 z"
         id="Fill-1753"
         inkscape:connector-curvature="0"
         style="fill:#007896" />
      <path
         d="m 158.9346,120.1914 v -10.316 c 3.42,0 6.336,1.486 8.346,4.252 z"
         id="Fill-1754"
         inkscape:connector-curvature="0"
         style="fill:#dcdcdc" />
      <polygon
         id="Fill-1755"
         points="148.618,106.403 190.419,106.403 190.419,104.422 148.618,104.422 "
         style="fill:#b4b4b4" />
      <polygon
         id="Fill-1756"
         points="173.808,120.344 190.419,120.344 190.419,118.36 173.808,118.36 "
         style="fill:#b4b4b4" />
      <polygon
         id="Fill-1757"
         points="173.81,123.731 190.419,123.731 190.419,121.749 173.81,121.749 "
         style="fill:#b4b4b4" />
      <polygon
         id="Fill-1758"
         points="173.81,127.118 190.419,127.118 190.419,125.136 173.81,125.136 "
         style="fill:#b4b4b4" />
      <polygon
         id="Fill-1759"
         points="173.81,130.51 190.419,130.51 190.419,128.525 173.81,128.525 "
         style="fill:#b4b4b4" />
      <polygon
         id="Fill-1760"
         points="173.808,114.27 190.419,114.27 190.419,109.875 173.808,109.875 "
         style="fill:#b4b4b4" />
      <polygon
         id="Fill-1761"
         points="203.0555,96.4221 203.3135,93.6631 201.8445,91.0481 200.3775,93.6631 200.6315,96.4221 "
         style="fill:#ffdc00" />
      <polygon
         id="Fill-1762"
         points="200.3779,93.6631 200.6319,96.4221 201.8449,96.4221 201.8449,91.0481 "
         style="fill:#ffc800" />
      <polygon
         id="Fill-1763"
         points="202.6321,93.6629 202.4951,96.4219 202.7701,96.4219 202.9701,93.6629 201.8451,91.0479 "
         style="fill:#fff064" />
      <path
         d="m 201.8447,94.2637 c -0.176,0 -0.32,-0.146 -0.32,-0.32 0,-0.18 0.144,-0.32 0.32,-0.32 0.176,0 0.318,0.14 0.318,0.32 0,0.174 -0.142,0.32 -0.318,0.32"
         id="Fill-1764"
         inkscape:connector-curvature="0"
         style="fill:#5a2800" />
      <path
         d="m 200.1982,96.6055 v -0.288 c 0,-0.067 0.027,-0.133 0.075,-0.18 0.048,-0.048 0.112,-0.075 0.18,-0.075 l 2.776,0.004 c 0.14,0 0.254,0.114 0.254,0.254 v 0.292 z"
         id="Fill-1765"
         inkscape:connector-curvature="0"
         style="fill:#ffdc00" />
      <polygon
         id="Fill-1766"
         points="201.8525,91.0479 201.9385,93.9439 201.7525,93.9439 201.8385,91.0479 "
         style="fill:#5a2800" />
      <polygon
         id="Fill-1767"
         points="200.04,105.249 200.229,96.606 203.46,96.602 203.647,105.249 "
         style="fill:#007896" />
      <path
         d="m 200.1025,105.8564 c -0.104,0 -0.187,-0.085 -0.187,-0.187 v -0.232 c 0,-0.102 0.083,-0.188 0.187,-0.188 h 3.486 c 0.106,0 0.19,0.086 0.19,0.188 v 0.232 c 0,0.102 -0.084,0.187 -0.19,0.187 z"
         id="Fill-1768"
         inkscape:connector-curvature="0"
         style="fill:#ffdc00" />
      <path
         d="m 201.8447,136.4551 c -0.695,0 -1.262,-0.799 -1.262,-1.783 v -0.008 h -0.002 c 0,0 -0.064,-1.198 -0.16,-2.984 -0.012,-0.239 -0.023,-0.485 -0.037,-0.739 -0.232,-4.469 -0.592,-11.616 -0.602,-13.679 -0.023,-4.136 0.233,-11.406 0.233,-11.406 h 3.656 c 0,0 0.258,7.27 0.238,11.406 -0.009,2.063 -0.365,9.21 -0.601,13.679 -0.01,0.254 -0.024,0.5 -0.033,0.739 -0.098,1.786 -0.164,2.992 -0.164,2.992 h -0.006 c 0,0.984 -0.563,1.783 -1.26,1.783"
         id="Fill-1769"
         inkscape:connector-curvature="0"
         style="fill:#007896" />
      <path
         d="m 201.8447,136.4551 v -30.599 h 1.826 c 0,0 0.258,7.27 0.238,11.406 -0.009,2.063 -0.365,9.21 -0.601,13.679 -0.01,0.254 -0.024,0.5 -0.033,0.739 -0.098,1.786 -0.164,2.992 -0.164,2.992 h -0.006 c 0,0.984 -0.563,1.783 -1.26,1.783"
         id="Fill-1770"
         inkscape:connector-curvature="0"
         style="fill:#0082a0" />
      <polygon
         id="Fill-1771"
         points="201.8447,96.6055 201.8447,105.2485 203.6477,105.2485 203.4597,96.6015 "
         style="fill:#0082a0" />
      <polygon
         id="Fill-1772"
         points="124.8628,50.5713 118.4098,25.8203 119.3188,25.5833 125.7718,50.3333 "
         style="fill:#ffffff" />
      <polygon
         id="Fill-1773"
         points="125.1753,50.9014 98.2543,42.3054 98.5413,41.4104 125.4613,50.0034 "
         style="fill:#ffffff" />
      <polygon
         id="Fill-1774"
         points="125.666,50.7705 124.97,50.1345 144.01,29.3225 144.706,29.9585 "
         style="fill:#ffffff" />
      <polygon
         id="Fill-1775"
         points="148.3423,55.25 125.2333,50.915 125.4053,49.992 148.5163,54.326 "
         style="fill:#ffffff" />
      <polygon
         id="Fill-1776"
         points="132.6431,75.1084 124.8711,50.5954 125.7651,50.3094 133.5391,74.8254 "
         style="fill:#ffffff" />
      <polygon
         id="Fill-1777"
         points="104.8203,72.5693 104.1393,71.9183 124.9783,50.1273 125.6573,50.7773 "
         style="fill:#ffffff" />
      <path
         d="m 137.1636,50.4521 c 0,6.546 -5.301,11.849 -11.845,11.849 -6.542,0 -11.846,-5.303 -11.846,-11.849 0,-6.543 5.304,-11.846 11.846,-11.846 6.544,0 11.845,5.303 11.845,11.846"
         id="Fill-1778"
         inkscape:connector-curvature="0"
         style="fill:#00a0b4" />
      <path
         d="m 127.2236,25.7012 c 0,4.615 -3.744,8.356 -8.358,8.356 -4.616,0 -8.356,-3.741 -8.356,-8.356 0,-4.615 3.74,-8.357 8.356,-8.357 4.614,0 8.358,3.742 8.358,8.357"
         id="Fill-1779"
         inkscape:connector-curvature="0"
         style="fill:#ffc800" />
      <path
         d="m 112.835,72.2432 c 0,4.616 -3.74,8.356 -8.354,8.356 -4.616,0 -8.358,-3.74 -8.358,-8.356 0,-4.614 3.742,-8.355 8.358,-8.355 4.614,0 8.354,3.741 8.354,8.355"
         id="Fill-1780"
         inkscape:connector-curvature="0"
         style="fill:#96b400" />
      <path
         d="m 154.7251,54.7881 c 0,3.475 -2.819,6.294 -6.295,6.294 -3.475,0 -6.294,-2.819 -6.294,-6.294 0,-3.475 2.819,-6.296 6.294,-6.296 3.476,0 6.295,2.821 6.295,6.296"
         id="Fill-1781"
         inkscape:connector-curvature="0"
         style="fill:#b4b4b4" />
      <path
         d="m 102.4702,41.8584 c 0,2.25 -1.825,4.072 -4.072,4.072 -2.248,0 -4.073,-1.822 -4.073,-4.072 0,-2.25 1.825,-4.073 4.073,-4.073 2.247,0 4.072,1.823 4.072,4.073"
         id="Fill-1782"
         inkscape:connector-curvature="0"
         style="fill:#007896" />
      <path
         d="m 137.1636,74.9678 c 0,2.248 -1.822,4.07 -4.071,4.07 -2.249,0 -4.072,-1.822 -4.072,-4.07 0,-2.251 1.823,-4.074 4.072,-4.074 2.249,0 4.071,1.823 4.071,4.074"
         id="Fill-1783"
         inkscape:connector-curvature="0"
         style="fill:#ff6400" />
      <path
         d="m 148.4297,29.6396 c 0,2.249 -1.823,4.071 -4.072,4.071 -2.249,0 -4.073,-1.822 -4.073,-4.071 0,-2.249 1.824,-4.072 4.073,-4.072 2.249,0 4.072,1.823 4.072,4.072"
         id="Fill-1784"
         inkscape:connector-curvature="0"
         style="fill:#007896" />
      <path
         d="m 123.3569,44.2441 v -3.07 c 0,-0.054 -0.017,-0.078 -0.037,-0.073 0,0 -0.228,0.058 -0.232,0.058 -0.037,0.004 -0.06,-0.015 -0.06,-0.101 v -0.206 c 0,-0.07 0.027,-0.091 0.064,-0.099 l 0.607,-0.159 c 0.014,-0.004 0.023,-0.006 0.035,-0.006 0.035,0 0.054,0.023 0.054,0.113 v 3.543 c 0,0.116 -0.027,0.179 -0.066,0.179 h -0.305 c -0.037,0 -0.06,-0.063 -0.06,-0.179"
         id="Fill-1785"
         inkscape:connector-curvature="0"
         style="fill:#ffffff" />
      <path
         d="m 125.7803,42.4834 c 0,-1.158 -0.133,-1.598 -0.472,-1.598 -0.344,0 -0.472,0.442 -0.472,1.598 0,1.192 0.138,1.636 0.474,1.636 0.333,0 0.47,-0.437 0.47,-1.636 m -1.353,0 c 0,-1.606 0.404,-1.941 0.881,-1.941 0.476,0 0.882,0.327 0.882,1.941 0,1.572 -0.406,1.977 -0.882,1.977 -0.477,0 -0.881,-0.405 -0.881,-1.977"
         id="Fill-1786"
         inkscape:connector-curvature="0"
         style="fill:#ffffff" />
      <path
         d="m 126.9854,44.2441 v -3.07 c 0,-0.054 -0.017,-0.078 -0.035,-0.073 0,0 -0.232,0.058 -0.234,0.058 -0.038,0.004 -0.058,-0.015 -0.058,-0.101 v -0.206 c 0,-0.07 0.027,-0.091 0.06,-0.099 l 0.609,-0.159 c 0.012,-0.004 0.027,-0.006 0.035,-0.006 0.035,0 0.054,0.023 0.054,0.113 v 3.543 c 0,0.116 -0.027,0.179 -0.062,0.179 h -0.305 c -0.039,0 -0.064,-0.063 -0.064,-0.179"
         id="Fill-1787"
         inkscape:connector-curvature="0"
         style="fill:#ffffff" />
      <path
         d="m 119.0039,47.5313 c 0,-1.158 -0.134,-1.597 -0.474,-1.597 -0.342,0 -0.468,0.442 -0.468,1.597 0,1.193 0.137,1.637 0.47,1.637 0.335,0 0.472,-0.437 0.472,-1.637 m -1.354,0 c 0,-1.607 0.404,-1.939 0.88,-1.939 0.478,0 0.884,0.324 0.884,1.939 0,1.574 -0.406,1.977 -0.884,1.977 -0.476,0 -0.88,-0.403 -0.88,-1.977"
         id="Fill-1788"
         inkscape:connector-curvature="0"
         style="fill:#ffffff" />
      <path
         d="m 120.2095,49.293 v -3.071 c 0,-0.054 -0.015,-0.079 -0.038,-0.074 0,0 -0.229,0.06 -0.233,0.06 -0.036,0.006 -0.056,-0.017 -0.056,-0.102 V 45.9 c 0,-0.069 0.027,-0.089 0.06,-0.099 l 0.609,-0.159 c 0.014,-0.002 0.024,-0.005 0.037,-0.005 0.033,0 0.05,0.023 0.05,0.113 v 3.543 c 0,0.115 -0.025,0.179 -0.063,0.179 h -0.304 c -0.04,0 -0.062,-0.064 -0.062,-0.179"
         id="Fill-1789"
         inkscape:connector-curvature="0"
         style="fill:#ffffff" />
      <path
         d="m 121.543,49.293 v -3.071 c 0,-0.054 -0.017,-0.079 -0.039,-0.074 l -0.23,0.06 c -0.038,0.006 -0.06,-0.017 -0.06,-0.102 V 45.9 c 0,-0.069 0.029,-0.089 0.06,-0.099 l 0.611,-0.159 c 0.012,-0.002 0.023,-0.005 0.035,-0.005 0.033,0 0.052,0.023 0.052,0.113 v 3.543 c 0,0.115 -0.027,0.179 -0.064,0.179 h -0.305 c -0.035,0 -0.06,-0.064 -0.06,-0.179"
         id="Fill-1790"
         inkscape:connector-curvature="0"
         style="fill:#ffffff" />
      <path
         d="m 123.9658,47.5313 c 0,-1.158 -0.13,-1.597 -0.472,-1.597 -0.342,0 -0.47,0.442 -0.47,1.597 0,1.193 0.136,1.637 0.47,1.637 0.335,0 0.472,-0.437 0.472,-1.637 m -1.352,0 c 0,-1.607 0.404,-1.939 0.88,-1.939 0.476,0 0.882,0.324 0.882,1.939 0,1.574 -0.406,1.977 -0.882,1.977 -0.476,0 -0.88,-0.403 -0.88,-1.977"
         id="Fill-1791"
         inkscape:connector-curvature="0"
         style="fill:#ffffff" />
      <path
         d="m 125.1714,49.293 v -3.071 c 0,-0.054 -0.015,-0.079 -0.038,-0.074 0,0 -0.227,0.06 -0.232,0.06 -0.037,0.006 -0.06,-0.017 -0.06,-0.102 V 45.9 c 0,-0.069 0.03,-0.089 0.065,-0.099 l 0.606,-0.159 c 0.015,-0.002 0.025,-0.005 0.036,-0.005 0.035,0 0.056,0.023 0.056,0.113 v 3.543 c 0,0.115 -0.029,0.179 -0.067,0.179 h -0.304 c -0.037,0 -0.062,-0.064 -0.062,-0.179"
         id="Fill-1792"
         inkscape:connector-curvature="0"
         style="fill:#ffffff" />
      <path
         d="m 127.5942,47.5313 c 0,-1.158 -0.13,-1.597 -0.472,-1.597 -0.342,0 -0.47,0.442 -0.47,1.597 0,1.193 0.138,1.637 0.472,1.637 0.333,0 0.47,-0.437 0.47,-1.637 m -1.35,0 c 0,-1.607 0.401,-1.939 0.878,-1.939 0.478,0 0.884,0.324 0.884,1.939 0,1.574 -0.406,1.977 -0.884,1.977 -0.477,0 -0.878,-0.403 -0.878,-1.977"
         id="Fill-1793"
         inkscape:connector-curvature="0"
         style="fill:#ffffff" />
      <path
         d="m 128.7993,49.293 v -3.071 c 0,-0.054 -0.014,-0.079 -0.037,-0.074 0,0 -0.228,0.06 -0.23,0.06 -0.039,0.006 -0.058,-0.017 -0.058,-0.102 V 45.9 c 0,-0.069 0.025,-0.089 0.06,-0.099 l 0.609,-0.159 c 0.013,-0.002 0.023,-0.005 0.035,-0.005 0.035,0 0.052,0.023 0.052,0.113 v 3.543 c 0,0.115 -0.027,0.179 -0.064,0.179 h -0.305 c -0.037,0 -0.062,-0.064 -0.062,-0.179"
         id="Fill-1794"
         inkscape:connector-curvature="0"
         style="fill:#ffffff" />
      <path
         d="m 131.2246,47.5313 c 0,-1.158 -0.131,-1.597 -0.472,-1.597 -0.344,0 -0.472,0.442 -0.472,1.597 0,1.193 0.14,1.637 0.472,1.637 0.335,0 0.472,-0.437 0.472,-1.637 m -1.352,0 c 0,-1.607 0.401,-1.939 0.88,-1.939 0.476,0 0.884,0.324 0.884,1.939 0,1.574 -0.408,1.977 -0.884,1.977 -0.479,0 -0.88,-0.403 -0.88,-1.977"
         id="Fill-1795"
         inkscape:connector-curvature="0"
         style="fill:#ffffff" />
      <path
         d="m 132.4316,49.293 v -3.071 c 0,-0.054 -0.017,-0.079 -0.037,-0.074 0,0 -0.23,0.06 -0.234,0.06 -0.038,0.006 -0.058,-0.017 -0.058,-0.102 V 45.9 c 0,-0.069 0.027,-0.089 0.062,-0.099 l 0.607,-0.159 c 0.015,-0.002 0.027,-0.005 0.037,-0.005 0.033,0 0.054,0.023 0.054,0.113 v 3.543 c 0,0.115 -0.027,0.179 -0.064,0.179 h -0.305 c -0.039,0 -0.062,-0.064 -0.062,-0.179"
         id="Fill-1796"
         inkscape:connector-curvature="0"
         style="fill:#ffffff" />
      <path
         d="m 118.335,52.5801 c 0,-1.157 -0.128,-1.598 -0.47,-1.598 -0.344,0 -0.472,0.442 -0.472,1.598 0,1.192 0.139,1.636 0.472,1.636 0.336,0 0.47,-0.436 0.47,-1.636 m -1.35,0 c 0,-1.606 0.404,-1.94 0.88,-1.94 0.476,0 0.882,0.325 0.882,1.94 0,1.575 -0.406,1.977 -0.882,1.977 -0.476,0 -0.88,-0.402 -0.88,-1.977"
         id="Fill-1797"
         inkscape:connector-curvature="0"
         style="fill:#ffffff" />
      <path
         d="m 120.6318,52.5801 c 0,-1.157 -0.13,-1.598 -0.472,-1.598 -0.342,0 -0.47,0.442 -0.47,1.598 0,1.192 0.138,1.636 0.474,1.636 0.333,0 0.468,-0.436 0.468,-1.636 m -1.35,0 c 0,-1.606 0.401,-1.94 0.878,-1.94 0.478,0 0.886,0.325 0.886,1.94 0,1.575 -0.408,1.977 -0.886,1.977 -0.477,0 -0.878,-0.402 -0.878,-1.977"
         id="Fill-1798"
         inkscape:connector-curvature="0"
         style="fill:#ffffff" />
      <path
         d="m 121.8413,54.3408 v -3.07 c 0,-0.054 -0.017,-0.079 -0.038,-0.073 0,0 -0.232,0.058 -0.234,0.058 -0.037,0.007 -0.058,-0.016 -0.058,-0.103 v -0.204 c 0,-0.07 0.028,-0.09 0.06,-0.099 l 0.609,-0.159 c 0.017,-0.002 0.025,-0.006 0.035,-0.006 0.036,0 0.055,0.023 0.055,0.114 v 3.542 c 0,0.116 -0.027,0.179 -0.065,0.179 h -0.304 c -0.038,0 -0.06,-0.063 -0.06,-0.179"
         id="Fill-1799"
         inkscape:connector-curvature="0"
         style="fill:#ffffff" />
      <path
         d="m 123.1729,54.3408 v -3.07 c 0,-0.054 -0.017,-0.079 -0.04,-0.073 0,0 -0.227,0.058 -0.229,0.058 -0.038,0.007 -0.058,-0.016 -0.058,-0.103 v -0.204 c 0,-0.07 0.027,-0.09 0.06,-0.099 l 0.609,-0.159 c 0.012,-0.002 0.025,-0.006 0.035,-0.006 0.035,0 0.054,0.023 0.054,0.114 v 3.542 c 0,0.116 -0.029,0.179 -0.064,0.179 h -0.307 c -0.035,0 -0.06,-0.063 -0.06,-0.179"
         id="Fill-1800"
         inkscape:connector-curvature="0"
         style="fill:#ffffff" />
      <path
         d="m 125.5938,52.5801 c 0,-1.157 -0.13,-1.598 -0.472,-1.598 -0.342,0 -0.47,0.442 -0.47,1.598 0,1.192 0.141,1.636 0.474,1.636 0.333,0 0.468,-0.436 0.468,-1.636 m -1.35,0 c 0,-1.606 0.404,-1.94 0.878,-1.94 0.478,0 0.886,0.325 0.886,1.94 0,1.575 -0.408,1.977 -0.886,1.977 -0.474,0 -0.878,-0.402 -0.878,-1.977"
         id="Fill-1801"
         inkscape:connector-curvature="0"
         style="fill:#ffffff" />
      <path
         d="m 126.8032,54.3408 v -3.07 c 0,-0.054 -0.017,-0.079 -0.038,-0.073 0,0 -0.232,0.058 -0.233,0.058 -0.04,0.007 -0.059,-0.016 -0.059,-0.103 v -0.204 c 0,-0.07 0.028,-0.09 0.06,-0.099 l 0.609,-0.159 c 0.015,-0.002 0.025,-0.006 0.035,-0.006 0.036,0 0.055,0.023 0.055,0.114 v 3.542 c 0,0.116 -0.027,0.179 -0.065,0.179 h -0.304 c -0.038,0 -0.06,-0.063 -0.06,-0.179"
         id="Fill-1802"
         inkscape:connector-curvature="0"
         style="fill:#ffffff" />
      <path
         d="m 128.1348,54.3408 v -3.07 c 0,-0.054 -0.015,-0.079 -0.038,-0.073 0,0 -0.229,0.058 -0.232,0.058 -0.039,0.007 -0.057,-0.016 -0.057,-0.103 v -0.204 c 0,-0.07 0.027,-0.09 0.06,-0.099 l 0.609,-0.159 c 0.012,-0.002 0.024,-0.006 0.033,-0.006 0.037,0 0.056,0.023 0.056,0.114 v 3.542 c 0,0.116 -0.029,0.179 -0.065,0.179 h -0.304 c -0.037,0 -0.062,-0.063 -0.062,-0.179"
         id="Fill-1803"
         inkscape:connector-curvature="0"
         style="fill:#ffffff" />
      <path
         d="m 130.5557,52.5801 c 0,-1.157 -0.13,-1.598 -0.472,-1.598 -0.342,0 -0.468,0.442 -0.468,1.598 0,1.192 0.138,1.636 0.472,1.636 0.333,0 0.468,-0.436 0.468,-1.636 m -1.351,0 c 0,-1.606 0.402,-1.94 0.879,-1.94 0.48,0 0.886,0.325 0.886,1.94 0,1.575 -0.406,1.977 -0.886,1.977 -0.477,0 -0.879,-0.402 -0.879,-1.977"
         id="Fill-1804"
         inkscape:connector-curvature="0"
         style="fill:#ffffff" />
      <path
         d="m 131.7651,54.3408 v -3.07 c 0,-0.054 -0.017,-0.079 -0.038,-0.073 0,0 -0.232,0.058 -0.233,0.058 -0.038,0.007 -0.059,-0.016 -0.059,-0.103 v -0.204 c 0,-0.07 0.027,-0.09 0.06,-0.099 l 0.609,-0.159 c 0.017,-0.002 0.025,-0.006 0.038,-0.006 0.033,0 0.052,0.023 0.052,0.114 v 3.542 c 0,0.116 -0.028,0.179 -0.065,0.179 h -0.304 c -0.038,0 -0.06,-0.063 -0.06,-0.179"
         id="Fill-1805"
         inkscape:connector-curvature="0"
         style="fill:#ffffff" />
      <path
         d="m 133.0967,54.3408 v -3.07 c 0,-0.054 -0.015,-0.079 -0.038,-0.073 0,0 -0.229,0.058 -0.232,0.058 -0.037,0.007 -0.057,-0.016 -0.057,-0.103 v -0.204 c 0,-0.07 0.027,-0.09 0.06,-0.099 l 0.609,-0.159 c 0.012,-0.002 0.024,-0.006 0.035,-0.006 0.035,0 0.054,0.023 0.054,0.114 v 3.542 c 0,0.116 -0.03,0.179 -0.065,0.179 h -0.304 c -0.037,0 -0.062,-0.063 -0.062,-0.179"
         id="Fill-1806"
         inkscape:connector-curvature="0"
         style="fill:#ffffff" />
      <path
         d="m 123.9639,57.6289 c 0,-1.157 -0.132,-1.597 -0.472,-1.597 -0.342,0 -0.47,0.441 -0.47,1.597 0,1.192 0.138,1.637 0.472,1.637 0.333,0 0.47,-0.438 0.47,-1.637 m -1.35,0 c 0,-1.606 0.402,-1.941 0.878,-1.941 0.476,0 0.882,0.325 0.882,1.941 0,1.574 -0.406,1.977 -0.882,1.977 -0.476,0 -0.878,-0.403 -0.878,-1.977"
         id="Fill-1807"
         inkscape:connector-curvature="0"
         style="fill:#ffffff" />
      <path
         d="m 125.1714,59.3896 v -3.071 c 0,-0.053 -0.017,-0.078 -0.038,-0.073 l -0.232,0.059 c -0.037,0.007 -0.06,-0.017 -0.06,-0.102 v -0.205 c 0,-0.07 0.03,-0.09 0.06,-0.098 l 0.611,-0.16 c 0.015,-0.003 0.025,-0.006 0.036,-0.006 0.035,0 0.052,0.023 0.052,0.114 v 3.542 c 0,0.115 -0.028,0.179 -0.063,0.179 h -0.304 c -0.037,0 -0.062,-0.064 -0.062,-0.179"
         id="Fill-1808"
         inkscape:connector-curvature="0"
         style="fill:#ffffff" />
      <path
         d="m 127.5942,57.6289 c 0,-1.157 -0.13,-1.597 -0.474,-1.597 -0.342,0 -0.468,0.441 -0.468,1.597 0,1.192 0.136,1.637 0.472,1.637 0.333,0 0.47,-0.438 0.47,-1.637 m -1.353,0 c 0,-1.606 0.404,-1.941 0.879,-1.941 0.48,0 0.884,0.325 0.884,1.941 0,1.574 -0.404,1.977 -0.884,1.977 -0.475,0 -0.879,-0.403 -0.879,-1.977"
         id="Fill-1809"
         inkscape:connector-curvature="0"
         style="fill:#ffffff" />
      <polygon
         id="Fill-1810"
         points="100.923,77.671 102.836,77.671 102.836,66.607 100.923,66.607 "
         style="fill:#ffffff" />
      <polygon
         id="Fill-1811"
         points="103.524,77.671 105.438,77.671 105.438,67.781 103.524,67.781 "
         style="fill:#ffc800" />
      <polygon
         id="Fill-1812"
         points="106.123,77.671 108.037,77.671 108.037,70.868 106.123,70.868 "
         style="fill:#007896" />
      <polygon
         id="Fill-1813"
         points="113.928,22.59 123.8,22.59 123.8,21.649 113.928,21.649 "
         style="fill:#ffffff" />
      <polygon
         id="Fill-1814"
         points="112.911,24.977 124.819,24.977 124.819,24.037 112.911,24.037 "
         style="fill:#ffffff" />
      <polygon
         id="Fill-1815"
         points="112.911,27.365 124.819,27.365 124.819,26.425 112.911,26.425 "
         style="fill:#ffffff" />
      <polygon
         id="Fill-1816"
         points="113.928,29.753 123.8,29.753 123.8,28.813 113.928,28.813 "
         style="fill:#ffffff" />
      <polygon
         id="Fill-1817"
         points="102.98,53.925 107.124,53.925 107.124,52.985 102.98,52.985 "
         style="fill:#ffffff" />
      <polygon
         id="Fill-1818"
         points="97.486,53.925 102.04,53.925 102.04,52.985 97.486,52.985 "
         style="fill:#ffffff" />
      <polygon
         id="Fill-1819"
         points="94.725,53.925 96.545,53.925 96.545,52.985 94.725,52.985 "
         style="fill:#ffffff" />
      <polygon
         id="Fill-1820"
         points="100.895,56.04 107.124,56.04 107.124,55.101 100.895,55.101 "
         style="fill:#ffffff" />
      <polygon
         id="Fill-1821"
         points="94.725,56.04 99.954,56.04 99.954,55.101 94.725,55.101 "
         style="fill:#ffffff" />
      <polygon
         id="Fill-1822"
         points="103.657,58.155 107.124,58.155 107.124,57.214 103.657,57.214 "
         style="fill:#ffffff" />
      <polygon
         id="Fill-1823"
         points="97.162,58.155 102.714,58.155 102.714,57.214 97.162,57.214 "
         style="fill:#ffffff" />
      <polygon
         id="Fill-1824"
         points="94.725,58.155 96.222,58.155 96.222,57.214 94.725,57.214 "
         style="fill:#ffffff" />
      <polygon
         id="Fill-1825"
         points="146.7206,53.6558 148.2456,56.7468 150.8816,52.9378 151.4616,53.3398 148.1416,58.1328 146.6136,55.0308 144.7646,57.6438 144.1886,57.2358 "
         style="fill:#ffffff" />
      <path
         d="m 152.3828,51.3896 c -0.265,1.034 -0.449,2.417 -0.337,3.432 l -1.032,-1.453 -1.725,-0.457 c 0.992,-0.251 2.22,-0.911 3.094,-1.522"
         id="Fill-1826"
         inkscape:connector-curvature="0"
         style="fill:#ffffff" />
      <path
         d="m 131.4756,92.3203 c 0,3.253 -2.637,5.89 -5.891,5.89 -3.252,0 -5.888,-2.637 -5.888,-5.89 0,-3.252 2.636,-5.889 5.888,-5.889 3.254,0 5.891,2.637 5.891,5.889"
         id="Fill-1827"
         inkscape:connector-curvature="0"
         style="fill:#0082a0" />
      <path
         d="m 220.917,89.0703 c 0,2.882 -2.336,5.217 -5.217,5.217 -2.881,0 -5.217,-2.335 -5.217,-5.217 0,-2.881 2.336,-5.217 5.217,-5.217 2.881,0 5.217,2.336 5.217,5.217"
         id="Fill-1828"
         inkscape:connector-curvature="0"
         style="fill:#007896" />
      <path
         d="m 124.002,98.8281 c 0,-1.248 -0.141,-1.72 -0.508,-1.72 -0.368,0 -0.506,0.475 -0.506,1.72 0,1.282 0.149,1.76 0.509,1.76 0.359,0 0.505,-0.469 0.505,-1.76 m -1.456,0 c 0,-1.73 0.435,-2.09 0.948,-2.09 0.514,0 0.951,0.351 0.951,2.09 0,1.694 -0.437,2.128 -0.951,2.128 -0.513,0 -0.948,-0.434 -0.948,-2.128"
         id="Fill-1829"
         inkscape:connector-curvature="0"
         style="fill:#ffffff" />
      <path
         d="m 125.3027,100.7236 v -3.307 c 0,-0.058 -0.018,-0.084 -0.041,-0.078 0,0 -0.247,0.063 -0.25,0.063 -0.041,0.007 -0.064,-0.017 -0.064,-0.109 v -0.22 c 0,-0.076 0.03,-0.099 0.067,-0.108 l 0.656,-0.173 c 0.014,-0.003 0.026,-0.005 0.037,-0.005 0.037,0 0.057,0.026 0.057,0.121 v 3.816 c 0,0.124 -0.027,0.192 -0.068,0.192 h -0.329 c -0.039,0 -0.065,-0.068 -0.065,-0.192"
         id="Fill-1830"
         inkscape:connector-curvature="0"
         style="fill:#ffffff" />
      <path
         d="m 126.7358,100.7236 v -3.307 c 0,-0.058 -0.016,-0.084 -0.04,-0.078 0,0 -0.247,0.063 -0.249,0.063 -0.04,0.007 -0.063,-0.017 -0.063,-0.109 v -0.22 c 0,-0.076 0.028,-0.099 0.065,-0.108 l 0.656,-0.173 c 0.014,-0.003 0.026,-0.005 0.039,-0.005 0.036,0 0.056,0.026 0.056,0.121 v 3.816 c 0,0.124 -0.029,0.192 -0.069,0.192 h -0.328 c -0.04,0 -0.067,-0.068 -0.067,-0.192"
         id="Fill-1831"
         inkscape:connector-curvature="0"
         style="fill:#ffffff" />
      <path
         d="m 129.3442,98.8281 c 0,-1.248 -0.141,-1.72 -0.508,-1.72 -0.368,0 -0.506,0.475 -0.506,1.72 0,1.282 0.149,1.76 0.509,1.76 0.36,0 0.505,-0.469 0.505,-1.76 m -1.454,0 c 0,-1.73 0.434,-2.09 0.946,-2.09 0.515,0 0.953,0.351 0.953,2.09 0,1.694 -0.438,2.128 -0.953,2.128 -0.512,0 -0.946,-0.434 -0.946,-2.128"
         id="Fill-1832"
         inkscape:connector-curvature="0"
         style="fill:#ffffff" />
      <path
         d="m 130.645,100.7236 v -3.307 c 0,-0.058 -0.017,-0.084 -0.04,-0.078 0,0 -0.248,0.063 -0.251,0.063 -0.04,0.007 -0.063,-0.017 -0.063,-0.109 v -0.22 c 0,-0.076 0.029,-0.099 0.066,-0.108 l 0.656,-0.173 c 0.016,-0.003 0.027,-0.005 0.038,-0.005 0.037,0 0.057,0.026 0.057,0.121 v 3.816 c 0,0.124 -0.028,0.192 -0.068,0.192 h -0.33 c -0.039,0 -0.065,-0.068 -0.065,-0.192"
         id="Fill-1833"
         inkscape:connector-curvature="0"
         style="fill:#ffffff" />
      <path
         d="m 133.2524,98.8281 c 0,-1.248 -0.141,-1.72 -0.508,-1.72 -0.368,0 -0.506,0.475 -0.506,1.72 0,1.282 0.149,1.76 0.509,1.76 0.36,0 0.505,-0.469 0.505,-1.76 m -1.454,0 c 0,-1.73 0.434,-2.09 0.946,-2.09 0.515,0 0.952,0.351 0.952,2.09 0,1.694 -0.437,2.128 -0.952,2.128 -0.512,0 -0.946,-0.434 -0.946,-2.128"
         id="Fill-1834"
         inkscape:connector-curvature="0"
         style="fill:#ffffff" />
      <path
         d="m 134.5532,100.7236 v -3.307 c 0,-0.058 -0.017,-0.084 -0.04,-0.078 0,0 -0.248,0.063 -0.251,0.063 -0.039,0.007 -0.063,-0.017 -0.063,-0.109 v -0.22 c 0,-0.076 0.029,-0.099 0.066,-0.108 l 0.656,-0.173 c 0.015,-0.003 0.027,-0.005 0.038,-0.005 0.037,0 0.057,0.026 0.057,0.121 v 3.816 c 0,0.124 -0.028,0.192 -0.068,0.192 h -0.328 c -0.04,0 -0.067,-0.068 -0.067,-0.192"
         id="Fill-1835"
         inkscape:connector-curvature="0"
         style="fill:#ffffff" />
      <path
         d="m 137.1621,98.8281 c 0,-1.248 -0.141,-1.72 -0.51,-1.72 -0.368,0 -0.506,0.475 -0.506,1.72 0,1.282 0.149,1.76 0.509,1.76 0.361,0 0.507,-0.469 0.507,-1.76 m -1.456,0 c 0,-1.73 0.435,-2.09 0.946,-2.09 0.515,0 0.953,0.351 0.953,2.09 0,1.694 -0.438,2.128 -0.953,2.128 -0.511,0 -0.946,-0.434 -0.946,-2.128"
         id="Fill-1836"
         inkscape:connector-curvature="0"
         style="fill:#ffffff" />
      <path
         d="m 139.6343,98.8281 c 0,-1.248 -0.141,-1.72 -0.508,-1.72 -0.369,0 -0.506,0.475 -0.506,1.72 0,1.282 0.149,1.76 0.509,1.76 0.36,0 0.505,-0.469 0.505,-1.76 m -1.454,0 c 0,-1.73 0.434,-2.09 0.946,-2.09 0.515,0 0.951,0.351 0.951,2.09 0,1.694 -0.436,2.128 -0.951,2.128 -0.512,0 -0.946,-0.434 -0.946,-2.128"
         id="Fill-1837"
         inkscape:connector-curvature="0"
         style="fill:#ffffff" />
      <path
         d="m 122.8291,106.2197 v -3.308 c 0,-0.056 -0.019,-0.083 -0.041,-0.076 0,0 -0.246,0.063 -0.249,0.063 -0.041,0.006 -0.064,-0.018 -0.064,-0.11 v -0.221 c 0,-0.074 0.029,-0.097 0.067,-0.106 l 0.655,-0.173 c 0.014,-0.003 0.026,-0.005 0.037,-0.005 0.037,0 0.058,0.025 0.058,0.121 v 3.815 c 0,0.124 -0.028,0.193 -0.069,0.193 h -0.327 c -0.042,0 -0.067,-0.069 -0.067,-0.193"
         id="Fill-1838"
         inkscape:connector-curvature="0"
         style="fill:#ffffff" />
      <path
         d="m 125.4365,104.3252 c 0,-1.248 -0.141,-1.72 -0.508,-1.72 -0.368,0 -0.508,0.475 -0.508,1.72 0,1.282 0.151,1.76 0.51,1.76 0.36,0 0.506,-0.47 0.506,-1.76 m -1.454,0 c 0,-1.731 0.434,-2.092 0.946,-2.092 0.515,0 0.951,0.353 0.951,2.092 0,1.693 -0.436,2.128 -0.951,2.128 -0.512,0 -0.946,-0.435 -0.946,-2.128"
         id="Fill-1839"
         inkscape:connector-curvature="0"
         style="fill:#ffffff" />
      <path
         d="m 127.9102,104.3252 c 0,-1.248 -0.141,-1.72 -0.51,-1.72 -0.368,0 -0.505,0.475 -0.505,1.72 0,1.282 0.149,1.76 0.508,1.76 0.361,0 0.507,-0.47 0.507,-1.76 m -1.456,0 c 0,-1.731 0.435,-2.092 0.946,-2.092 0.516,0 0.953,0.353 0.953,2.092 0,1.693 -0.437,2.128 -0.953,2.128 -0.511,0 -0.946,-0.435 -0.946,-2.128"
         id="Fill-1840"
         inkscape:connector-curvature="0"
         style="fill:#ffffff" />
      <path
         d="m 129.2095,106.2197 v -3.308 c 0,-0.056 -0.017,-0.083 -0.04,-0.076 0,0 -0.248,0.063 -0.25,0.063 -0.04,0.006 -0.064,-0.018 -0.064,-0.11 v -0.221 c 0,-0.074 0.029,-0.097 0.066,-0.106 l 0.656,-0.173 c 0.015,-0.003 0.027,-0.005 0.038,-0.005 0.037,0 0.058,0.025 0.058,0.121 v 3.815 c 0,0.124 -0.03,0.193 -0.069,0.193 h -0.328 c -0.04,0 -0.067,-0.069 -0.067,-0.193"
         id="Fill-1841"
         inkscape:connector-curvature="0"
         style="fill:#ffffff" />
      <path
         d="m 131.8184,104.3252 c 0,-1.248 -0.141,-1.72 -0.509,-1.72 -0.369,0 -0.507,0.475 -0.507,1.72 0,1.282 0.15,1.76 0.509,1.76 0.361,0 0.507,-0.47 0.507,-1.76 m -1.454,0 c 0,-1.731 0.434,-2.092 0.945,-2.092 0.514,0 0.952,0.353 0.952,2.092 0,1.693 -0.438,2.128 -0.952,2.128 -0.511,0 -0.945,-0.435 -0.945,-2.128"
         id="Fill-1842"
         inkscape:connector-curvature="0"
         style="fill:#ffffff" />
      <path
         d="m 133.1177,106.2197 v -3.308 c 0,-0.056 -0.017,-0.083 -0.04,-0.076 0,0 -0.247,0.063 -0.25,0.063 -0.04,0.006 -0.063,-0.018 -0.063,-0.11 v -0.221 c 0,-0.074 0.028,-0.097 0.066,-0.106 l 0.655,-0.173 c 0.015,-0.003 0.027,-0.005 0.038,-0.005 0.037,0 0.058,0.025 0.058,0.121 v 3.815 c 0,0.124 -0.03,0.193 -0.069,0.193 h -0.329 c -0.039,0 -0.066,-0.069 -0.066,-0.193"
         id="Fill-1843"
         inkscape:connector-curvature="0"
         style="fill:#ffffff" />
      <path
         d="m 135.7261,104.3252 c 0,-1.248 -0.141,-1.72 -0.508,-1.72 -0.368,0 -0.507,0.475 -0.507,1.72 0,1.282 0.15,1.76 0.51,1.76 0.359,0 0.505,-0.47 0.505,-1.76 m -1.454,0 c 0,-1.731 0.434,-2.092 0.946,-2.092 0.514,0 0.951,0.353 0.951,2.092 0,1.693 -0.437,2.128 -0.951,2.128 -0.512,0 -0.946,-0.435 -0.946,-2.128"
         id="Fill-1844"
         inkscape:connector-curvature="0"
         style="fill:#ffffff" />
      <path
         d="m 137.0254,106.2197 v -3.308 c 0,-0.056 -0.016,-0.083 -0.04,-0.076 0,0 -0.247,0.063 -0.25,0.063 -0.039,0.006 -0.062,-0.018 -0.062,-0.11 v -0.221 c 0,-0.074 0.028,-0.097 0.065,-0.106 l 0.655,-0.173 c 0.016,-0.003 0.027,-0.005 0.038,-0.005 0.039,0 0.058,0.025 0.058,0.121 v 3.815 c 0,0.124 -0.029,0.193 -0.069,0.193 h -0.328 c -0.04,0 -0.067,-0.069 -0.067,-0.193"
         id="Fill-1845"
         inkscape:connector-curvature="0"
         style="fill:#ffffff" />
      <path
         d="m 139.6343,104.3252 c 0,-1.248 -0.141,-1.72 -0.508,-1.72 -0.369,0 -0.506,0.475 -0.506,1.72 0,1.282 0.149,1.76 0.509,1.76 0.359,0 0.505,-0.47 0.505,-1.76 m -1.456,0 c 0,-1.731 0.435,-2.092 0.948,-2.092 0.513,0 0.951,0.353 0.951,2.092 0,1.693 -0.438,2.128 -0.951,2.128 -0.513,0 -0.948,-0.435 -0.948,-2.128"
         id="Fill-1846"
         inkscape:connector-curvature="0"
         style="fill:#ffffff" />
      <path
         d="m 124.002,109.7656 c 0,-1.248 -0.141,-1.72 -0.508,-1.72 -0.368,0 -0.506,0.475 -0.506,1.72 0,1.282 0.149,1.76 0.509,1.76 0.359,0 0.505,-0.469 0.505,-1.76 m -1.456,0 c 0,-1.73 0.435,-2.091 0.948,-2.091 0.514,0 0.951,0.352 0.951,2.091 0,1.693 -0.437,2.128 -0.951,2.128 -0.513,0 -0.948,-0.435 -0.948,-2.128"
         id="Fill-1847"
         inkscape:connector-curvature="0"
         style="fill:#ffffff" />
      <path
         d="m 125.3027,111.6611 v -3.308 c 0,-0.057 -0.018,-0.083 -0.041,-0.077 0,0 -0.247,0.064 -0.25,0.064 -0.041,0.005 -0.064,-0.019 -0.064,-0.11 v -0.221 c 0,-0.076 0.03,-0.098 0.067,-0.107 l 0.656,-0.173 c 0.014,-0.002 0.026,-0.006 0.037,-0.006 0.037,0 0.057,0.027 0.057,0.122 v 3.816 c 0,0.123 -0.027,0.192 -0.068,0.192 h -0.329 c -0.039,0 -0.065,-0.069 -0.065,-0.192"
         id="Fill-1848"
         inkscape:connector-curvature="0"
         style="fill:#ffffff" />
      <path
         d="m 126.7358,111.6611 v -3.308 c 0,-0.057 -0.016,-0.083 -0.04,-0.077 0,0 -0.247,0.064 -0.249,0.064 -0.04,0.005 -0.063,-0.019 -0.063,-0.11 v -0.221 c 0,-0.076 0.028,-0.098 0.065,-0.107 l 0.656,-0.173 c 0.014,-0.002 0.026,-0.006 0.039,-0.006 0.036,0 0.056,0.027 0.056,0.122 v 3.816 c 0,0.123 -0.029,0.192 -0.069,0.192 h -0.328 c -0.04,0 -0.067,-0.069 -0.067,-0.192"
         id="Fill-1849"
         inkscape:connector-curvature="0"
         style="fill:#ffffff" />
      <path
         d="m 129.3442,109.7656 c 0,-1.248 -0.141,-1.72 -0.508,-1.72 -0.368,0 -0.506,0.475 -0.506,1.72 0,1.282 0.149,1.76 0.509,1.76 0.36,0 0.505,-0.469 0.505,-1.76 m -1.454,0 c 0,-1.73 0.434,-2.091 0.946,-2.091 0.515,0 0.953,0.352 0.953,2.091 0,1.693 -0.438,2.128 -0.953,2.128 -0.512,0 -0.946,-0.435 -0.946,-2.128"
         id="Fill-1850"
         inkscape:connector-curvature="0"
         style="fill:#ffffff" />
      <path
         d="m 130.645,111.6611 v -3.308 c 0,-0.057 -0.017,-0.083 -0.04,-0.077 0,0 -0.248,0.064 -0.251,0.064 -0.04,0.005 -0.063,-0.019 -0.063,-0.11 v -0.221 c 0,-0.076 0.029,-0.098 0.066,-0.107 l 0.656,-0.173 c 0.016,-0.002 0.027,-0.006 0.038,-0.006 0.037,0 0.057,0.027 0.057,0.122 v 3.816 c 0,0.123 -0.028,0.192 -0.068,0.192 h -0.33 c -0.039,0 -0.065,-0.069 -0.065,-0.192"
         id="Fill-1851"
         inkscape:connector-curvature="0"
         style="fill:#ffffff" />
      <path
         d="m 133.2524,109.7656 c 0,-1.248 -0.141,-1.72 -0.508,-1.72 -0.368,0 -0.506,0.475 -0.506,1.72 0,1.282 0.149,1.76 0.509,1.76 0.36,0 0.505,-0.469 0.505,-1.76 m -1.454,0 c 0,-1.73 0.434,-2.091 0.946,-2.091 0.515,0 0.952,0.352 0.952,2.091 0,1.693 -0.437,2.128 -0.952,2.128 -0.512,0 -0.946,-0.435 -0.946,-2.128"
         id="Fill-1852"
         inkscape:connector-curvature="0"
         style="fill:#ffffff" />
      <path
         d="m 134.5532,111.6611 v -3.308 c 0,-0.057 -0.017,-0.083 -0.04,-0.077 0,0 -0.248,0.064 -0.251,0.064 -0.039,0.005 -0.063,-0.019 -0.063,-0.11 v -0.221 c 0,-0.076 0.029,-0.098 0.066,-0.107 l 0.656,-0.173 c 0.015,-0.002 0.027,-0.006 0.038,-0.006 0.037,0 0.057,0.027 0.057,0.122 v 3.816 c 0,0.123 -0.028,0.192 -0.068,0.192 h -0.328 c -0.04,0 -0.067,-0.069 -0.067,-0.192"
         id="Fill-1853"
         inkscape:connector-curvature="0"
         style="fill:#ffffff" />
      <path
         d="m 137.1621,109.7656 c 0,-1.248 -0.141,-1.72 -0.51,-1.72 -0.368,0 -0.506,0.475 -0.506,1.72 0,1.282 0.149,1.76 0.509,1.76 0.359,0 0.507,-0.469 0.507,-1.76 m -1.456,0 c 0,-1.73 0.435,-2.091 0.946,-2.091 0.514,0 0.951,0.352 0.951,2.091 0,1.693 -0.437,2.128 -0.951,2.128 -0.511,0 -0.946,-0.435 -0.946,-2.128"
         id="Fill-1854"
         inkscape:connector-curvature="0"
         style="fill:#ffffff" />
      <path
         d="m 139.6343,109.7656 c 0,-1.248 -0.141,-1.72 -0.508,-1.72 -0.369,0 -0.506,0.475 -0.506,1.72 0,1.282 0.149,1.76 0.509,1.76 0.359,0 0.505,-0.469 0.505,-1.76 m -1.456,0 c 0,-1.73 0.435,-2.091 0.948,-2.091 0.513,0 0.951,0.352 0.951,2.091 0,1.693 -0.438,2.128 -0.951,2.128 -0.513,0 -0.948,-0.435 -0.948,-2.128"
         id="Fill-1855"
         inkscape:connector-curvature="0"
         style="fill:#ffffff" />
      <path
         d="m 132.1348,132.9785 c 0,2.076 -1.683,3.759 -3.759,3.759 h -30.634 c -2.076,0 -3.759,-1.683 -3.759,-3.759 v -21.596 c 0,-2.076 1.683,-3.759 3.759,-3.759 h 30.634 c 2.076,0 3.759,1.683 3.759,3.759 z"
         id="Fill-1856"
         inkscape:connector-curvature="0"
         style="fill:#006482" />
      <path
         d="m 132.1348,131.8281 c 0,2.076 -1.683,3.759 -3.759,3.759 h -30.635 c -2.075,0 -3.758,-1.683 -3.758,-3.759 v -21.597 c 0,-2.076 1.683,-3.758 3.758,-3.758 h 30.635 c 2.076,0 3.759,1.682 3.759,3.758 z"
         id="Fill-1857"
         inkscape:connector-curvature="0"
         style="fill:#007896" />
      <path
         d="m 132.1348,117.7314 c 0,2.076 -1.683,3.759 -3.759,3.759 h -30.636 c -2.076,0 -3.759,-1.683 -3.759,-3.759 v -7.5 c 0,-2.076 1.683,-3.759 3.759,-3.759 h 30.636 c 2.076,0 3.759,1.683 3.759,3.759 z"
         id="Fill-1858"
         inkscape:connector-curvature="0"
         style="fill:#0082a0" />
      <path
         d="m 128.376,135.5859 c 2.073,0 3.759,-1.682 3.759,-3.758 v -21.597 c 0,-2.076 -1.686,-3.758 -3.759,-3.758 h -15.318 v 29.113 z"
         id="Fill-1859"
         inkscape:connector-curvature="0"
         style="fill:#0082a0" />
      <path
         d="M 128.376,121.4893 H 97.741 c -2.077,0 -3.761,-1.684 -3.761,-3.758 v 1.065 c 0,2.076 1.684,3.76 3.761,3.76 h 30.635 c 2.073,0 3.759,-1.684 3.759,-3.76 v -1.065 c 0,2.074 -1.686,3.758 -3.759,3.758"
         id="Fill-1860"
         inkscape:connector-curvature="0"
         style="fill:#006482" />
      <path
         d="m 128.376,121.4893 c 2.073,0 3.759,-1.684 3.759,-3.758 v -7.501 c 0,-2.075 -1.686,-3.758 -3.759,-3.758 h -15.318 v 15.017 z"
         id="Fill-1861"
         inkscape:connector-curvature="0"
         style="fill:#008caa" />
      <polygon
         id="Fill-1862"
         points="109.91,123.997 116.205,123.997 116.205,119.612 109.91,119.612 "
         style="fill:#ffc800" />
      <polygon
         id="Fill-1863"
         points="113.091,123.997 116.205,123.997 116.205,119.612 113.091,119.612 "
         style="fill:#ffdc00" />
      <path
         d="m 106.0454,106.4736 c 0.145,-1.867 1.704,-3.343 3.607,-3.343 h 6.809 c 1.904,0 3.464,1.476 3.608,3.343 h 3.106 c -0.149,-3.577 -3.097,-6.443 -6.714,-6.443 h -6.809 c -3.615,0 -6.562,2.866 -6.711,6.443 z"
         id="Fill-1864"
         inkscape:connector-curvature="0"
         style="fill:#006e8c" />
      <path
         d="m 96.9912,121.8418 c -0.061,0.047 -0.132,0.137 -0.243,0.21 -0.206,0.171 -0.515,0.347 -0.836,0.49 -0.328,0.132 -0.672,0.213 -0.938,0.244 -0.129,0.024 -0.242,0.013 -0.319,0.024 -0.078,0.005 -0.122,0.008 -0.122,0.008 0,0 -0.044,-0.003 -0.121,-0.008 -0.078,-0.011 -0.192,0 -0.321,-0.024 -0.266,-0.031 -0.61,-0.112 -0.937,-0.244 -0.323,-0.143 -0.631,-0.319 -0.836,-0.49 -0.111,-0.073 -0.181,-0.163 -0.244,-0.21 -0.056,-0.051 -0.09,-0.081 -0.09,-0.081 0,0 -0.03,-0.032 -0.081,-0.091 -0.047,-0.062 -0.137,-0.132 -0.209,-0.243 -0.17,-0.205 -0.348,-0.514 -0.491,-0.836 -0.132,-0.327 -0.212,-0.672 -0.243,-0.935 -0.024,-0.131 -0.014,-0.245 -0.024,-0.322 -0.005,-0.078 -0.009,-0.122 -0.009,-0.122 0,0 0.004,-0.044 0.009,-0.122 0.01,-0.076 0,-0.19 0.024,-0.32 0.031,-0.264 0.111,-0.609 0.243,-0.937 0.143,-0.32 0.321,-0.63 0.491,-0.835 0.072,-0.112 0.162,-0.182 0.209,-0.244 0.051,-0.057 0.081,-0.091 0.081,-0.091 0,0 0.034,-0.029 0.09,-0.081 0.063,-0.047 0.133,-0.136 0.244,-0.209 0.205,-0.172 0.513,-0.347 0.836,-0.492 0.327,-0.131 0.671,-0.21 0.937,-0.242 0.129,-0.026 0.243,-0.015 0.321,-0.024 0.077,-0.004 0.121,-0.008 0.121,-0.008 0,0 0.044,0.004 0.122,0.008 0.077,0.009 0.19,-0.002 0.319,0.024 0.266,0.032 0.61,0.111 0.938,0.242 0.321,0.145 0.63,0.32 0.836,0.492 0.111,0.073 0.182,0.162 0.243,0.209 0.058,0.052 0.091,0.081 0.091,0.081 0,0 0.028,0.034 0.079,0.091 0.05,0.062 0.14,0.132 0.21,0.244 0.172,0.205 0.349,0.515 0.492,0.835 0.132,0.328 0.211,0.673 0.244,0.937 0.024,0.13 0.013,0.244 0.023,0.32 0.004,0.078 0.008,0.122 0.008,0.122 0,0 -0.004,0.044 -0.008,0.122 -0.01,0.077 0.001,0.191 -0.023,0.322 -0.033,0.263 -0.112,0.608 -0.244,0.935 -0.143,0.322 -0.32,0.631 -0.492,0.836 -0.07,0.111 -0.16,0.181 -0.21,0.243 -0.051,0.059 -0.079,0.091 -0.079,0.091 0,0 -0.033,0.03 -0.091,0.081 m 2.528,-1.842 c 0.008,-0.056 0.019,-0.116 0.027,-0.17 0.029,-0.183 0.021,-0.34 0.032,-0.447 0.006,-0.108 0.009,-0.171 0.009,-0.171 0,0 -0.003,-0.061 -0.009,-0.17 -0.011,-0.108 -0.003,-0.264 -0.032,-0.447 -0.008,-0.055 -0.019,-0.114 -0.027,-0.171 0.157,-0.046 0.324,-0.097 0.491,-0.151 0.643,-0.206 1.276,-0.463 1.276,-0.463 0,0 -0.038,-0.156 -0.099,-0.393 -0.051,-0.238 -0.169,-0.541 -0.282,-0.845 -0.249,-0.6 -0.608,-1.143 -0.607,-1.143 0,0 -0.623,0.263 -1.227,0.575 -0.157,0.079 -0.312,0.161 -0.454,0.239 -0.034,-0.046 -0.07,-0.096 -0.103,-0.137 -0.106,-0.155 -0.224,-0.257 -0.294,-0.341 -0.072,-0.08 -0.113,-0.126 -0.113,-0.126 0,0 -0.047,-0.042 -0.126,-0.115 -0.084,-0.069 -0.188,-0.187 -0.341,-0.293 -0.043,-0.034 -0.092,-0.068 -0.138,-0.103 0.078,-0.142 0.159,-0.298 0.238,-0.453 0.313,-0.604 0.574,-1.227 0.574,-1.227 0,0 -0.541,-0.358 -1.141,-0.608 -0.304,-0.113 -0.607,-0.231 -0.845,-0.283 -0.236,-0.059 -0.394,-0.099 -0.394,-0.099 0,0 -0.257,0.634 -0.461,1.279 -0.054,0.166 -0.105,0.334 -0.152,0.49 -0.057,-0.01 -0.117,-0.021 -0.169,-0.028 -0.184,-0.029 -0.341,-0.022 -0.449,-0.032 -0.109,-0.006 -0.17,-0.009 -0.17,-0.009 0,0 -0.063,0.003 -0.172,0.009 -0.106,0.01 -0.264,0.003 -0.447,0.032 -0.053,0.007 -0.112,0.018 -0.17,0.028 -0.046,-0.156 -0.097,-0.324 -0.15,-0.49 -0.206,-0.645 -0.463,-1.279 -0.463,-1.279 0,0 -0.158,0.04 -0.393,0.099 -0.239,0.052 -0.541,0.17 -0.845,0.283 -0.601,0.25 -1.143,0.608 -1.143,0.608 0,0 0.262,0.623 0.575,1.227 0.08,0.155 0.16,0.311 0.238,0.453 -0.045,0.035 -0.095,0.069 -0.137,0.103 -0.155,0.106 -0.257,0.224 -0.341,0.293 -0.08,0.073 -0.125,0.115 -0.125,0.115 0,0 -0.043,0.046 -0.115,0.126 -0.07,0.084 -0.189,0.186 -0.293,0.341 -0.035,0.041 -0.069,0.091 -0.102,0.137 -0.144,-0.078 -0.298,-0.16 -0.454,-0.239 -0.607,-0.312 -1.229,-0.575 -1.229,-0.575 0,0 -0.356,0.543 -0.606,1.143 -0.114,0.304 -0.232,0.607 -0.283,0.845 -0.061,0.237 -0.099,0.393 -0.099,0.393 0,0 0.633,0.257 1.278,0.463 0.166,0.054 0.332,0.105 0.49,0.151 -0.01,0.057 -0.02,0.116 -0.027,0.171 -0.03,0.183 -0.023,0.339 -0.033,0.447 -0.005,0.109 -0.008,0.17 -0.008,0.17 0,0 0.003,0.063 0.008,0.171 0.01,0.107 0.003,0.264 0.033,0.447 0.007,0.054 0.017,0.114 0.027,0.17 -0.158,0.047 -0.324,0.098 -0.49,0.153 -0.645,0.206 -1.278,0.46 -1.278,0.46 0,0 0.038,0.159 0.099,0.394 0.051,0.239 0.169,0.541 0.283,0.845 0.25,0.601 0.606,1.143 0.606,1.143 0,0 0.622,-0.262 1.229,-0.575 0.156,-0.079 0.31,-0.161 0.454,-0.239 0.033,0.048 0.067,0.098 0.102,0.139 0.104,0.153 0.223,0.255 0.293,0.34 0.072,0.08 0.115,0.126 0.115,0.126 0,0 0.045,0.041 0.125,0.115 0.084,0.069 0.186,0.187 0.341,0.292 0.042,0.035 0.092,0.069 0.137,0.103 -0.078,0.143 -0.158,0.297 -0.238,0.455 -0.313,0.604 -0.575,1.227 -0.575,1.227 0,0 0.542,0.356 1.143,0.606 0.304,0.113 0.606,0.232 0.845,0.282 0.235,0.061 0.393,0.1 0.393,0.1 0,0 0.257,-0.633 0.463,-1.278 0.053,-0.166 0.104,-0.333 0.15,-0.49 0.058,0.01 0.117,0.02 0.17,0.027 0.183,0.03 0.341,0.023 0.447,0.033 0.109,0.006 0.172,0.008 0.172,0.008 0,0 0.061,-0.002 0.17,-0.008 0.108,-0.01 0.265,-0.003 0.449,-0.033 0.052,-0.007 0.112,-0.017 0.169,-0.027 0.047,0.157 0.098,0.324 0.152,0.49 0.204,0.645 0.461,1.278 0.461,1.278 0,0 0.158,-0.039 0.394,-0.1 0.238,-0.05 0.541,-0.169 0.845,-0.282 0.6,-0.25 1.141,-0.606 1.141,-0.606 0,0 -0.261,-0.623 -0.574,-1.227 -0.079,-0.158 -0.16,-0.312 -0.238,-0.455 0.046,-0.034 0.095,-0.068 0.138,-0.103 0.153,-0.105 0.257,-0.223 0.341,-0.292 0.079,-0.074 0.126,-0.115 0.126,-0.115 0,0 0.041,-0.046 0.113,-0.126 0.07,-0.085 0.188,-0.187 0.294,-0.34 0.033,-0.041 0.069,-0.091 0.103,-0.139 0.142,0.078 0.297,0.16 0.454,0.239 0.604,0.313 1.227,0.575 1.227,0.575 -10e-4,0 0.358,-0.542 0.607,-1.143 0.113,-0.304 0.231,-0.606 0.282,-0.845 0.061,-0.235 0.099,-0.394 0.099,-0.394 0,0 -0.633,-0.254 -1.276,-0.46 -0.167,-0.055 -0.334,-0.106 -0.491,-0.153"
         id="Fill-1865"
         inkscape:connector-curvature="0"
         style="fill:#ffc800" />
      <polygon
         id="Fill-1866"
         points="99.542,134.191 101.313,134.191 101.313,123.948 99.542,123.948 "
         style="fill:#ff6400" />
      <polygon
         id="Fill-1867"
         points="101.949,134.191 103.719,134.191 103.719,125.036 101.949,125.036 "
         style="fill:#ffc800" />
      <polygon
         id="Fill-1868"
         points="104.354,134.191 106.127,134.191 106.127,127.892 104.354,127.892 "
         style="fill:#00a0b4" />
      <polygon
         id="Fill-1869"
         points="106.761,134.191 108.533,134.191 108.533,126.082 106.761,126.082 "
         style="fill:#96b400" />
      <path
         d="m 180.4487,37.7842 c 0,2.765 -2.241,5.007 -5.006,5.007 -2.765,0 -5.006,-2.242 -5.006,-5.007 0,-2.765 2.241,-5.006 5.006,-5.006 2.765,0 5.006,2.241 5.006,5.006"
         id="Fill-1870"
         inkscape:connector-curvature="0"
         style="fill:#0082a0" />
      <polygon
         id="Fill-1871"
         points="75.904,65.597 81.48,65.597 81.48,50.597 75.904,50.597 "
         style="fill:#006e8c" />
      <polygon
         id="Fill-1872"
         points="83.473,65.597 89.052,65.597 89.052,58.67 83.473,58.67 "
         style="fill:#006e8c" />
      <polygon
         id="Fill-1873"
         points="60.432,65.597 66.01,65.597 66.01,58.67 60.432,58.67 "
         style="fill:#006e8c" />
      <polygon
         id="Fill-1874"
         points="68.002,65.597 73.579,65.597 73.579,54.517 68.002,54.517 "
         style="fill:#006e8c" />
    </g>
  </g>
</svg>
